<svg width="22" height="22" viewBox="0 0 22 22" fill="none" xmlns="http://www.w3.org/2000/svg">
<path d="M3.07081 1.83337H11.2292C11.9075 1.83337 12.4666 2.39255 12.4666 3.07088V4.42753C12.4666 4.92253 12.155 5.53671 11.8525 5.84838L9.19419 8.19504C8.82753 8.50671 8.57999 9.12087 8.57999 9.61587V12.2742C8.57999 12.6409 8.3325 13.1359 8.02083 13.3284L7.15916 13.8875C6.3525 14.3825 5.24331 13.8234 5.24331 12.8334V9.56087C5.24331 9.13003 4.99583 8.57088 4.74833 8.25922L2.40166 5.78421C2.09 5.47254 1.84251 4.92253 1.84251 4.5467V3.12588C1.83334 2.39254 2.39248 1.83337 3.07081 1.83337Z" stroke="#292D32" stroke-width="1.5" stroke-miterlimit="10" stroke-linecap="round" stroke-linejoin="round"/>
<path d="M1.83333 11V13.75C1.83333 18.3334 3.66667 20.1667 8.25 20.1667H13.75C18.3333 20.1667 20.1667 18.3334 20.1667 13.75V8.25002C20.1667 5.39002 19.4516 3.59335 17.7925 2.65835C17.325 2.39251 16.39 2.19084 15.5375 2.05334" stroke="#292D32" stroke-width="1.5" stroke-linecap="round" stroke-linejoin="round"/>
<path d="M11.9167 11.9166H16.5" stroke="#292D32" stroke-width="1.5" stroke-linecap="round" stroke-linejoin="round"/>
<path d="M10.0833 15.5834H16.5" stroke="#292D32" stroke-width="1.5" stroke-linecap="round" stroke-linejoin="round"/>
</svg>
