<svg width="22" height="22" viewBox="0 0 22 22" fill="none" xmlns="http://www.w3.org/2000/svg">
<path d="M7.33333 11.1833H13.75" stroke="#292D32" stroke-width="1.5" stroke-miterlimit="10" stroke-linecap="round" stroke-linejoin="round"/>
<path d="M7.33333 14.85H11.3483" stroke="#292D32" stroke-width="1.5" stroke-miterlimit="10" stroke-linecap="round" stroke-linejoin="round"/>
<path d="M9.16667 5.50004H12.8333C14.6667 5.50004 14.6667 4.58337 14.6667 3.66671C14.6667 1.83337 13.75 1.83337 12.8333 1.83337H9.16667C8.25 1.83337 7.33333 1.83337 7.33333 3.66671C7.33333 5.50004 8.25 5.50004 9.16667 5.50004Z" stroke="#292D32" stroke-width="1.5" stroke-miterlimit="10" stroke-linecap="round" stroke-linejoin="round"/>
<path d="M14.6667 3.68506C17.7192 3.85006 19.25 4.97756 19.25 9.16673V14.6667C19.25 18.3334 18.3333 20.1667 13.75 20.1667H8.25C3.66667 20.1667 2.75 18.3334 2.75 14.6667V9.16673C2.75 4.98673 4.28083 3.85006 7.33333 3.68506" stroke="#292D32" stroke-width="1.5" stroke-miterlimit="10" stroke-linecap="round" stroke-linejoin="round"/>
</svg>
