<svg width="22" height="22" viewBox="0 0 22 22" fill="none" xmlns="http://www.w3.org/2000/svg">
<path d="M17.1875 7.33325V9.25826C16.7842 9.20326 16.3258 9.17575 15.8125 9.16658V7.33325C15.8125 4.44575 14.9967 2.52075 11 2.52075C7.00333 2.52075 6.1875 4.44575 6.1875 7.33325V9.16658C5.67417 9.17575 5.21583 9.20326 4.8125 9.25826V7.33325C4.8125 4.67492 5.45417 1.14575 11 1.14575C16.5458 1.14575 17.1875 4.67492 17.1875 7.33325Z" fill="#9B9B9F"/>
<path opacity="0.4" d="M20.1666 13.7501V15.5834C20.1666 19.2501 19.25 20.1667 15.5833 20.1667H6.41665C2.74998 20.1667 1.83331 19.2501 1.83331 15.5834V13.7501C1.83331 10.6884 2.47498 9.54259 4.81248 9.25842C5.21581 9.20342 5.67415 9.17591 6.18748 9.16675H15.8125C16.3258 9.17591 16.7841 9.20342 17.1875 9.25842C19.525 9.54259 20.1666 10.6884 20.1666 13.7501Z" fill="#9B9B9F"/>
<path d="M7.33335 15.5833C7.21419 15.5833 7.09502 15.5558 6.98502 15.51C6.86585 15.4641 6.77419 15.4 6.68253 15.3175C6.51753 15.1433 6.41669 14.905 6.41669 14.6666C6.41669 14.5475 6.44417 14.4283 6.49001 14.3183C6.53584 14.2083 6.60003 14.1075 6.68253 14.0158C6.77419 13.9333 6.86585 13.8691 6.98502 13.8233C7.32418 13.6766 7.72751 13.7591 7.98418 14.0158C8.06668 14.1075 8.13087 14.2083 8.1767 14.3183C8.22253 14.4283 8.25002 14.5475 8.25002 14.6666C8.25002 14.905 8.14918 15.1433 7.98418 15.3175C7.81001 15.4825 7.57169 15.5833 7.33335 15.5833Z" fill="#9B9B9F"/>
<path d="M11 15.5834C10.7525 15.5834 10.5233 15.4825 10.3492 15.3175C10.2667 15.2259 10.2025 15.125 10.1566 15.015C10.1108 14.905 10.0833 14.7859 10.0833 14.6667C10.0833 14.4192 10.1842 14.19 10.3492 14.0158C10.6883 13.6767 11.3025 13.6767 11.6508 14.0158C11.8158 14.19 11.9166 14.4192 11.9166 14.6667C11.9166 14.7859 11.8892 14.905 11.8433 15.015C11.7975 15.125 11.7333 15.2259 11.6508 15.3175C11.4766 15.4825 11.2383 15.5834 11 15.5834Z" fill="#9B9B9F"/>
<path d="M14.6667 15.5834C14.4283 15.5834 14.19 15.4825 14.0158 15.3175C13.8508 15.1434 13.75 14.9142 13.75 14.6667C13.75 14.4192 13.8508 14.19 14.0158 14.0158C14.3642 13.6767 14.9783 13.6767 15.3175 14.0158C15.3542 14.0617 15.3908 14.1075 15.4275 14.1625C15.4642 14.2084 15.4917 14.2634 15.51 14.3184C15.5375 14.3734 15.5558 14.4284 15.565 14.4834C15.5742 14.5475 15.5833 14.6117 15.5833 14.6667C15.5833 14.905 15.4825 15.1434 15.3175 15.3175C15.1433 15.4825 14.905 15.5834 14.6667 15.5834Z" fill="#9B9B9F"/>
</svg>
