<svg width="22" height="22" viewBox="0 0 22 22" fill="none" xmlns="http://www.w3.org/2000/svg">
<path d="M20.1667 5.49992V7.71825C20.1667 9.16658 19.25 10.0833 17.8017 10.0833H14.6667V3.67575C14.6667 2.65825 15.5009 1.83325 16.5184 1.83325C17.5175 1.84242 18.4342 2.24575 19.0942 2.90575C19.7542 3.57492 20.1667 4.49159 20.1667 5.49992Z" stroke="#292D32" stroke-width="1.5" stroke-miterlimit="10" stroke-linecap="round" stroke-linejoin="round"/>
<path d="M1.83331 6.41658V19.2499C1.83331 20.0107 2.69498 20.4416 3.29998 19.9833L4.86748 18.8099C5.23415 18.5349 5.74748 18.5716 6.07748 18.9016L7.59915 20.4324C7.95665 20.7899 8.54331 20.7899 8.90081 20.4324L10.4408 18.8924C10.7616 18.5716 11.275 18.5349 11.6325 18.8099L13.2 19.9833C13.805 20.4324 14.6666 20.0016 14.6666 19.2499V3.66659C14.6666 2.65825 15.4916 1.83325 16.5 1.83325H6.41665H5.49998C2.74998 1.83325 1.83331 3.47409 1.83331 5.49992V6.41658Z" stroke="#292D32" stroke-width="1.5" stroke-miterlimit="10" stroke-linecap="round" stroke-linejoin="round"/>
<path d="M8.25 11.9258H11" stroke="#292D32" stroke-width="1.5" stroke-linecap="round" stroke-linejoin="round"/>
<path d="M8.25 8.25928H11" stroke="#292D32" stroke-width="1.5" stroke-linecap="round" stroke-linejoin="round"/>
<path d="M5.49597 11.9167H5.50421" stroke="#292D32" stroke-width="2" stroke-linecap="round" stroke-linejoin="round"/>
<path d="M5.49597 8.25H5.50421" stroke="#292D32" stroke-width="2" stroke-linecap="round" stroke-linejoin="round"/>
</svg>
