<svg width="22" height="22" viewBox="0 0 22 22" fill="none" xmlns="http://www.w3.org/2000/svg">
<path d="M11.3392 1.97089L19.5892 5.27087C19.91 5.3992 20.1667 5.7842 20.1667 6.12336V9.1667C20.1667 9.67087 19.7542 10.0834 19.25 10.0834H2.75C2.24583 10.0834 1.83333 9.67087 1.83333 9.1667V6.12336C1.83333 5.7842 2.09001 5.3992 2.41084 5.27087L10.6608 1.97089C10.8442 1.89756 11.1558 1.89756 11.3392 1.97089Z" stroke="#292D32" stroke-width="1.5" stroke-miterlimit="10" stroke-linecap="round" stroke-linejoin="round"/>
<path d="M20.1667 20.1667H1.83333V17.4167C1.83333 16.9125 2.24583 16.5 2.75 16.5H19.25C19.7542 16.5 20.1667 16.9125 20.1667 17.4167V20.1667Z" stroke="#292D32" stroke-width="1.5" stroke-miterlimit="10" stroke-linecap="round" stroke-linejoin="round"/>
<path d="M3.66667 16.5V10.0834" stroke="#292D32" stroke-width="1.5" stroke-miterlimit="10" stroke-linecap="round" stroke-linejoin="round"/>
<path d="M7.33333 16.5V10.0834" stroke="#292D32" stroke-width="1.5" stroke-miterlimit="10" stroke-linecap="round" stroke-linejoin="round"/>
<path d="M11 16.5V10.0834" stroke="#292D32" stroke-width="1.5" stroke-miterlimit="10" stroke-linecap="round" stroke-linejoin="round"/>
<path d="M14.6667 16.5V10.0834" stroke="#292D32" stroke-width="1.5" stroke-miterlimit="10" stroke-linecap="round" stroke-linejoin="round"/>
<path d="M18.3333 16.5V10.0834" stroke="#292D32" stroke-width="1.5" stroke-miterlimit="10" stroke-linecap="round" stroke-linejoin="round"/>
<path d="M0.916666 20.1666H21.0833" stroke="#292D32" stroke-width="1.5" stroke-miterlimit="10" stroke-linecap="round" stroke-linejoin="round"/>
<path d="M11 7.79163C11.7594 7.79163 12.375 7.17602 12.375 6.41663C12.375 5.65723 11.7594 5.04163 11 5.04163C10.2406 5.04163 9.625 5.65723 9.625 6.41663C9.625 7.17602 10.2406 7.79163 11 7.79163Z" stroke="#292D32" stroke-width="1.5" stroke-miterlimit="10" stroke-linecap="round" stroke-linejoin="round"/>
</svg>
