<svg width="22" height="22" class="mr-2" viewBox="0 0 22 22" fill="none" xmlns="http://www.w3.org/2000/svg">
<path d="M8.39667 9.96421C8.305 9.95504 8.195 9.95504 8.09417 9.96421C5.9125 9.89087 4.18 8.10337 4.18 5.90337C4.18 3.65754 5.995 1.83337 8.25 1.83337C10.4958 1.83337 12.32 3.65754 12.32 5.90337C12.3108 8.10337 10.5783 9.89087 8.39667 9.96421Z" stroke="currentColor" stroke-width="1.5" stroke-linecap="round" stroke-linejoin="round"/>
<path d="M15.0425 3.66663C16.8208 3.66663 18.2508 5.10579 18.2508 6.87496C18.2508 8.60746 16.8758 10.0191 15.1617 10.0833C15.0883 10.0741 15.0058 10.0741 14.9233 10.0833" stroke="currentColor" stroke-width="1.5" stroke-linecap="round" stroke-linejoin="round"/>
<path d="M3.81333 13.3466C1.595 14.8316 1.595 17.2516 3.81333 18.7275C6.33417 20.4141 10.4683 20.4141 12.9892 18.7275C15.2075 17.2425 15.2075 14.8225 12.9892 13.3466C10.4775 11.6691 6.34333 11.6691 3.81333 13.3466Z" stroke="currentColor" stroke-width="1.5" stroke-linecap="round" stroke-linejoin="round"/>
<path d="M16.8117 18.3334C17.4717 18.1959 18.095 17.93 18.6083 17.5359C20.0383 16.4634 20.0383 14.6942 18.6083 13.6217C18.1042 13.2367 17.49 12.98 16.8392 12.8334" stroke="currentColor" stroke-width="1.5" stroke-linecap="round" stroke-linejoin="round"/>
</svg>
