<svg width="22" height="22" class="mr-2" viewBox="0 0 22 22" fill="none" xmlns="http://www.w3.org/2000/svg">
<path d="M11 13.75C12.5188 13.75 13.75 12.5188 13.75 11C13.75 9.48122 12.5188 8.25 11 8.25C9.48122 8.25 8.25 9.48122 8.25 11C8.25 12.5188 9.48122 13.75 11 13.75Z" stroke="currentColor" stroke-width="1.5" stroke-miterlimit="10" stroke-linecap="round" stroke-linejoin="round"/>
<path d="M1.83333 11.8066V10.1933C1.83333 9.23998 2.6125 8.45165 3.575 8.45165C5.23417 8.45165 5.9125 7.27832 5.07833 5.83915C4.60167 5.01415 4.88583 3.94165 5.72 3.46498L7.30583 2.55748C8.03 2.12665 8.965 2.38332 9.39583 3.10748L9.49667 3.28165C10.3217 4.72082 11.6783 4.72082 12.5125 3.28165L12.6133 3.10748C13.0442 2.38332 13.9792 2.12665 14.7033 2.55748L16.2892 3.46498C17.1233 3.94165 17.4075 5.01415 16.9308 5.83915C16.0967 7.27832 16.775 8.45165 18.4342 8.45165C19.3875 8.45165 20.1758 9.23082 20.1758 10.1933V11.8066C20.1758 12.76 19.3967 13.5483 18.4342 13.5483C16.775 13.5483 16.0967 14.7216 16.9308 16.1608C17.4075 16.995 17.1233 18.0583 16.2892 18.535L14.7033 19.4425C13.9792 19.8733 13.0442 19.6166 12.6133 18.8925L12.5125 18.7183C11.6875 17.2791 10.3308 17.2791 9.49667 18.7183L9.39583 18.8925C8.965 19.6166 8.03 19.8733 7.30583 19.4425L5.72 18.535C4.88583 18.0583 4.60167 16.9858 5.07833 16.1608C5.9125 14.7216 5.23417 13.5483 3.575 13.5483C2.6125 13.5483 1.83333 12.76 1.83333 11.8066Z" stroke="currentColor" stroke-width="1.5" stroke-miterlimit="10" stroke-linecap="round" stroke-linejoin="round"/>
</svg>
