<svg width="22" height="22" class="mr-2" viewBox="0 0 22 22" fill="none" xmlns="http://www.w3.org/2000/svg">
<path d="M8.25 20.1667H13.75C18.3333 20.1667 20.1667 18.3334 20.1667 13.75V8.25004C20.1667 3.66671 18.3333 1.83337 13.75 1.83337H8.25C3.66667 1.83337 1.83333 3.66671 1.83333 8.25004V13.75C1.83333 18.3334 3.66667 20.1667 8.25 20.1667Z" stroke="currentColor" stroke-width="1.5" stroke-linecap="round" stroke-linejoin="round"/>
<path d="M14.2725 16.9583V13.3833" stroke="currentColor" stroke-width="1.5" stroke-miterlimit="10" stroke-linecap="round" stroke-linejoin="round"/>
<path d="M14.2725 6.82913V5.04163" stroke="currentColor" stroke-width="1.5" stroke-miterlimit="10" stroke-linecap="round" stroke-linejoin="round"/>
<path d="M14.2725 11.5959C15.5888 11.5959 16.6558 10.5288 16.6558 9.21256C16.6558 7.89628 15.5888 6.82922 14.2725 6.82922C12.9562 6.82922 11.8892 7.89628 11.8892 9.21256C11.8892 10.5288 12.9562 11.5959 14.2725 11.5959Z" stroke="currentColor" stroke-width="1.5" stroke-miterlimit="10" stroke-linecap="round" stroke-linejoin="round"/>
<path d="M7.7275 16.9583V15.1708" stroke="currentColor" stroke-width="1.5" stroke-miterlimit="10" stroke-linecap="round" stroke-linejoin="round"/>
<path d="M7.7275 8.61663V5.04163" stroke="currentColor" stroke-width="1.5" stroke-miterlimit="10" stroke-linecap="round" stroke-linejoin="round"/>
<path d="M7.7275 15.1708C9.04378 15.1708 10.1108 14.1038 10.1108 12.7875C10.1108 11.4712 9.04378 10.4042 7.7275 10.4042C6.41122 10.4042 5.34417 11.4712 5.34417 12.7875C5.34417 14.1038 6.41122 15.1708 7.7275 15.1708Z" stroke="currentColor" stroke-width="1.5" stroke-miterlimit="10" stroke-linecap="round" stroke-linejoin="round"/>
</svg>
