<svg width="22" height="22" class="mr-2" viewBox="0 0 22 22" fill="none" xmlns="http://www.w3.org/2000/svg">
<path d="M15.5833 18.7917H6.41667C3.66667 18.7917 1.83333 17.4167 1.83333 14.2084V7.79171C1.83333 4.58337 3.66667 3.20837 6.41667 3.20837H15.5833C18.3333 3.20837 20.1667 4.58337 20.1667 7.79171V14.2084C20.1667 17.4167 18.3333 18.7917 15.5833 18.7917Z" stroke="currentColor" stroke-width="1.5" stroke-miterlimit="10" stroke-linecap="round" stroke-linejoin="round"/>
<path d="M11 13.75C12.5188 13.75 13.75 12.5188 13.75 11C13.75 9.48122 12.5188 8.25 11 8.25C9.48122 8.25 8.25 9.48122 8.25 11C8.25 12.5188 9.48122 13.75 11 13.75Z" stroke="currentColor" stroke-width="1.5" stroke-miterlimit="10" stroke-linecap="round" stroke-linejoin="round"/>
<path d="M1.83333 8.24996H2.75C5.5 8.24996 6.41667 7.33329 6.41667 4.58329V3.66663" stroke="currentColor" stroke-width="1.5" stroke-miterlimit="10" stroke-linecap="round" stroke-linejoin="round"/>
<path d="M20.1667 8.24996H19.25C16.5 8.24996 15.5833 7.33329 15.5833 4.58329V3.66663" stroke="currentColor" stroke-width="1.5" stroke-miterlimit="10" stroke-linecap="round" stroke-linejoin="round"/>
<path d="M1.83333 13.75H2.75C5.5 13.75 6.41667 14.6667 6.41667 17.4167V18.3333" stroke="currentColor" stroke-width="1.5" stroke-miterlimit="10" stroke-linecap="round" stroke-linejoin="round"/>
<path d="M20.1667 13.75H19.25C16.5 13.75 15.5833 14.6667 15.5833 17.4167V18.3333" stroke="currentColor" stroke-width="1.5" stroke-miterlimit="10" stroke-linecap="round" stroke-linejoin="round"/>
</svg>
