<svg width="22" height="22" class="mr-2" viewBox="0 0 22 22" fill="none" xmlns="http://www.w3.org/2000/svg">
<path d="M20.1667 11C20.1667 5.94004 16.06 1.83337 11 1.83337C5.94 1.83337 1.83333 5.94004 1.83333 11C1.83333 16.06 5.94 20.1667 11 20.1667" stroke="currentColor" stroke-width="1.5" stroke-linecap="round" stroke-linejoin="round"/>
<path d="M7.33334 2.75H8.25001C6.46251 8.10333 6.46251 13.8967 8.25001 19.25H7.33334" stroke="currentColor" stroke-width="1.5" stroke-linecap="round" stroke-linejoin="round"/>
<path d="M13.75 2.75C14.6392 5.42667 15.0883 8.21333 15.0883 11" stroke="currentColor" stroke-width="1.5" stroke-linecap="round" stroke-linejoin="round"/>
<path d="M2.75 14.6667V13.75C5.42667 14.6392 8.21333 15.0884 11 15.0884" stroke="currentColor" stroke-width="1.5" stroke-linecap="round" stroke-linejoin="round"/>
<path d="M2.75 8.25005C8.10333 6.46255 13.8967 6.46255 19.25 8.25005" stroke="currentColor" stroke-width="1.5" stroke-linecap="round" stroke-linejoin="round"/>
<path d="M17.6092 14.4284L14.3642 17.6734C14.2358 17.8017 14.1167 18.04 14.0892 18.2142L13.915 19.4517C13.8508 19.9008 14.1625 20.2125 14.6117 20.1483L15.8492 19.9742C16.0233 19.9467 16.2708 19.8275 16.39 19.6992L19.635 16.4542C20.1942 15.895 20.46 15.2442 19.635 14.4192C18.8192 13.6033 18.1683 13.8692 17.6092 14.4284Z" stroke="currentColor" stroke-width="1.5" stroke-miterlimit="10" stroke-linecap="round" stroke-linejoin="round"/>
<path d="M17.1417 14.8959C17.4167 15.8859 18.1867 16.6558 19.1767 16.9308" stroke="currentColor" stroke-width="1.5" stroke-miterlimit="10" stroke-linecap="round" stroke-linejoin="round"/>
</svg>
