<svg width="40" height="40" viewBox="0 0 40 40" fill="none" xmlns="http://www.w3.org/2000/svg">
<g clip-path="url(#clip0_105_83)">
<path d="M20.0001 40C31.0458 40 40 31.0458 40 20.0001C40 8.95447 31.0458 -0.000117473 20.0001 -0.000116507C8.95447 -0.000115542 -0.000117155 8.95448 -0.000116189 20.0001C0.0123359 31.0407 8.95923 39.9876 20.0001 40ZM20.0001 2.00013C29.9413 2.00013 38.0001 10.059 38.0001 20.0001C38.0001 29.9413 29.9413 38.0001 20.0001 38.0001C10.059 38.0001 2.00013 29.9413 2.00013 20.0001C2.01148 10.0637 10.0637 2.01148 20.0001 2.00013Z" fill="#44B87E"/>
<path d="M22.3417 27.7528C22.7577 28.1164 23.3894 28.0739 23.7531 27.6583C24.1163 27.2423 24.0739 26.6105 23.6582 26.2469L16.5186 20.0001L23.6586 13.7529C24.0746 13.3892 24.1167 12.7575 23.7534 12.3419C23.3898 11.9258 22.7581 11.8834 22.342 12.247L14.3422 19.2471C14.125 19.4368 14.0005 19.7115 14.0005 20.0001C14.0005 20.2886 14.125 20.5629 14.3422 20.753L22.3417 27.7528Z" fill="#44B87E"/>
</g>
<defs>
<clipPath id="clip0_105_83">
<rect width="40" height="40" fill="white" transform="translate(40 40) rotate(180)"/>
</clipPath>
</defs>
</svg>
