<svg width="122" height="24" viewBox="0 0 122 24" fill="none" xmlns="http://www.w3.org/2000/svg">
<path fill-rule="evenodd" clip-rule="evenodd" d="M117.863 18.2209C117.936 19.0557 118.603 20.1182 119.758 20.1182H120.434C120.696 20.1182 120.911 19.9032 120.911 19.6406V4.75519H120.907C120.894 4.50441 120.687 4.30357 120.434 4.30357H118.34C118.086 4.30357 117.879 4.50441 117.866 4.75519H117.863V5.96472C116.58 4.3808 114.557 3.72339 112.529 3.72339C107.918 3.72339 104.18 7.46974 104.18 12.0913C104.18 16.7133 107.918 20.4597 112.529 20.4597V20.4601C114.557 20.4601 116.768 19.6713 117.863 18.2191V18.2209ZM112.536 17.531C109.604 17.531 107.227 15.0958 107.227 12.0913C107.227 9.08748 109.604 6.65216 112.536 6.65216C115.47 6.65216 117.847 9.08748 117.847 12.0913C117.847 15.0958 115.47 17.531 112.536 17.531Z" fill="#835DFF"/>
<path fill-rule="evenodd" clip-rule="evenodd" d="M101.532 18.733L101.531 11.0304H101.532C101.532 6.68847 98.7986 3.75934 94.4405 3.75934C92.3601 3.75934 90.6547 4.96507 90.0523 6.00081C89.9221 5.19094 89.4932 4.33965 88.1628 4.33965H87.4848C87.2225 4.33965 87.0083 4.55485 87.0083 4.81744V18.2583C87.0083 18.2588 87.0083 18.2598 87.0083 18.2604V19.7042H87.0109C87.0246 19.9546 87.2317 20.1557 87.485 20.1557H89.5791C89.6111 20.1557 89.6426 20.1518 89.673 20.146C89.6869 20.1432 89.6997 20.1378 89.7132 20.1339C89.7288 20.1292 89.745 20.1254 89.7598 20.1193C89.7785 20.1116 89.7953 20.1012 89.8127 20.0915C89.8212 20.0863 89.8301 20.0827 89.8383 20.0772C89.8592 20.0637 89.8783 20.0474 89.8969 20.0309C89.8999 20.0278 89.9035 20.0257 89.9066 20.0229C89.9274 20.0027 89.9464 19.9805 89.9632 19.9573C89.9634 19.957 89.9634 19.957 89.9634 19.957C90.0158 19.8849 90.0476 19.798 90.0529 19.7042H90.0556V10.911C90.0556 8.57905 91.9419 6.68846 94.2687 6.68846C96.5954 6.68846 98.4819 8.57905 98.4819 10.911L98.4837 18.261L98.4842 18.2583C98.4842 18.2649 98.4852 18.2716 98.4852 18.2785V19.7042H98.4881C98.5019 19.9546 98.7088 20.1557 98.9619 20.1557H101.056C101.088 20.1557 101.12 20.1518 101.15 20.146C101.162 20.1437 101.174 20.1386 101.186 20.1353C101.203 20.1302 101.221 20.126 101.237 20.1193C101.254 20.1122 101.27 20.1023 101.286 20.0931C101.296 20.0876 101.306 20.0835 101.316 20.0772C101.335 20.0645 101.353 20.0491 101.37 20.0339C101.375 20.0298 101.38 20.0267 101.384 20.0226C101.404 20.0034 101.421 19.9826 101.438 19.9609C101.439 19.9593 101.44 19.958 101.441 19.9564C101.493 19.8849 101.524 19.7986 101.53 19.7054C101.53 19.7048 101.53 19.7042 101.53 19.7042H101.533V18.7332L101.532 18.733Z" fill="#835DFF"/>
<path fill-rule="evenodd" clip-rule="evenodd" d="M79.7225 18.2209C79.7956 19.0557 80.4624 20.1182 81.6175 20.1182H82.2933C82.5552 20.1182 82.7697 19.9032 82.7697 19.6406V4.75519H82.767C82.7534 4.50441 82.5462 4.30357 82.2933 4.30357H80.1991C79.9459 4.30357 79.739 4.50441 79.7249 4.75519H79.7225V5.96472C78.4393 4.3808 76.4164 3.72339 74.3878 3.72339C69.7768 3.72339 66.0391 7.46973 66.0391 12.0914C66.0391 16.7133 69.7768 20.4598 74.3878 20.4598V20.4601C76.4164 20.4601 78.6272 19.6714 79.7222 18.2191L79.7225 18.2209ZM74.396 17.531C71.4636 17.531 69.0861 15.0959 69.0861 12.0914C69.0861 9.08748 71.4636 6.65216 74.396 6.65216C77.3286 6.65216 79.7057 9.08748 79.7057 12.0914C79.7057 15.0959 77.3286 17.531 74.396 17.531Z" fill="#835DFF"/>
<path fill-rule="evenodd" clip-rule="evenodd" d="M53.6545 16.0889C55.0525 17.0596 56.5785 17.5311 58.0449 17.5311C59.4419 17.5311 60.8862 16.8052 60.8862 15.5417C60.8862 13.855 57.7391 13.5925 55.7618 12.919C53.7841 12.2454 52.0808 10.8531 52.0808 8.5983C52.0808 5.14807 55.1481 3.72308 58.011 3.72308C59.8249 3.72308 61.6964 4.32258 62.9097 5.18136C63.3276 5.4987 63.0731 5.86304 63.0731 5.86304L61.9149 7.52102C61.7847 7.70776 61.5571 7.86911 61.2304 7.66698C60.9036 7.465 59.7576 6.65195 58.011 6.65195C56.2642 6.65195 55.2121 7.46042 55.2121 8.46249C55.2121 9.66415 56.5796 10.0421 58.1813 10.4517C60.9726 11.2057 64.0174 12.1121 64.0174 15.5417C64.0174 18.5817 61.1804 20.4603 58.0449 20.4603C55.6688 20.4603 53.6458 19.7814 51.9491 18.5335C51.5957 18.179 51.8425 17.8498 51.8425 17.8498L52.9951 16.2002C53.2296 15.8918 53.5252 15.9994 53.6545 16.0889Z" fill="#835DFF"/>
<path fill-rule="evenodd" clip-rule="evenodd" d="M45.6042 18.2209C45.6774 19.0557 46.3441 20.1182 47.4991 20.1182H48.175C48.437 20.1182 48.6516 19.9032 48.6516 19.6406V4.75519H48.6487C48.635 4.50441 48.4281 4.30357 48.175 4.30357H46.0808C45.8276 4.30357 45.6207 4.50441 45.6067 4.75519H45.6042V5.96472C44.3211 4.3808 42.2982 3.72339 40.2696 3.72339C35.6586 3.72339 31.9207 7.46973 31.9207 12.0914C31.9207 16.7133 35.6586 20.4598 40.2696 20.4598V20.4601C42.2982 20.4601 44.5089 19.6714 45.6038 18.2191L45.6042 18.2209ZM40.2778 17.531C37.3452 17.531 34.9678 15.0959 34.9678 12.0914C34.9678 9.08748 37.3452 6.65216 40.2778 6.65216C43.2102 6.65216 45.5874 9.08748 45.5874 12.0914C45.5874 15.0959 43.2102 17.531 40.2778 17.531Z" fill="#835DFF"/>
<path fill-rule="evenodd" clip-rule="evenodd" d="M20.2158 12.6605C17.1129 12.6605 14.5973 15.1798 14.5973 18.2877C14.5973 21.3953 17.1129 23.9146 20.2158 23.9146C23.3189 23.9146 25.8344 21.3953 25.8344 18.2877C25.8344 15.1798 23.3189 12.6605 20.2158 12.6605ZM5.61851 12.6611C2.51552 12.6611 0 15.1798 0 18.2877C0 21.3953 2.51552 23.9146 5.61851 23.9146C8.72164 23.9146 11.2373 21.3953 11.2373 18.2877C11.2373 15.1798 8.72164 12.6611 5.61851 12.6611ZM18.5356 5.62677C18.5356 8.73465 16.0202 11.2541 12.9172 11.2541C9.81408 11.2541 7.29869 8.73465 7.29869 5.62677C7.29869 2.51952 9.81408 0 12.9172 0C16.0202 0 18.5356 2.51952 18.5356 5.62677Z" fill="#835DFF"/>
</svg>
