<svg width="40" height="40" viewBox="0 0 40 40" fill="none" xmlns="http://www.w3.org/2000/svg">
<g clip-path="url(#clip0_105_241)">
<path d="M29.375 30.625H27.8125V20C27.8125 19.137 27.113 18.4375 26.25 18.4375C25.387 18.4375 24.6875 19.137 24.6875 20V30.625H21.5625V23.125C21.5625 22.262 20.863 21.5625 20 21.5625C19.137 21.5625 18.4375 22.262 18.4375 23.125V30.625H15.3125V26.25C15.3125 25.387 14.613 24.6875 13.75 24.6875C12.887 24.6875 12.1875 25.387 12.1875 26.25V30.625H10.625C9.76203 30.625 9.0625 31.3245 9.0625 32.1875C9.0625 33.0505 9.76203 33.75 10.625 33.75H29.375C30.238 33.75 30.9375 33.0505 30.9375 32.1875C30.9375 31.3245 30.238 30.625 29.375 30.625Z" fill="#44B87E"/>
<path d="M32.1875 40H7.8125C3.50461 40 0 36.4953 0 32.1875V7.8125C0 3.50469 3.50461 0 7.8125 0H32.1875C36.4954 0 40 3.50469 40 7.8125V14.0625C40 14.9255 39.3005 15.625 38.4375 15.625H3.125V32.1875C3.125 34.7722 5.22781 36.875 7.8125 36.875H32.1875C34.7722 36.875 36.875 34.7722 36.875 32.1875V20C36.875 19.137 37.5745 18.4375 38.4375 18.4375C39.3005 18.4375 40 19.137 40 20V32.1875C40 36.4953 36.4954 40 32.1875 40ZM3.125 12.5H36.875V7.8125C36.875 5.22781 34.7722 3.125 32.1875 3.125H7.8125C5.22781 3.125 3.125 5.22781 3.125 7.8125V12.5Z" fill="#835DFF"/>
<path d="M32.1875 9.375C33.0504 9.375 33.75 8.67544 33.75 7.8125C33.75 6.94956 33.0504 6.25 32.1875 6.25C31.3246 6.25 30.625 6.94956 30.625 7.8125C30.625 8.67544 31.3246 9.375 32.1875 9.375Z" fill="#835DFF"/>
<path d="M25.9375 9.375C26.8004 9.375 27.5 8.67544 27.5 7.8125C27.5 6.94956 26.8004 6.25 25.9375 6.25C25.0746 6.25 24.375 6.94956 24.375 7.8125C24.375 8.67544 25.0746 9.375 25.9375 9.375Z" fill="#835DFF"/>
<path d="M19.6875 9.375C20.5504 9.375 21.25 8.67544 21.25 7.8125C21.25 6.94956 20.5504 6.25 19.6875 6.25C18.8246 6.25 18.125 6.94956 18.125 7.8125C18.125 8.67544 18.8246 9.375 19.6875 9.375Z" fill="#835DFF"/>
</g>
<defs>
<clipPath id="clip0_105_241">
<rect width="40" height="40" fill="white"/>
</clipPath>
</defs>
</svg>
