<svg width="125" height="24" viewBox="0 0 125 24" fill="none" xmlns="http://www.w3.org/2000/svg">
<g clip-path="url(#clip0_105_100)">
<path d="M26.2112 1.9529C24.1957 1.03845 22.0551 0.37198 19.8209 0C19.5396 0.48048 19.2271 1.13144 19.0084 1.64292C16.632 1.30193 14.2727 1.30193 11.929 1.64292C11.7103 1.13144 11.3822 0.48048 11.1165 0C8.86668 0.37198 6.72616 1.03845 4.7247 1.9529C0.678025 7.8736 -0.415676 13.6548 0.131173 19.3585C2.81854 21.2959 5.41219 22.4739 7.96051 23.2489C8.58547 22.4119 9.14795 21.5129 9.63231 20.5675C8.71047 20.2265 7.83552 19.808 6.99181 19.312C7.21055 19.1571 7.4293 18.9866 7.63241 18.8161C12.7259 21.1255 18.2428 21.1255 23.2738 18.8161C23.4925 18.9866 23.6957 19.1571 23.9144 19.312C23.0707 19.808 22.1958 20.2265 21.2739 20.5675C21.7583 21.5129 22.3208 22.4119 22.9457 23.2489C25.4924 22.4739 28.1017 21.2959 30.775 19.3585C31.4468 12.7559 29.711 7.0212 26.2112 1.9529ZM10.3354 15.8402C8.80419 15.8402 7.55426 14.4608 7.55426 12.7714C7.55426 11.082 8.77294 9.7025 10.3354 9.7025C11.8822 9.7025 13.1477 11.082 13.1164 12.7714C13.1164 14.4608 11.8822 15.8402 10.3354 15.8402ZM20.6021 15.8402C19.0709 15.8402 17.8194 14.4608 17.8194 12.7714C17.8194 11.082 19.0396 9.7025 20.6021 9.7025C22.1489 9.7025 23.4144 11.082 23.3832 12.7714C23.3832 14.4608 22.1645 15.8402 20.6021 15.8402Z" fill="#835DFF"/>
<path d="M41.6026 4.86621H48.2445C49.8382 4.86621 51.1975 5.11416 52.3068 5.61016C53.4161 6.10616 54.2442 6.78816 54.7911 7.67156C55.3379 8.55506 55.6191 9.56246 55.6191 10.7095C55.6191 11.8254 55.338 12.8329 54.7599 13.7473C54.1817 14.6463 53.3068 15.3747 52.135 15.9017C50.9632 16.4287 49.5101 16.6922 47.7758 16.6922H41.6026V4.86621ZM47.6977 13.6853C48.7757 13.6853 49.6038 13.4218 50.1819 12.8794C50.7601 12.3524 51.0569 11.6084 51.0569 10.694C51.0569 9.84146 50.7913 9.15946 50.2757 8.64806C49.7601 8.13656 48.9789 7.87306 47.932 7.87306H45.854V13.6853H47.6977Z" fill="#835DFF"/>
<path d="M65.9638 16.6774C65.0419 16.4449 64.2139 16.1039 63.4796 15.6389V12.8335C64.0421 13.2675 64.7763 13.6085 65.7138 13.8875C66.6512 14.1665 67.5575 14.306 68.4325 14.306C68.8386 14.306 69.1511 14.2595 69.3543 14.151C69.5574 14.0425 69.6667 13.9185 69.6667 13.7635C69.6667 13.593 69.6043 13.4535 69.4949 13.345C69.3855 13.2365 69.1668 13.1435 68.8386 13.0505L66.7919 12.6011C65.6201 12.3376 64.792 11.9501 64.292 11.4851C63.7921 11.0201 63.5577 10.3847 63.5577 9.60966C63.5577 8.95866 63.7764 8.38527 64.1982 7.90477C64.6357 7.42427 65.2451 7.05226 66.042 6.78876C66.8387 6.52536 67.7606 6.38586 68.8386 6.38586C69.7918 6.38586 70.6667 6.47886 71.4635 6.69586C72.2603 6.89726 72.9166 7.16077 73.4322 7.47077V10.1212C72.9009 9.81116 72.276 9.56316 71.5885 9.37716C70.8854 9.19116 70.1668 9.09816 69.4324 9.09816C68.3699 9.09816 67.8387 9.28417 67.8387 9.64067C67.8387 9.81117 67.9169 9.93516 68.0887 10.0282C68.2606 10.1212 68.5574 10.1987 68.9949 10.2917L70.6979 10.6017C71.8073 10.7876 72.6353 11.1286 73.1822 11.6091C73.7291 12.0896 73.9947 12.787 73.9947 13.7325C73.9947 14.7555 73.5415 15.5769 72.6353 16.1659C71.7292 16.7704 70.4479 17.0648 68.7918 17.0648C67.8231 17.0338 66.8856 16.9098 65.9638 16.6774Z" fill="#835DFF"/>
<path d="M78.2149 16.3214C77.2462 15.8409 76.4963 15.2055 76.0119 14.3995C75.5119 13.5935 75.2775 12.679 75.2775 11.656C75.2775 10.6486 75.5275 9.73415 76.0432 8.94375C76.5588 8.13775 77.3087 7.51775 78.2931 7.05285C79.2773 6.60335 80.4648 6.37085 81.8397 6.37085C83.5427 6.37085 84.949 6.72735 86.0739 7.44025V10.5246C85.6833 10.2611 85.2146 10.0286 84.6834 9.87365C84.1521 9.70315 83.5896 9.62565 82.996 9.62565C81.9335 9.62565 81.1211 9.81165 80.5117 10.1991C79.9179 10.5866 79.6211 11.0826 79.6211 11.7025C79.6211 12.307 79.9023 12.803 80.4961 13.1905C81.0741 13.5779 81.9179 13.7794 83.0116 13.7794C83.574 13.7794 84.1365 13.702 84.6834 13.5315C85.2302 13.361 85.7145 13.175 86.1051 12.927V15.9184C84.8551 16.6624 83.4021 17.0343 81.7616 17.0343C80.3711 17.0343 79.1992 16.7864 78.2149 16.3214Z" fill="#835DFF"/>
<path d="M90.5282 16.3214C89.5438 15.8409 88.7939 15.2054 88.2783 14.3839C87.7627 13.5624 87.4971 12.648 87.4971 11.625C87.4971 10.6176 87.7627 9.70315 88.2783 8.91275C88.7939 8.12225 89.5438 7.50225 90.5126 7.05285C91.4812 6.60335 92.653 6.37085 93.9983 6.37085C95.342 6.37085 96.5138 6.58785 97.4826 7.05285C98.4512 7.50225 99.2012 8.12225 99.7168 8.91275C100.232 9.70315 100.482 10.6021 100.482 11.625C100.482 12.6325 100.232 13.5624 99.7168 14.3839C99.2012 15.2054 98.4668 15.8564 97.4826 16.3214C96.4982 16.7864 95.342 17.0343 93.9983 17.0343C92.6686 17.0343 91.5125 16.7864 90.5282 16.3214ZM95.7013 13.33C96.1076 12.9271 96.3263 12.369 96.3263 11.7025C96.3263 11.0206 96.1232 10.4936 95.7013 10.0906C95.2795 9.68765 94.717 9.48615 94.0139 9.48615C93.2796 9.48615 92.7155 9.68765 92.2937 10.0906C91.8875 10.4936 91.6687 11.0206 91.6687 11.7025C91.6687 12.3845 91.8719 12.9271 92.2937 13.33C92.7155 13.7485 93.2796 13.9499 94.0139 13.9499C94.717 13.9344 95.2952 13.733 95.7013 13.33Z" fill="#835DFF"/>
<path d="M110.935 6.99006V10.6325C110.498 10.3535 109.935 10.214 109.248 10.214C108.342 10.214 107.638 10.493 107.154 11.0354C106.669 11.5779 106.419 12.4304 106.419 13.5773V16.6772H102.248V6.81956H106.342V9.96596C106.56 8.81896 106.935 7.96656 107.435 7.42406C107.935 6.88156 108.592 6.58716 109.388 6.58716C109.982 6.58716 110.498 6.72666 110.935 6.99006Z" fill="#835DFF"/>
<path d="M125 4.52563V16.6925H120.829V14.4761C120.469 15.3131 119.937 15.9486 119.219 16.3825C118.499 16.8165 117.608 17.0335 116.545 17.0335C115.608 17.0335 114.78 16.801 114.077 16.3515C113.374 15.9021 112.828 15.2666 112.453 14.4761C112.078 13.6702 111.89 12.7712 111.89 11.7793C111.874 10.7408 112.078 9.8109 112.499 8.9894C112.905 8.168 113.499 7.5325 114.249 7.0675C114.999 6.6025 115.858 6.37 116.827 6.37C118.811 6.37 120.141 7.2225 120.829 8.9429V4.52563H125ZM120.204 13.2517C120.625 12.8487 120.844 12.3062 120.844 11.6553C120.844 11.0198 120.641 10.5083 120.219 10.1209C119.797 9.73341 119.235 9.53191 118.53 9.53191C117.827 9.53191 117.264 9.73341 116.843 10.1364C116.42 10.5393 116.218 11.0508 116.218 11.7018C116.218 12.3527 116.42 12.8642 116.843 13.2672C117.264 13.6702 117.811 13.8717 118.514 13.8717C119.219 13.8717 119.781 13.6702 120.204 13.2517Z" fill="#835DFF"/>
<path d="M59.4641 7.4091C60.6624 7.4091 61.6359 6.5416 61.6359 5.4717C61.6359 4.40164 60.6624 3.5343 59.4641 3.5343C58.2641 3.5343 57.2924 4.40164 57.2924 5.4717C57.2924 6.5416 58.2641 7.4091 59.4641 7.4091Z" fill="#835DFF"/>
<path d="M61.6359 8.74097C60.3078 9.31437 58.6516 9.32987 57.2924 8.74097V16.6921H61.6359V8.74097Z" fill="#835DFF"/>
</g>
<defs>
<clipPath id="clip0_105_100">
<rect width="125" height="24" fill="white"/>
</clipPath>
</defs>
</svg>
