<svg width="125" height="24" viewBox="0 0 125 24" fill="none" xmlns="http://www.w3.org/2000/svg">
<g clip-path="url(#clip0_105_99)">
<path fill-rule="evenodd" clip-rule="evenodd" d="M111.644 18.4277L116.255 12.1873L112.002 6.29083H115.644L118.107 9.96976L120.592 6.29083H124.213L119.897 12.1661L124.444 18.4277H120.865L118.065 14.468L115.349 18.4277H111.644Z" fill="#835DFF"/>
<path fill-rule="evenodd" clip-rule="evenodd" d="M100.052 12.6019C100.052 16.6075 102.226 18.737 106.078 18.737C109.683 18.737 112.127 16.6075 112.127 12.6019V12.2645C112.127 8.21655 109.641 5.98175 106.078 5.98175C102.599 5.98175 100.052 8.17439 100.052 12.2645V12.6019ZM108.988 12.6027C108.988 14.8249 107.886 16.0314 106.078 16.0314C104.292 16.0314 103.191 14.8038 103.191 12.6027V12.3065C103.191 9.93612 104.354 8.68741 106.099 8.68741C107.865 8.68741 108.988 10.0208 108.988 12.3065V12.6027Z" fill="#835DFF"/>
<path fill-rule="evenodd" clip-rule="evenodd" d="M89.5185 16.208C90.1718 17.7676 91.4784 18.737 93.4806 18.737C96.5782 18.737 98.6021 16.4609 98.6021 12.4147V12.0564C98.6021 8.01019 96.4523 6.00814 93.5649 5.98707C91.647 5.98707 90.2983 6.85111 89.6239 8.43167V2.19373H86.5259V18.4208H89.2656L89.5185 16.208ZM95.4618 12.4437C95.4618 14.8494 94.357 16.0313 92.5429 16.0313C90.8124 16.0313 89.6656 14.7228 89.6656 12.4437V12.1904C89.6656 10.1013 90.8541 8.68732 92.5846 8.68732C94.2527 8.68732 95.4618 9.9113 95.4618 12.1483V12.4437Z" fill="#835DFF"/>
<path fill-rule="evenodd" clip-rule="evenodd" d="M72.7595 6.30526V22.6023H75.8521V16.4991C76.5043 17.917 77.7877 18.7845 79.7232 18.7845C82.5843 18.7845 84.8354 16.6895 84.8354 12.6689V12.3303C84.8354 8.2249 82.8157 5.98175 79.7232 5.98175C77.7245 5.98175 76.378 7.01868 75.7259 8.58465L75.4103 6.30526H72.7595ZM81.6957 12.5915C81.6957 14.8285 80.5488 16.0314 78.7557 16.0314C77.0252 16.0314 75.8992 14.6807 75.8992 12.5282V12.296C75.8992 10.038 77.0669 8.68741 78.8183 8.68741C80.4654 8.68741 81.6957 9.89033 81.6957 12.3171V12.5915Z" fill="#835DFF"/>
<path fill-rule="evenodd" clip-rule="evenodd" d="M58.993 12.6019C58.993 16.6075 61.1887 18.737 65.0413 18.737C68.6454 18.737 71.0688 16.6075 71.0688 12.6019V12.2645C71.0688 8.21655 68.6039 5.98175 65.0413 5.98175C61.5615 5.98175 58.993 8.17439 58.993 12.2645V12.6019ZM67.9291 12.6027C67.9291 14.8249 66.8073 16.0314 65.0205 16.0314C63.2339 16.0314 62.1327 14.8038 62.1327 12.6027V12.3065C62.1327 9.93612 63.2962 8.68741 65.0413 8.68741C66.8073 8.68741 67.9291 10.0208 67.9291 12.3065V12.6027Z" fill="#835DFF"/>
<path fill-rule="evenodd" clip-rule="evenodd" d="M50.5399 18.4279H53.7074V12.8523C53.7074 10.2758 54.3409 9.36767 56.9593 9.36767H58.2684V6.13641H57.4871C55.2278 6.13641 53.9819 7.12902 53.4962 9.072L53.095 6.29031H50.5399V18.4279Z" fill="#835DFF"/>
<path fill-rule="evenodd" clip-rule="evenodd" d="M36.532 3.43054V18.4277H42.2831C46.0293 18.4277 48.8495 16.2384 48.8495 11.3969V10.3654C48.8495 5.54492 45.861 3.43054 42.1989 3.43054H36.532ZM39.6718 6.13621H42.0676C44.2315 6.13621 45.7097 7.51165 45.7097 10.5376V11.3206C45.7097 14.3465 44.2743 15.722 42.1748 15.722H39.6718V6.13621Z" fill="#835DFF"/>
<path d="M7.34806 0.307495L0.456604 4.71678L7.34806 9.12607L14.2407 4.71678L21.1322 9.12607L28.0236 4.71678L21.1322 0.307495L14.2407 4.71678L7.34806 0.307495Z" fill="#835DFF"/>
<path d="M7.34806 17.9448L0.456604 13.5354L7.34806 9.1261L14.2407 13.5354L7.34806 17.9448Z" fill="#835DFF"/>
<path d="M14.2407 13.5354L21.1322 9.1261L28.0236 13.5354L21.1322 17.9448L14.2407 13.5354Z" fill="#835DFF"/>
<path d="M14.2405 23.8237L7.34796 19.4145L14.2405 15.0052L21.132 19.4145L14.2405 23.8237Z" fill="#835DFF"/>
</g>
<defs>
<clipPath id="clip0_105_99">
<rect width="125" height="24" fill="white"/>
</clipPath>
</defs>
</svg>
