<svg width="187" height="74" viewBox="0 0 187 74" fill="none" xmlns="http://www.w3.org/2000/svg">
<g clip-path="url(#clip0_135_1226)">
<path fill-rule="evenodd" clip-rule="evenodd" d="M27.6012 5.31605C24.5643 2.25275 20.5251 0.563965 16.2204 0.563965C7.35284 0.563965 0.13838 7.83409 0.13464 16.7703C0.13464 19.6253 0.87516 22.416 2.2814 24.8734L0 33.2719L8.5272 31.019C10.8759 32.3102 13.5238 32.9917 16.2129 32.9917H16.2204C25.0842 32.9917 32.3024 25.7216 32.3061 16.7854C32.3061 12.4536 30.6343 8.38313 27.5975 5.31984L27.6012 5.31605Z" fill="#44B87E"/>
<path d="M59.8774 0C58.9162 0 58.1383 0.791383 58.1383 1.76073V2.02958C60.229 2.65814 62.1289 3.75623 63.7072 5.18754V1.76073C63.7072 0.787597 62.9255 0 61.9681 0H59.8774Z" fill="#FF672B"/>
<path d="M45.9534 0C44.9922 0 44.2143 0.791383 44.2143 1.76073V5.18754C45.7963 3.75623 47.6962 2.65814 49.7831 2.02958V1.76073C49.7831 0.791383 49.0015 0 48.0403 0H45.9496H45.9534Z" fill="#FF672B"/>
<path d="M68.5841 20.4433H67.1928V16.2137C67.1928 8.82622 61.2612 2.8208 53.9645 2.8208C46.6677 2.8208 40.7361 8.82622 40.7361 16.2137V20.4433H39.3448C38.1966 20.4433 37.2541 21.3937 37.2541 22.5599V28.1981C37.2541 29.3605 38.1929 30.3147 39.3448 30.3147H40.7361V31.7233C40.7361 32.8858 41.6748 33.84 42.8267 33.84H65.1059C66.2541 33.84 67.1966 32.8896 67.1966 31.7233V30.3147H68.5879C69.736 30.3147 70.6785 29.3643 70.6785 28.1981V22.5599C70.6785 21.3975 69.7398 20.4433 68.5879 20.4433H68.5841ZM64.4065 29.6067C64.4065 30.7691 63.4678 31.7233 62.3159 31.7233H45.6056C44.4574 31.7233 43.5149 30.7729 43.5149 29.6067V18.3266C43.5149 17.1641 44.4536 16.2099 45.6056 16.2099H62.3159C63.4641 16.2099 64.4065 17.1604 64.4065 18.3266V29.6067Z" fill="#FFCD31"/>
<path d="M58.8339 25.6649C58.8339 26.0512 58.5198 26.3692 58.1383 26.3692C57.7568 26.3692 57.4426 26.0512 57.4426 25.6649V24.2563H44.9099V29.6067C44.9099 29.9929 45.2241 30.311 45.6056 30.311H62.3159C62.6973 30.311 63.0115 29.9929 63.0115 29.6067V24.2563H58.8339V25.6649Z" fill="#44B87E"/>
<path d="M62.3159 17.6226H45.6056C45.2241 17.6226 44.9099 17.9406 44.9099 18.3269V22.8442H63.0115V18.3269C63.0115 17.9406 62.6973 17.6226 62.3159 17.6226Z" fill="#FF672B"/>
<path d="M67.7688 38.8345H47.5952C46.2114 38.8345 45.0857 39.9742 45.0857 41.3752V50.8832H40.1526C38.7688 50.8832 37.6506 52.0154 37.6506 53.4239V65.431C37.6506 66.832 38.7688 67.9718 40.1526 67.9718H43.6271V70.1679C43.6271 70.929 44.233 71.55 44.9922 71.55H48.2535C49.0052 71.55 49.6111 70.929 49.6111 70.1679V67.9718H58.3141V70.1679C58.3141 70.929 58.92 71.55 59.6717 71.55H62.9367C63.6885 71.55 64.2943 70.929 64.2943 70.1679V67.9718H67.7688C69.1526 67.9718 70.2709 66.832 70.2709 65.431V41.379C70.2709 39.978 69.1526 38.8383 67.7688 38.8383V38.8345ZM66.8114 49.7018C66.8114 50.5045 66.1756 51.1482 65.3827 51.1482H49.9739C49.181 51.1482 48.5415 50.5045 48.5415 49.7018V43.7418C48.5415 42.9391 49.1847 42.2916 49.9739 42.2916H65.3827C66.1756 42.2916 66.8114 42.9428 66.8114 43.7418V49.7018Z" fill="#3B77FA"/>
<path d="M29.4226 38.8345H2.88354C1.29404 38.8345 0 40.1446 0 41.7577V55.1922C0 64.2231 7.2369 71.5462 16.1531 71.5462C25.0692 71.5462 32.3061 64.2269 32.3061 55.1922V41.7577C32.3061 40.1446 31.0121 38.8383 29.4226 38.8383V38.8345ZM16.1531 67.3697C10.0045 67.3697 4.92184 62.6593 4.24864 56.616C4.21124 56.2714 4.47304 55.9723 4.8059 55.9723H9.00592C9.27894 55.9723 9.50708 56.1692 9.5557 56.4342C10.1167 59.6111 12.8581 62.0231 16.1493 62.0231C19.4405 62.0231 22.1857 59.6111 22.7429 56.4342C22.7916 56.1692 23.0272 55.9723 23.2927 55.9723H27.4927C27.8331 55.9723 28.0874 56.2714 28.0537 56.616C27.3805 62.6631 22.2941 67.3697 16.1456 67.3697H16.1531Z" fill="#FF672B"/>
<path d="M84.6437 18.9142C83.9406 18.6112 83.3833 18.172 82.9756 17.6002C82.568 17.0285 82.3548 16.3545 82.3436 15.5744H85.0476C85.085 16.097 85.2682 16.5097 85.5974 16.8164C85.9265 17.1193 86.3828 17.2746 86.9587 17.2746C87.5347 17.2746 88.0097 17.1307 88.3463 16.8467C88.6829 16.5627 88.8512 16.1879 88.8512 15.7259C88.8512 15.3473 88.7352 15.0405 88.5071 14.7944C88.2789 14.5521 87.9947 14.359 87.6506 14.2189C87.3065 14.0788 86.8353 13.9235 86.2369 13.7531C85.4178 13.5108 84.7559 13.2685 84.2435 13.0337C83.7311 12.7951 83.2935 12.4392 82.927 11.9583C82.5605 11.4774 82.3772 10.8375 82.3772 10.0348C82.3772 9.28124 82.5642 8.62239 82.9345 8.06577C83.3085 7.50536 83.8283 7.07749 84.5015 6.77835C85.1747 6.47922 85.9452 6.33154 86.8091 6.33154C88.1069 6.33154 89.1616 6.64961 89.9732 7.28953C90.7848 7.92946 91.2335 8.81929 91.3158 9.96282H88.5408C88.5183 9.52358 88.335 9.16386 87.991 8.87609C87.6469 8.5921 87.1943 8.44821 86.6296 8.44821C86.1359 8.44821 85.7432 8.57695 85.4478 8.83065C85.1523 9.08434 85.0064 9.45921 85.0064 9.94389C85.0064 10.2847 85.1186 10.5687 85.3393 10.7921C85.56 11.0193 85.8367 11.201 86.1696 11.3411C86.4987 11.4812 86.9662 11.644 87.5683 11.8258C88.3837 12.0681 89.0531 12.3142 89.5693 12.5566C90.0854 12.7989 90.5304 13.1662 90.9044 13.6509C91.2784 14.1394 91.4617 14.7755 91.4617 15.5669C91.4617 16.2484 91.2859 16.8808 90.9381 17.4639C90.5903 18.047 90.0779 18.5128 89.4047 18.8611C88.7315 19.2095 87.9311 19.3799 87.0073 19.3799C86.1284 19.3799 85.3393 19.2284 84.6362 18.9217L84.6437 18.9142Z" fill="black"/>
<path d="M101.29 9.48938C101.878 9.82259 102.338 10.3186 102.67 10.9661C103 11.6174 103.168 12.3974 103.168 13.31V19.2397H100.643V13.6546C100.643 12.8518 100.445 12.2346 100.049 11.8029C99.6523 11.3713 99.11 11.1554 98.4256 11.1554C97.7412 11.1554 97.1802 11.3713 96.7762 11.8029C96.3723 12.2346 96.1741 12.8518 96.1741 13.6546V19.2397H93.6496V5.74072H96.1741V10.3944C96.4995 9.95512 96.9296 9.61434 97.4719 9.36442C98.0142 9.11451 98.6126 8.98956 99.2746 8.98956C100.03 8.98956 100.703 9.15617 101.294 9.49317L101.29 9.48938Z" fill="black"/>
<path d="M108.086 9.1333H105.561V19.2433H108.086V9.1333Z" fill="black"/>
<path d="M116.486 19.2435L113.098 14.9382V19.2435H110.573V5.74072H113.098V13.4236L116.449 9.13345H119.729L115.33 14.2074L119.766 19.2435H116.486Z" fill="black"/>
<path d="M122.721 18.9595C122.07 18.6604 121.557 18.2553 121.18 17.7479C120.802 17.2367 120.593 16.6725 120.559 16.0515H123.102C123.151 16.4415 123.338 16.7634 123.671 17.0171C124 17.2708 124.411 17.3995 124.905 17.3995C125.398 17.3995 125.761 17.3011 126.031 17.1079C126.3 16.9148 126.434 16.6649 126.434 16.3582C126.434 16.0288 126.27 15.7827 125.937 15.6198C125.608 15.457 125.081 15.2753 124.359 15.0822C123.614 14.9004 123.005 14.7111 122.53 14.518C122.055 14.3248 121.647 14.0257 121.303 13.6243C120.959 13.223 120.791 12.6815 120.791 11.9999C120.791 11.4395 120.952 10.9283 121.269 10.4664C121.587 10.0044 122.044 9.64092 122.638 9.37207C123.233 9.10323 123.932 8.9707 124.736 8.9707C125.926 8.9707 126.876 9.27362 127.586 9.87568C128.297 10.4777 128.686 11.2881 128.757 12.3104H126.341C126.304 11.909 126.139 11.591 125.844 11.3524C125.548 11.1139 125.155 10.9965 124.662 10.9965C124.205 10.9965 123.854 11.0836 123.607 11.2502C123.36 11.4206 123.237 11.6591 123.237 11.9621C123.237 12.3028 123.405 12.5603 123.742 12.7383C124.078 12.9163 124.602 13.0942 125.309 13.276C126.031 13.4577 126.625 13.6471 127.093 13.8402C127.56 14.0333 127.968 14.3362 128.308 14.7451C128.652 15.1541 128.828 15.6918 128.839 16.362C128.839 16.9451 128.678 17.4677 128.361 17.9296C128.043 18.3916 127.586 18.7551 126.992 19.0163C126.397 19.2776 125.701 19.4101 124.909 19.4101C124.116 19.4101 123.356 19.2625 122.709 18.9633L122.721 18.9595Z" fill="black"/>
<path d="M138.567 9.48938C139.154 9.82259 139.614 10.3186 139.947 10.9661C140.276 11.6174 140.444 12.3974 140.444 13.31V19.2397H137.92V13.6546C137.92 12.8518 137.722 12.2346 137.325 11.8029C136.929 11.3713 136.387 11.1554 135.702 11.1554C135.018 11.1554 134.457 11.3713 134.053 11.8029C133.649 12.2346 133.451 12.8518 133.451 13.6546V19.2397H130.926V5.74072H133.451V10.3944C133.776 9.95512 134.206 9.61434 134.748 9.36442C135.291 9.11451 135.889 8.98956 136.551 8.98956C137.307 8.98956 137.98 9.15617 138.571 9.49317L138.567 9.48938Z" fill="black"/>
<path d="M147.524 18.9593C146.9 19.2698 146.227 19.4251 145.505 19.4251C144.88 19.4251 144.315 19.2963 143.81 19.0426C143.306 18.7889 142.909 18.433 142.621 17.9824C142.333 17.5318 142.187 17.0168 142.187 16.4299C142.187 15.4947 142.531 14.726 143.223 14.1315C143.915 13.537 144.951 13.2379 146.331 13.2379H148.874C148.852 12.5942 148.669 12.0792 148.325 11.6968C147.981 11.3143 147.509 11.1212 146.911 11.1212C146.384 11.1212 145.942 11.2651 145.594 11.5491C145.247 11.8331 145.022 12.2345 144.929 12.7456H142.404C142.524 12.0148 142.786 11.3636 143.19 10.7842C143.594 10.2049 144.121 9.75807 144.775 9.43243C145.43 9.11057 146.167 8.94775 146.982 8.94775C147.797 8.94775 148.583 9.12572 149.263 9.47787C149.94 9.83001 150.475 10.3336 150.86 10.9925C151.246 11.6513 151.436 12.4238 151.436 13.3098V19.2395H148.878V17.7969C148.601 18.2588 148.153 18.645 147.524 18.9555V18.9593ZM147.479 17.0888C147.883 16.907 148.216 16.6306 148.478 16.2671C148.744 15.9036 148.874 15.4719 148.874 14.9721V14.9002H146.477C145.901 14.9002 145.471 15.0175 145.187 15.2485C144.906 15.4795 144.764 15.7824 144.764 16.1611C144.764 16.5397 144.895 16.8161 145.153 17.0358C145.411 17.2554 145.774 17.3652 146.245 17.3652C146.664 17.3652 147.075 17.2743 147.479 17.0926V17.0888Z" fill="black"/>
<path d="M155.707 7.87231V12.1246H160.285V13.4953H155.707V17.8763H160.827V19.2432H154.069V6.50537H160.827V7.87231H155.707Z" fill="black"/>
<path d="M176.06 6.61523V19.2433H174.419V9.82621L170.271 19.2433H169.119L164.956 9.80727V19.2433H163.315V6.61523H165.08L169.695 17.0547L174.31 6.61523H176.06Z" fill="black"/>
<path d="M180.593 18.9254C179.939 18.6262 179.423 18.2135 179.052 17.6834C178.678 17.1533 178.488 16.5437 178.477 15.8507H180.227C180.287 16.4452 180.53 16.9488 180.956 17.3578C181.383 17.7667 182.003 17.9674 182.822 17.9674C183.641 17.9674 184.217 17.7705 184.67 17.3729C185.123 16.9791 185.347 16.4679 185.347 15.8507C185.347 15.3623 185.216 14.9685 184.95 14.6655C184.685 14.3626 184.356 14.1316 183.959 13.9726C183.563 13.8136 183.028 13.6432 182.355 13.4614C181.525 13.2418 180.863 13.0222 180.361 12.8026C179.864 12.583 179.438 12.2384 179.082 11.7726C178.727 11.3031 178.551 10.6745 178.551 9.88316C178.551 9.19023 178.727 8.57681 179.075 8.03913C179.423 7.50523 179.913 7.08871 180.545 6.79715C181.177 6.50558 181.899 6.35791 182.718 6.35791C183.896 6.35791 184.861 6.65704 185.612 7.25153C186.364 7.84601 186.787 8.6374 186.884 9.62568H185.081C185.022 9.141 184.767 8.70934 184.326 8.33826C183.881 7.96718 183.294 7.78164 182.561 7.78164C181.876 7.78164 181.319 7.95961 180.885 8.31933C180.451 8.67905 180.238 9.17887 180.238 9.82636C180.238 10.2883 180.365 10.667 180.627 10.9585C180.885 11.2501 181.203 11.4735 181.581 11.625C181.958 11.7764 182.49 11.9506 183.178 12.1437C184.008 12.3747 184.674 12.6019 185.179 12.8291C185.684 13.0563 186.117 13.4008 186.476 13.8704C186.835 14.3399 187.019 14.976 187.019 15.7788C187.019 16.3998 186.858 16.9829 186.532 17.5319C186.207 18.081 185.728 18.524 185.089 18.8648C184.453 19.2056 183.701 19.376 182.837 19.376C181.973 19.376 181.267 19.2283 180.612 18.9292L180.593 18.9254Z" fill="black"/>
<path d="M83.6227 27.214V31.0839H87.5048V31.9434H83.6227V35.8738H87.9424V36.7334H82.5979V26.3545H87.9424V27.214H83.6227Z" fill="#9A999C"/>
<path d="M89.9919 30.4819C90.3247 29.8534 90.781 29.3687 91.3607 29.0279C91.9404 28.6871 92.5986 28.5167 93.3317 28.5167C94.0647 28.5167 94.6706 28.6909 95.2353 29.0355C95.8001 29.3801 96.2152 29.8306 96.4808 30.3835V25.7563H97.5055V36.7297H96.4808V34.9197C96.2377 35.4839 95.8375 35.9459 95.2802 36.3056C94.723 36.6653 94.0685 36.8471 93.3167 36.8471C92.565 36.8471 91.9292 36.6729 91.3458 36.3283C90.7661 35.9837 90.3098 35.4915 89.9844 34.8591C89.659 34.2268 89.4944 33.496 89.4944 32.663C89.4944 31.8299 89.659 31.1029 89.9919 30.4744V30.4819ZM96.0881 30.9666C95.8263 30.4744 95.4672 30.0919 95.0109 29.8231C94.5547 29.5542 94.0572 29.4217 93.5112 29.4217C92.9652 29.4217 92.4378 29.5504 91.989 29.8079C91.5402 30.0654 91.1849 30.4365 90.9269 30.9287C90.6688 31.421 90.5379 32.0003 90.5379 32.6705C90.5379 33.3408 90.6688 33.9125 90.9269 34.4123C91.1849 34.9122 91.5402 35.2908 91.989 35.5559C92.4378 35.8171 92.9465 35.9497 93.5112 35.9497C94.0759 35.9497 94.5584 35.8171 95.0109 35.5483C95.4635 35.2795 95.8225 34.9008 96.0881 34.4048C96.3536 33.9087 96.4845 33.337 96.4845 32.6857C96.4845 32.0344 96.3536 31.4589 96.0881 30.9666Z" fill="#9A999C"/>
<path d="M106.777 28.6377V36.7333H105.752V35.3095C105.517 35.8132 105.158 36.1994 104.668 36.4644C104.178 36.7295 103.632 36.8658 103.026 36.8658C102.068 36.8658 101.287 36.5667 100.681 35.9684C100.075 35.3701 99.772 34.503 99.772 33.3671V28.6377H100.782V33.2497C100.782 34.1282 100.999 34.8022 101.433 35.2679C101.866 35.7336 102.461 35.9646 103.213 35.9646C103.965 35.9646 104.6 35.7185 105.057 35.2225C105.517 34.7264 105.745 34.0032 105.745 33.0414V28.6377H106.77H106.777Z" fill="#9A999C"/>
<path d="M109.148 30.4818C109.481 29.8532 109.937 29.3686 110.524 29.0278C111.112 28.687 111.777 28.5166 112.529 28.5166C113.516 28.5166 114.328 28.7627 114.968 29.2588C115.607 29.7548 116.019 30.425 116.206 31.277H115.106C114.968 30.6939 114.676 30.2357 114.22 29.9063C113.767 29.5768 113.202 29.4102 112.529 29.4102C111.991 29.4102 111.508 29.5352 111.078 29.7813C110.648 30.0274 110.308 30.3985 110.061 30.887C109.814 31.3754 109.687 31.9775 109.687 32.6894C109.687 33.4012 109.81 34.0033 110.061 34.4993C110.311 34.9953 110.648 35.3664 111.078 35.6125C111.508 35.8587 111.991 35.9836 112.529 35.9836C113.202 35.9836 113.767 35.817 114.22 35.4876C114.672 35.1582 114.968 34.6924 115.106 34.1017H116.206C116.019 34.931 115.603 35.5974 114.96 36.1048C114.317 36.6084 113.505 36.8621 112.529 36.8621C111.777 36.8621 111.108 36.6917 110.524 36.3509C109.937 36.0101 109.481 35.5255 109.148 34.8969C108.815 34.2683 108.651 33.5337 108.651 32.6931C108.651 31.8525 108.815 31.1179 109.148 30.4894V30.4818Z" fill="#9A999C"/>
<path d="M122.171 36.3545C121.614 36.7066 120.989 36.8808 120.297 36.8808C119.781 36.8808 119.317 36.7785 118.913 36.5779C118.509 36.3772 118.191 36.0932 117.967 35.7335C117.743 35.3737 117.63 34.9648 117.63 34.5104C117.63 33.7607 117.892 33.1511 118.42 32.6853C118.947 32.2196 119.714 31.9886 120.72 31.9886H123.371C123.353 31.1669 123.151 30.5346 122.769 30.0915C122.388 29.6485 121.845 29.4251 121.142 29.4251C120.529 29.4251 120.013 29.5993 119.605 29.9514C119.198 30.3036 118.939 30.7883 118.842 31.413H117.832C117.948 30.5649 118.304 29.8681 118.895 29.3305C119.486 28.7928 120.245 28.5239 121.172 28.5239C121.808 28.5239 122.369 28.6602 122.855 28.9329C123.345 29.2055 123.723 29.6031 123.996 30.1256C124.269 30.6482 124.407 31.2767 124.407 32.0075V36.7369H123.368V35.0178C123.125 35.5631 122.724 36.0099 122.167 36.3582L122.171 36.3545ZM121.905 35.6274C122.343 35.3965 122.698 35.0632 122.967 34.6278C123.237 34.1923 123.371 33.685 123.371 33.1018V32.8368H120.72C120.047 32.8368 119.534 32.9844 119.183 33.2722C118.831 33.5638 118.655 33.9538 118.655 34.4347C118.655 34.9156 118.82 35.2715 119.153 35.5555C119.486 35.8395 119.931 35.9796 120.484 35.9796C120.993 35.9796 121.464 35.8622 121.905 35.6312V35.6274Z" fill="#9A999C"/>
<path d="M128.088 29.5125V34.5373C128.088 35.0333 128.181 35.3741 128.364 35.5596C128.551 35.7489 128.877 35.8398 129.344 35.8398H130.283V36.7297H129.183C128.462 36.7297 127.923 36.5593 127.571 36.2185C127.22 35.8777 127.044 35.3173 127.044 34.5335V29.5088H125.93V28.6341H127.044V26.6045H128.084V28.6341H130.279V29.5088H128.084L128.088 29.5125Z" fill="#9A999C"/>
<path d="M131.951 26.8884C131.805 26.7407 131.73 26.559 131.73 26.3393C131.73 26.1197 131.805 25.9418 131.951 25.7979C132.097 25.654 132.273 25.582 132.478 25.582C132.684 25.582 132.86 25.654 133.006 25.7979C133.151 25.9418 133.226 26.1235 133.226 26.3393C133.226 26.5552 133.151 26.7407 133.006 26.8884C132.86 27.0361 132.684 27.1118 132.478 27.1118C132.273 27.1118 132.097 27.0361 131.951 26.8884ZM132.991 28.6378V36.7333H131.966V28.6378H132.991Z" fill="#9A999C"/>
<path d="M136.794 36.3394C136.192 35.9986 135.721 35.514 135.373 34.8854C135.025 34.2568 134.853 33.5223 134.853 32.6817C134.853 31.841 135.029 31.1065 135.381 30.4779C135.732 29.8493 136.211 29.3647 136.817 29.0239C137.423 28.6831 138.1 28.5127 138.851 28.5127C139.603 28.5127 140.284 28.6831 140.893 29.0239C141.503 29.3647 141.982 29.8493 142.329 30.4779C142.677 31.1065 142.849 31.841 142.849 32.6817C142.849 33.5223 142.674 34.2417 142.322 34.8778C141.97 35.5102 141.488 35.9986 140.871 36.3394C140.257 36.6802 139.573 36.8506 138.821 36.8506C138.07 36.8506 137.393 36.6802 136.794 36.3394ZM140.287 35.5821C140.736 35.3398 141.099 34.9725 141.379 34.484C141.656 33.9956 141.798 33.3935 141.798 32.6817C141.798 31.9698 141.66 31.3677 141.387 30.8793C141.114 30.3908 140.751 30.0235 140.302 29.7812C139.854 29.5388 139.364 29.4177 138.836 29.4177C138.309 29.4177 137.819 29.5388 137.37 29.7812C136.921 30.0235 136.562 30.387 136.293 30.8793C136.024 31.3715 135.889 31.9698 135.889 32.6817C135.889 33.3935 136.024 33.9956 136.293 34.484C136.562 34.9725 136.918 35.3398 137.363 35.5821C137.808 35.8245 138.294 35.9456 138.821 35.9456C139.349 35.9456 139.839 35.8245 140.287 35.5821Z" fill="#9A999C"/>
<path d="M150.815 29.3875C151.421 29.9858 151.724 30.8529 151.724 31.9889V36.7334H150.715V32.1062C150.715 31.2278 150.498 30.5538 150.064 30.088C149.63 29.6223 149.035 29.3913 148.284 29.3913C147.532 29.3913 146.896 29.6374 146.44 30.1335C145.98 30.6295 145.752 31.3527 145.752 32.3145V36.7334H144.727V28.6378H145.752V30.0161C146.006 29.52 146.372 29.1452 146.851 28.8801C147.33 28.6189 147.872 28.4863 148.478 28.4863C149.435 28.4863 150.217 28.7855 150.823 29.3837L150.815 29.3875Z" fill="#9A999C"/>
<path d="M92.6024 43.231V53.4621H91.5776V45.2908L87.976 53.4621H87.228L83.6264 45.3211V53.4621H82.6016V43.231H83.6862L87.5983 52.099L91.5103 43.231H92.6099H92.6024Z" fill="#9A999C"/>
<path d="M94.9511 47.2108C95.2765 46.5822 95.7328 46.0976 96.3125 45.7568C96.8922 45.416 97.5504 45.2456 98.2835 45.2456C99.0165 45.2456 99.7009 45.4236 100.254 45.7795C100.804 46.1354 101.204 46.5898 101.447 47.1427V45.363H102.472V53.4586H101.447V51.6638C101.193 52.2166 100.789 52.6748 100.239 53.0345C99.6897 53.3942 99.0315 53.576 98.2685 53.576C97.5055 53.576 96.8922 53.4018 96.3125 53.0572C95.7328 52.7126 95.2765 52.2204 94.9511 51.588C94.6257 50.9557 94.4612 50.2249 94.4612 49.3918C94.4612 48.5588 94.6257 47.8318 94.9511 47.2032V47.2108ZM101.051 47.6955C100.786 47.2032 100.43 46.8208 99.9739 46.552C99.5214 46.2869 99.0202 46.1506 98.4742 46.1506C97.9282 46.1506 97.4008 46.2793 96.952 46.5368C96.5032 46.7943 96.1479 47.1654 95.8899 47.6576C95.6318 48.1499 95.5009 48.7292 95.5009 49.3994C95.5009 50.0696 95.6318 50.6414 95.8899 51.1412C96.1479 51.641 96.5032 52.0197 96.952 52.2848C97.4008 52.546 97.9095 52.6785 98.4742 52.6785C99.0389 52.6785 99.5214 52.546 99.9739 52.2772C100.43 52.0121 100.786 51.6297 101.051 51.1336C101.313 50.6376 101.447 50.0658 101.447 49.4146C101.447 48.7633 101.317 48.1877 101.051 47.6955Z" fill="#9A999C"/>
<path d="M110.906 46.1165C111.512 46.7148 111.815 47.5819 111.815 48.7179V53.4624H110.805V48.8352C110.805 47.9568 110.588 47.2828 110.154 46.817C109.72 46.3513 109.126 46.1203 108.374 46.1203C107.622 46.1203 106.986 46.3664 106.53 46.8625C106.07 47.3585 105.842 48.0817 105.842 49.0435V53.4624H104.817V45.3668H105.842V46.7451C106.096 46.2491 106.463 45.8742 106.942 45.6091C107.42 45.3479 107.963 45.2153 108.568 45.2153C109.526 45.2153 110.308 45.5145 110.913 46.1127L110.906 46.1165Z" fill="#9A999C"/>
<path d="M114.107 47.2108C114.433 46.5822 114.889 46.0976 115.469 45.7568C116.048 45.416 116.707 45.2456 117.44 45.2456C118.173 45.2456 118.857 45.4236 119.411 45.7795C119.96 46.1354 120.361 46.5898 120.604 47.1427V45.363H121.629V53.4586H120.604V51.6638C120.349 52.2166 119.946 52.6748 119.396 53.0345C118.842 53.3942 118.188 53.576 117.425 53.576C116.662 53.576 116.048 53.4018 115.469 53.0572C114.889 52.7126 114.433 52.2204 114.107 51.588C113.782 50.9557 113.617 50.2249 113.617 49.3918C113.617 48.5588 113.782 47.8318 114.107 47.2032V47.2108ZM120.207 47.6955C119.946 47.2032 119.586 46.8208 119.13 46.552C118.678 46.2869 118.176 46.1506 117.63 46.1506C117.084 46.1506 116.557 46.2793 116.108 46.5368C115.659 46.7943 115.304 47.1654 115.046 47.6576C114.788 48.1461 114.657 48.7292 114.657 49.3994C114.657 50.0696 114.788 50.6414 115.046 51.1412C115.304 51.641 115.659 52.0197 116.108 52.2848C116.557 52.546 117.066 52.6785 117.63 52.6785C118.195 52.6785 118.678 52.546 119.13 52.2772C119.583 52.0121 119.942 51.6297 120.207 51.1336C120.473 50.6376 120.604 50.0658 120.604 49.4146C120.604 48.7633 120.473 48.1877 120.207 47.6955Z" fill="#9A999C"/>
<path d="M129.288 45.7791C129.845 46.1351 130.245 46.5857 130.489 47.1271V45.3626H131.513V53.6665C131.513 54.4086 131.356 55.0637 131.038 55.6393C130.72 56.211 130.279 56.654 129.714 56.9645C129.15 57.275 128.503 57.4303 127.781 57.4303C126.756 57.4303 125.903 57.1842 125.226 56.6881C124.549 56.1921 124.127 55.5219 123.959 54.6699H124.968C125.144 55.2341 125.477 55.6847 125.971 56.0179C126.464 56.3549 127.066 56.5215 127.781 56.5215C128.297 56.5215 128.761 56.4117 129.172 56.1883C129.584 55.9649 129.905 55.6355 130.137 55.2038C130.373 54.7683 130.489 54.2534 130.489 53.6627V51.6596C130.234 52.2124 129.83 52.6706 129.281 53.0303C128.727 53.3901 128.076 53.5718 127.325 53.5718C126.573 53.5718 125.937 53.3976 125.354 53.0531C124.774 52.7085 124.318 52.2162 123.992 51.5839C123.667 50.9515 123.502 50.2207 123.502 49.3877C123.502 48.5547 123.667 47.8277 123.992 47.1991C124.318 46.5705 124.774 46.0859 125.354 45.7451C125.933 45.4043 126.592 45.2339 127.325 45.2339C128.058 45.2339 128.731 45.4119 129.288 45.7678V45.7791ZM130.092 47.6951C129.83 47.2029 129.471 46.8204 129.015 46.5516C128.562 46.2865 128.061 46.1502 127.515 46.1502C126.969 46.1502 126.442 46.279 125.993 46.5365C125.544 46.7939 125.189 47.165 124.931 47.6573C124.673 48.1457 124.542 48.7288 124.542 49.3991C124.542 50.0693 124.673 50.641 124.931 51.1409C125.189 51.6407 125.544 52.0193 125.993 52.2844C126.442 52.5457 126.951 52.6782 127.515 52.6782C128.08 52.6782 128.562 52.5457 129.015 52.2768C129.468 52.0118 129.827 51.6293 130.092 51.1333C130.358 50.6373 130.489 50.0655 130.489 49.4142C130.489 48.7629 130.358 48.1874 130.092 47.6951Z" fill="#9A999C"/>
<path d="M141.062 49.8158H134.427C134.457 50.4292 134.603 50.9518 134.864 51.3872C135.126 51.8227 135.474 52.1521 135.904 52.3717C136.334 52.5951 136.802 52.7049 137.31 52.7049C137.972 52.7049 138.533 52.5421 138.986 52.2165C139.438 51.8908 139.741 51.4516 139.887 50.895H140.972C140.777 51.6864 140.358 52.3301 139.719 52.8299C139.079 53.3297 138.275 53.5796 137.31 53.5796C136.559 53.5796 135.885 53.4092 135.291 53.0684C134.696 52.7277 134.229 52.243 133.892 51.6144C133.555 50.9859 133.387 50.2513 133.387 49.4107C133.387 48.5701 133.552 47.8355 133.885 47.1993C134.217 46.567 134.681 46.0823 135.276 45.7453C135.87 45.4083 136.551 45.2417 137.31 45.2417C138.07 45.2417 138.739 45.4083 139.311 45.7453C139.883 46.0823 140.321 46.5329 140.628 47.1009C140.934 47.6689 141.088 48.3012 141.088 48.9904C141.088 49.3463 141.077 49.6189 141.058 49.8045L141.062 49.8158ZM139.693 47.4265C139.442 47.0024 139.106 46.6806 138.675 46.461C138.245 46.2451 137.778 46.1353 137.269 46.1353C136.506 46.1353 135.859 46.3814 135.321 46.8775C134.782 47.3735 134.487 48.0702 134.427 48.9676H140.052C140.063 48.3656 139.943 47.8506 139.693 47.4265Z" fill="#9A999C"/>
<path d="M154.776 46.1165C155.367 46.7148 155.663 47.5819 155.663 48.7179V53.4624H154.653V48.8352C154.653 47.9568 154.443 47.2828 154.024 46.817C153.606 46.3513 153.033 46.1203 152.311 46.1203C151.59 46.1203 150.958 46.374 150.509 46.8776C150.06 47.3812 149.836 48.112 149.836 49.0738V53.4624H148.826V48.8352C148.826 47.9568 148.616 47.2828 148.197 46.817C147.779 46.3513 147.203 46.1203 146.47 46.1203C145.737 46.1203 145.116 46.374 144.667 46.8776C144.218 47.3812 143.994 48.112 143.994 49.0738V53.4624H142.969V45.3668H143.994V46.7602C144.248 46.2566 144.611 45.8742 145.078 45.6091C145.546 45.3479 146.069 45.2153 146.645 45.2153C147.337 45.2153 147.947 45.3819 148.471 45.7189C148.994 46.0559 149.372 46.5482 149.604 47.2033C149.817 46.5595 150.187 46.0673 150.711 45.7265C151.234 45.3857 151.825 45.2153 152.491 45.2153C153.43 45.2153 154.193 45.5145 154.784 46.1127L154.776 46.1165Z" fill="#9A999C"/>
<path d="M165.14 49.8158H158.505C158.535 50.4292 158.681 50.9518 158.943 51.3872C159.204 51.8227 159.552 52.1521 159.982 52.3717C160.412 52.5951 160.88 52.7049 161.388 52.7049C162.05 52.7049 162.611 52.5421 163.064 52.2165C163.517 51.8908 163.819 51.4516 163.965 50.895H165.05C164.855 51.6864 164.437 52.3301 163.797 52.8299C163.157 53.3297 162.353 53.5796 161.388 53.5796C160.637 53.5796 159.964 53.4092 159.369 53.0684C158.774 52.7277 158.307 52.243 157.97 51.6144C157.634 50.9859 157.465 50.2513 157.465 49.4107C157.465 48.5701 157.63 47.8355 157.963 47.1993C158.295 46.567 158.759 46.0823 159.354 45.7453C159.949 45.4083 160.629 45.2417 161.388 45.2417C162.148 45.2417 162.817 45.4083 163.389 45.7453C163.962 46.0823 164.399 46.5329 164.706 47.1009C165.013 47.6689 165.166 48.3012 165.166 48.9904C165.166 49.3463 165.155 49.6189 165.136 49.8045L165.14 49.8158ZM163.771 47.4265C163.52 47.0024 163.184 46.6806 162.754 46.461C162.323 46.2451 161.856 46.1353 161.347 46.1353C160.584 46.1353 159.937 46.3814 159.399 46.8775C158.86 47.3735 158.565 48.0702 158.505 48.9676H164.13C164.141 48.3656 164.021 47.8506 163.771 47.4265Z" fill="#9A999C"/>
<path d="M173.136 46.1165C173.742 46.7148 174.045 47.5819 174.045 48.7179V53.4624H173.035V48.8352C173.035 47.9568 172.818 47.2828 172.384 46.817C171.95 46.3513 171.356 46.1203 170.604 46.1203C169.852 46.1203 169.216 46.3664 168.76 46.8625C168.3 47.3585 168.072 48.0817 168.072 49.0435V53.4624H167.047V45.3668H168.072V46.7451C168.326 46.2491 168.693 45.8742 169.171 45.6091C169.65 45.3479 170.192 45.2153 170.798 45.2153C171.756 45.2153 172.537 45.5145 173.143 46.1127L173.136 46.1165Z" fill="#9A999C"/>
<path d="M177.646 46.2411V51.2658C177.646 51.7618 177.74 52.1026 177.923 52.2881C178.11 52.4775 178.435 52.5683 178.903 52.5683H179.842V53.4582H178.742C178.02 53.4582 177.482 53.2878 177.13 52.947C176.779 52.6062 176.603 52.0458 176.603 51.262V46.2373H175.488V45.3626H176.603V43.333H177.643V45.3626H179.838V46.2373H177.643L177.646 46.2411Z" fill="#9A999C"/>
<path d="M83.9219 69.9374C83.4095 69.6988 83.0056 69.3694 82.7138 68.9453C82.4221 68.5212 82.265 68.0441 82.2463 67.5216H83.3309C83.3796 68.0252 83.6002 68.4682 83.9892 68.8468C84.3781 69.2293 84.9504 69.4186 85.7021 69.4186C86.394 69.4186 86.9438 69.2368 87.3514 68.8771C87.7554 68.5174 87.9611 68.0592 87.9611 67.5064C87.9611 67.0634 87.8489 66.7037 87.6245 66.431C87.4001 66.1584 87.1196 65.9577 86.7904 65.8214C86.4576 65.6889 86.0013 65.5412 85.4141 65.386C84.7297 65.1966 84.1874 65.0149 83.7872 64.8369C83.387 64.6589 83.0467 64.3825 82.7625 64.0077C82.4782 63.6328 82.3361 63.1216 82.3361 62.4817C82.3361 61.9478 82.4745 61.4707 82.7475 61.0504C83.0205 60.6301 83.4057 60.3007 83.9032 60.0659C84.4006 59.8273 84.9728 59.71 85.6161 59.71C86.5623 59.71 87.3253 59.9447 87.9087 60.4143C88.4884 60.8838 88.825 61.4896 88.911 62.2318H87.7965C87.7292 61.8077 87.4973 61.429 87.1083 61.0958C86.7194 60.7664 86.192 60.5998 85.5263 60.5998C84.913 60.5998 84.3968 60.7664 83.9892 61.0958C83.5778 61.429 83.3758 61.8796 83.3758 62.4514C83.3758 62.8868 83.488 63.239 83.7124 63.5041C83.9368 63.7691 84.2173 63.9736 84.5539 64.1137C84.8905 64.2538 85.3468 64.4015 85.9228 64.5567C86.5885 64.746 87.1233 64.9316 87.5347 65.1133C87.9461 65.2951 88.2902 65.5753 88.5744 65.9501C88.8587 66.325 89.0008 66.8286 89.0008 67.461C89.0008 67.9456 88.8736 68.4038 88.6193 68.8393C88.365 69.2747 87.991 69.6269 87.4936 69.8919C86.9961 70.1608 86.4015 70.2933 85.7058 70.2933C85.0102 70.2933 84.438 70.1759 83.9256 69.9374H83.9219Z" fill="#9A999C"/>
<path d="M97.5654 62.0952L92.8193 74.0038H91.7497L93.3018 70.1491L90.0218 62.099H91.1513L93.874 69.0094L96.5107 62.099H97.5654V62.0952Z" fill="#9A999C"/>
<path d="M99.4616 69.6648C98.8819 69.2331 98.5565 68.65 98.4892 67.9078H99.5438C99.5925 68.3622 99.8056 68.7295 100.18 69.0135C100.554 69.2937 101.062 69.4376 101.694 69.4376C102.252 69.4376 102.689 69.3051 103.003 69.0362C103.317 68.7674 103.478 68.438 103.478 68.0442C103.478 67.7677 103.389 67.5405 103.217 67.3626C103.041 67.1846 102.82 67.0445 102.551 66.9385C102.282 66.8363 101.919 66.7227 101.459 66.6053C100.864 66.4462 100.382 66.2872 100.008 66.132C99.6336 65.9767 99.3232 65.7382 99.0614 65.4277C98.8033 65.1172 98.6724 64.7007 98.6724 64.1743C98.6724 63.7805 98.7883 63.4132 99.024 63.0762C99.2596 62.7392 99.5887 62.4742 100.019 62.2773C100.449 62.0804 100.935 61.9819 101.485 61.9819C102.345 61.9819 103.037 62.2015 103.564 62.6408C104.092 63.08 104.376 63.6859 104.413 64.4583H103.389C103.359 63.985 103.175 63.6026 102.839 63.311C102.502 63.0194 102.042 62.8718 101.455 62.8718C100.939 62.8718 100.516 62.9967 100.195 63.2428C99.873 63.489 99.7121 63.7957 99.7121 64.163C99.7121 64.481 99.8056 64.7385 99.9964 64.943C100.187 65.1475 100.423 65.3027 100.707 65.4163C100.991 65.5299 101.373 65.6549 101.848 65.795C102.424 65.954 102.884 66.1055 103.224 66.2531C103.564 66.4008 103.86 66.6204 104.103 66.9044C104.346 67.1922 104.473 67.5708 104.484 68.0479C104.484 68.4834 104.368 68.8696 104.133 69.2104C103.897 69.5512 103.572 69.82 103.153 70.0169C102.734 70.2138 102.248 70.3123 101.702 70.3123C100.786 70.3123 100.034 70.0965 99.4541 69.6686L99.4616 69.6648Z" fill="#9A999C"/>
<path d="M107.757 62.9701V67.9948C107.757 68.4908 107.85 68.8316 108.034 69.0171C108.221 69.2065 108.546 69.2973 109.014 69.2973H109.952V70.1872H108.853C108.131 70.1872 107.592 70.0168 107.241 69.676C106.889 69.3352 106.713 68.7748 106.713 67.991V62.9663H105.599V62.0916H106.713V60.062H107.753V62.0916H109.949V62.9663H107.753L107.757 62.9701Z" fill="#9A999C"/>
<path d="M118.846 66.5448H112.211C112.241 67.1582 112.387 67.6808 112.649 68.1162C112.911 68.5517 113.258 68.8811 113.689 69.1007C114.119 69.3241 114.586 69.4339 115.095 69.4339C115.757 69.4339 116.318 69.2711 116.77 68.9455C117.223 68.6198 117.526 68.1806 117.672 67.624H118.756C118.562 68.4154 118.143 69.0591 117.503 69.5589C116.864 70.0587 116.06 70.3086 115.095 70.3086C114.343 70.3086 113.67 70.1382 113.075 69.7974C112.48 69.4567 112.013 68.972 111.676 68.3434C111.34 67.7149 111.171 66.9803 111.171 66.1397C111.171 65.2991 111.336 64.5645 111.669 63.9283C112.002 63.296 112.466 62.8113 113.06 62.4743C113.655 62.1373 114.336 61.9707 115.095 61.9707C115.854 61.9707 116.523 62.1373 117.096 62.4743C117.668 62.8113 118.105 63.2619 118.412 63.8299C118.719 64.3979 118.872 65.0302 118.872 65.7194C118.872 66.0753 118.861 66.3479 118.842 66.5335L118.846 66.5448ZM117.477 64.1555C117.227 63.7314 116.89 63.4096 116.46 63.19C116.03 62.9741 115.562 62.8643 115.054 62.8643C114.291 62.8643 113.644 63.1104 113.105 63.6065C112.567 64.1025 112.271 64.7992 112.211 65.6966H117.836C117.847 65.0946 117.728 64.5796 117.477 64.1555Z" fill="#9A999C"/>
<path d="M132.561 62.845C133.151 63.4433 133.447 64.3104 133.447 65.4464V70.1909H132.437V65.5638C132.437 64.6853 132.228 64.0113 131.809 63.5456C131.39 63.0798 130.818 62.8488 130.096 62.8488C129.374 62.8488 128.742 63.1025 128.293 63.6061C127.844 64.1097 127.62 64.8405 127.62 65.8023V70.1909H126.61V65.5638C126.61 64.6853 126.401 64.0113 125.982 63.5456C125.563 63.0798 124.987 62.8488 124.254 62.8488C123.521 62.8488 122.9 63.1025 122.451 63.6061C122.003 64.1097 121.778 64.8405 121.778 65.8023V70.1909H120.753V62.0953H121.778V63.4887C122.032 62.9851 122.395 62.6027 122.863 62.3376C123.33 62.0764 123.854 61.9438 124.43 61.9438C125.122 61.9438 125.731 62.1105 126.255 62.4475C126.779 62.7845 127.156 63.2767 127.388 63.9318C127.601 63.2881 127.972 62.7958 128.495 62.455C129.019 62.1142 129.61 61.9438 130.275 61.9438C131.214 61.9438 131.977 62.243 132.568 62.8413L132.561 62.845Z" fill="#9A999C"/>
<path d="M108.815 5.93751L106.856 5.0969C106.826 5.08554 106.792 5.08554 106.758 5.0969L104.787 5.93372C104.724 5.96023 104.694 6.03596 104.724 6.10033C104.735 6.13062 104.757 6.15334 104.787 6.1647C104.903 6.21392 105.584 6.50549 105.681 6.54714L106.758 7.00531C106.788 7.01667 106.822 7.01667 106.856 7.00531C107.203 6.85763 108.093 6.47519 108.426 6.3313C108.426 6.42597 108.426 7.21356 108.426 7.32716C108.277 7.36503 108.217 7.62251 108.299 7.75882L108.191 8.25864C108.183 8.28894 108.198 8.32302 108.224 8.33816C108.251 8.35709 108.284 8.35331 108.31 8.33816C108.363 8.3003 108.426 8.27758 108.494 8.27379C108.565 8.27379 108.632 8.29651 108.688 8.33816C108.722 8.36088 108.77 8.35331 108.793 8.31923C108.804 8.3003 108.812 8.27758 108.804 8.25486L108.666 7.75882C108.737 7.63387 108.699 7.41046 108.58 7.34609C108.58 7.2325 108.58 6.35781 108.58 6.26693L108.819 6.1647C108.883 6.13441 108.909 6.06246 108.883 5.99809C108.871 5.9678 108.849 5.94508 108.819 5.93372L108.815 5.93751Z" fill="black"/>
<path d="M106.702 7.14533C106.612 7.10746 105.588 6.66823 105.535 6.64551V7.38009C105.535 7.45961 105.576 7.53534 105.644 7.58078C105.973 7.80797 106.358 7.93293 106.755 7.94428C107.188 7.95186 107.615 7.8269 107.978 7.58457C108.045 7.53913 108.086 7.4634 108.086 7.38388V6.64929C108.034 6.67201 107.005 7.11125 106.919 7.14912C106.852 7.17562 106.773 7.17562 106.706 7.14912L106.702 7.14533Z" fill="black"/>
</g>
<defs>
<clipPath id="clip0_135_1226">
<rect width="187" height="74" fill="white"/>
</clipPath>
</defs>
</svg>
