<svg width="12" height="23" viewBox="0 0 12 23" fill="none" xmlns="http://www.w3.org/2000/svg">
<g clip-path="url(#clip0_105_189)">
<path d="M8.62003 8.02999C8.62003 8.02999 7.73003 6.88999 8.31003 5.29999C8.88003 3.70999 10.22 3.10999 10.22 3.10999C10.22 3.10999 11.22 4.46999 10.66 6.01999C10.1 7.56999 8.62003 8.02999 8.62003 8.02999Z" fill="#44B87E"/>
<path d="M6.17 8.83999C6.17 8.83999 4.62 8.71999 3.73 7.32999C2.84 5.94999 3.52 4.39999 3.52 4.39999C3.52 4.39999 4.96 4.68999 5.87 6.10999C6.78 7.52999 6.17 8.83999 6.17 8.83999Z" fill="#44B87E"/>
<path d="M6.01003 10.67C6.73003 12.2 5.95003 13.42 5.95003 13.42C5.95003 13.42 4.43003 13.09 3.73003 11.61C3.03003 10.12 3.91003 8.67999 3.91003 8.67999C3.91003 8.67999 5.30003 9.15999 6.01003 10.68V10.67Z" fill="#44B87E"/>
<path d="M2.50998 11.9C2.50998 11.9 3.84998 12.51 4.41998 14.09C4.98998 15.68 4.09998 16.82 4.09998 16.82C4.09998 16.82 2.61998 16.35 2.05998 14.81C1.49998 13.26 2.50998 11.91 2.50998 11.91V11.9Z" fill="#44B87E"/>
<path d="M1.39003 20.26C1.39003 20.26 0.100026 19.38 0.0200257 17.74C-0.0699742 16.1 1.29003 15.09 1.29003 15.09C1.29003 15.09 2.40003 16.06 2.48003 17.74C2.57003 19.42 1.39003 20.26 1.39003 20.26Z" fill="#44B87E"/>
<path d="M6.65 4.98C6.65 4.98 5.28 4.52 4.88 2.88C4.48 1.24 5.26 0 5.26 0C5.26 0 6.85 0.58 7.24 2.17C7.63 3.77 6.66 4.97 6.66 4.97L6.65 4.98Z" fill="#44B87E"/>
<path d="M8.63003 11.51C8.63003 11.51 8.12003 10.16 9.14003 8.81001C10.15 7.47001 11.6 7.29001 11.6 7.29001C11.6 7.29001 12.16 8.89001 11.17 10.2C10.18 11.51 8.62003 11.52 8.62003 11.52L8.63003 11.51Z" fill="#44B87E"/>
<path d="M7.49001 15.08C7.49001 15.08 7.29001 13.65 8.58001 12.56C9.87001 11.47 11.33 11.62 11.33 11.62C11.33 11.62 11.52 13.3 10.26 14.36C9.00001 15.42 7.49001 15.08 7.49001 15.08Z" fill="#44B87E"/>
<path d="M5.76002 18.04C5.76002 18.04 6.00002 16.62 7.56002 15.97C9.12002 15.32 10.46 15.91 10.46 15.91C10.46 15.91 10.13 17.57 8.61002 18.2C7.09002 18.83 5.75002 18.04 5.75002 18.04H5.76002Z" fill="#44B87E"/>
<path d="M5.00001 19.26C6.62001 18.81 7.89001 19.54 7.89001 19.54C7.89001 19.54 7.37001 21.15 5.78001 21.59C4.20001 22.03 2.96001 21.09 2.96001 21.09C2.96001 21.09 3.37001 19.71 5.00001 19.25V19.26Z" fill="#44B87E"/>
<path d="M6.47998 5.95L7.19998 5.59C7.23998 5.67 10.95 13.56 0.519981 22.48L-1.95503e-05 21.87C9.92998 13.38 6.62998 6.25 6.47998 5.95Z" fill="#44B87E"/>
</g>
<defs>
<clipPath id="clip0_105_189">
<rect width="11.76" height="22.49" fill="white" transform="matrix(-1 0 0 1 11.76 0)"/>
</clipPath>
</defs>
</svg>
