<svg width="12" height="23" viewBox="0 0 12 23" fill="none" xmlns="http://www.w3.org/2000/svg">
<g clip-path="url(#clip0_105_177)">
<path d="M3.13998 8.02999C3.13998 8.02999 4.02998 6.88999 3.44998 5.29999C2.87998 3.70999 1.53998 3.10999 1.53998 3.10999C1.53998 3.10999 0.539978 4.46999 1.09998 6.01999C1.65998 7.56999 3.13998 8.02999 3.13998 8.02999Z" fill="#44B87E"/>
<path d="M5.59001 8.83999C5.59001 8.83999 7.14001 8.71999 8.03001 7.32999C8.92001 5.94999 8.24001 4.39999 8.24001 4.39999C8.24001 4.39999 6.80001 4.68999 5.89001 6.10999C4.98001 7.52999 5.59001 8.83999 5.59001 8.83999Z" fill="#44B87E"/>
<path d="M5.74998 10.67C5.02998 12.2 5.80998 13.42 5.80998 13.42C5.80998 13.42 7.32998 13.09 8.02998 11.61C8.72998 10.12 7.84998 8.67999 7.84998 8.67999C7.84998 8.67999 6.45998 9.15999 5.74998 10.68V10.67Z" fill="#44B87E"/>
<path d="M9.25003 11.9C9.25003 11.9 7.91003 12.51 7.34003 14.09C6.77003 15.68 7.66003 16.82 7.66003 16.82C7.66003 16.82 9.14003 16.35 9.70003 14.81C10.26 13.26 9.25003 11.91 9.25003 11.91V11.9Z" fill="#44B87E"/>
<path d="M10.37 20.26C10.37 20.26 11.66 19.38 11.74 17.74C11.83 16.1 10.47 15.09 10.47 15.09C10.47 15.09 9.35998 16.06 9.27998 17.74C9.18998 19.42 10.37 20.26 10.37 20.26Z" fill="#44B87E"/>
<path d="M5.11001 4.98C5.11001 4.98 6.48001 4.52 6.88001 2.88C7.28001 1.24 6.50001 0 6.50001 0C6.50001 0 4.91001 0.58 4.52001 2.17C4.13001 3.77 5.10001 4.97 5.10001 4.97L5.11001 4.98Z" fill="#44B87E"/>
<path d="M3.12998 11.51C3.12998 11.51 3.63998 10.16 2.61998 8.81001C1.60998 7.47001 0.15998 7.29001 0.15998 7.29001C0.15998 7.29001 -0.40002 8.89001 0.58998 10.2C1.57998 11.51 3.13998 11.52 3.13998 11.52L3.12998 11.51Z" fill="#44B87E"/>
<path d="M4.27 15.08C4.27 15.08 4.47 13.65 3.18 12.56C1.89 11.47 0.430001 11.62 0.430001 11.62C0.430001 11.62 0.240001 13.3 1.5 14.36C2.76 15.42 4.27 15.08 4.27 15.08Z" fill="#44B87E"/>
<path d="M5.99999 18.04C5.99999 18.04 5.75999 16.62 4.19999 15.97C2.63999 15.32 1.29999 15.91 1.29999 15.91C1.29999 15.91 1.62999 17.57 3.14999 18.2C4.66999 18.83 6.00999 18.04 6.00999 18.04H5.99999Z" fill="#44B87E"/>
<path d="M6.76 19.26C5.14 18.81 3.87 19.54 3.87 19.54C3.87 19.54 4.39 21.15 5.98 21.59C7.56 22.03 8.8 21.09 8.8 21.09C8.8 21.09 8.39 19.71 6.76 19.25V19.26Z" fill="#44B87E"/>
<path d="M5.28003 5.95L4.56003 5.59C4.52003 5.67 0.810029 13.56 11.24 22.48L11.76 21.87C1.83003 13.38 5.13003 6.25 5.28003 5.95Z" fill="#44B87E"/>
</g>
<defs>
<clipPath id="clip0_105_177">
<rect width="11.76" height="22.49" fill="white"/>
</clipPath>
</defs>
</svg>
