<svg width="220" height="46" viewBox="0 0 220 46" fill="none" xmlns="http://www.w3.org/2000/svg">
<path fill-rule="evenodd" clip-rule="evenodd" d="M18.058 3.39557C16.0732 1.4383 13.4285 0.360809 10.6138 0.360809C4.80946 0.360809 0.08999 5.00686 0.08999 10.7156C0.08999 12.5394 0.574936 14.3237 1.49483 15.8905L0 21.2581L5.57938 19.8198C7.11421 20.6452 8.84901 21.0802 10.6088 21.0802C16.4082 21.0802 21.1326 16.4342 21.1326 10.7254C21.1326 7.95759 20.0378 5.35778 18.053 3.40051L18.058 3.39557Z" fill="#44B87E"/>
<path d="M39.1756 0C38.5457 0 38.0358 0.504145 38.0358 1.12691V1.2999C39.4006 1.70026 40.6455 2.4021 41.6803 3.31649V1.12691C41.6803 0.504145 41.1704 0 40.5405 0H39.1756Z" fill="#FF672B"/>
<path d="M30.0666 0C29.4367 0 28.9268 0.504145 28.9268 1.12691V3.31649C29.9617 2.4021 31.2065 1.70026 32.5714 1.2999V1.12691C32.5714 0.504145 32.0614 0 31.4315 0H30.0666Z" fill="#FF672B"/>
<path d="M44.87 13.0584H43.9601V10.3548C43.9601 5.63457 40.0805 1.79911 35.3061 1.79911C30.5316 1.79911 26.652 5.63457 26.652 10.3548V13.0584H25.7421C24.9922 13.0584 24.3773 13.6663 24.3773 14.4077V18.0108C24.3773 18.7522 24.9922 19.3602 25.7421 19.3602H26.652V20.2597C26.652 21.0011 27.267 21.6091 28.0169 21.6091H42.5952C43.3452 21.6091 43.9601 21.0011 43.9601 20.2597V19.3602H44.87C45.6199 19.3602 46.2348 18.7522 46.2348 18.0108V14.4077C46.2348 13.6663 45.6199 13.0584 44.87 13.0584ZM42.1353 18.9153C42.1353 19.6567 41.5204 20.2647 40.7704 20.2647H29.8367C29.0867 20.2647 28.4718 19.6567 28.4718 18.9153V11.709C28.4718 10.9676 29.0867 10.3597 29.8367 10.3597H40.7704C41.5204 10.3597 42.1353 10.9676 42.1353 11.709V18.9153Z" fill="#FFCD31"/>
<path d="M38.4907 16.3996C38.4907 16.6467 38.2857 16.8493 38.0357 16.8493C37.7858 16.8493 37.5808 16.6467 37.5808 16.3996V15.5H29.3817V18.9203C29.3817 19.1674 29.5867 19.3701 29.8367 19.3701H40.7704C41.0204 19.3701 41.2254 19.1674 41.2254 18.9203V15.5H38.4907V16.3996Z" fill="#44B87E"/>
<path d="M40.7704 11.2592H29.8367C29.5867 11.2592 29.3817 11.4619 29.3817 11.709V14.5955H41.2254V11.709C41.2254 11.4619 41.0204 11.2592 40.7704 11.2592Z" fill="#FF672B"/>
<path d="M44.3401 24.8119H31.1415C30.2366 24.8119 29.5017 25.5384 29.5017 26.433V32.5075H26.2771C25.3722 32.5075 24.6373 33.2341 24.6373 34.1287V41.7996C24.6373 42.6942 25.3722 43.4208 26.2771 43.4208H28.5518V44.8245C28.5518 45.3088 28.9468 45.7042 29.4417 45.7042H31.5765C32.0664 45.7042 32.4664 45.3088 32.4664 44.8245V43.4208H38.1607V44.8245C38.1607 45.3088 38.5557 45.7042 39.0506 45.7042H41.1854C41.6754 45.7042 42.0753 45.3088 42.0753 44.8245V43.4208H44.3501C45.255 43.4208 45.9899 42.6942 45.9899 41.7996V26.433C45.9899 25.5384 45.255 24.8119 44.3501 24.8119H44.3401ZM43.7151 31.7562C43.7151 32.2702 43.3002 32.6805 42.7802 32.6805H32.7014C32.1814 32.6805 31.7615 32.2702 31.7615 31.7562V27.9504C31.7615 27.4364 32.1814 27.0212 32.7014 27.0212H42.7802C43.3002 27.0212 43.7151 27.4364 43.7151 27.9504V31.7562Z" fill="#3B77FA"/>
<path d="M19.2479 24.8119H1.88979C0.844906 24.8119 0 25.6472 0 26.6752V35.2556C0 41.0335 4.73447 45.7092 10.5688 45.7092C16.4032 45.7092 21.1376 41.0335 21.1376 35.2605V26.6802C21.1376 25.6521 20.2927 24.8119 19.2479 24.8119ZM10.5688 43.0402C6.54427 43.0402 3.21964 40.0301 2.77969 36.17C2.75469 35.9525 2.92467 35.7597 3.14465 35.7597H5.89434C6.07432 35.7597 6.2243 35.8882 6.2543 36.0563C6.62426 38.0827 8.41406 39.6248 10.5688 39.6248C12.7236 39.6248 14.5184 38.0827 14.8833 36.0563C14.9183 35.8882 15.0683 35.7597 15.2433 35.7597H17.993C18.213 35.7597 18.3829 35.9525 18.3629 36.17C17.923 40.0301 14.5934 43.0402 10.5688 43.0402Z" fill="#FF672B"/>
<path d="M63.3353 24.4819C62.2568 24.0274 61.4111 23.3708 60.7811 22.5179C60.1567 21.6649 59.8332 20.6549 59.8161 19.4877H63.954C64.0107 20.2677 64.2889 20.8906 64.794 21.3395C65.2992 21.794 65.9917 22.0241 66.8772 22.0241C67.7626 22.0241 68.4892 21.8108 69 21.3844C69.5165 20.9579 69.7719 20.3967 69.7719 19.7065C69.7719 19.1454 69.596 18.6796 69.2497 18.3149C68.8978 17.9501 68.4608 17.6639 67.9386 17.4563C67.4164 17.2487 66.6898 17.013 65.7703 16.7605C64.5216 16.3957 63.5056 16.0366 62.7223 15.6831C61.939 15.3295 61.2692 14.7908 60.7073 14.0726C60.1454 13.3543 59.8672 12.3947 59.8672 11.1938C59.8672 10.0659 60.151 9.08391 60.7243 8.2478C61.2919 7.41168 62.0922 6.77197 63.1253 6.32305C64.1527 5.87974 65.3333 5.65528 66.6558 5.65528C68.6424 5.65528 70.2544 6.13226 71.4975 7.08621C72.7405 8.04017 73.4216 9.37571 73.5522 11.0816H69.3008C69.2611 10.4251 68.983 9.88636 68.4608 9.45989C67.9386 9.03341 67.2404 8.82017 66.3777 8.82017C65.6228 8.82017 65.0211 9.01097 64.5727 9.39255C64.1243 9.77413 63.8972 10.3297 63.8972 11.0536C63.8972 11.5642 64.0675 11.9851 64.4081 12.3218C64.7486 12.6585 65.1687 12.9334 65.6795 13.141C66.1847 13.3487 66.8999 13.59 67.8194 13.8649C69.0681 14.2297 70.0898 14.5944 70.8844 14.9536C71.6734 15.3183 72.3545 15.8626 72.9278 16.5921C73.4954 17.3216 73.7849 18.2756 73.7849 19.454C73.7849 20.4697 73.5181 21.418 72.9846 22.2934C72.451 23.1632 71.6677 23.859 70.6404 24.3809C69.6073 24.8972 68.387 25.1609 66.9736 25.1609C65.6284 25.1609 64.4194 24.9365 63.3467 24.4763L63.3353 24.4819Z" fill="#835DFF"/>
<path d="M88.8151 10.3914C89.7176 10.8908 90.4214 11.6259 90.9266 12.6023C91.4318 13.5731 91.6872 14.7459 91.6872 16.1095V24.9757H87.8275V16.6314C87.8275 15.4305 87.5266 14.5103 86.9193 13.8649C86.3119 13.2196 85.4832 12.8941 84.4389 12.8941C83.3945 12.8941 82.5317 13.2196 81.913 13.8649C81.2943 14.5103 80.9878 15.4305 80.9878 16.6314V24.9757H77.1281V4.7855H80.9878V11.7382C81.4873 11.0816 82.1457 10.571 82.9744 10.195C83.8031 9.81903 84.7227 9.63385 85.733 9.63385C86.8909 9.63385 87.924 9.88637 88.8208 10.3858L88.8151 10.3914Z" fill="#835DFF"/>
<path d="M99.2136 9.85831H95.3539V24.9701H99.2136V9.85831Z" fill="#835DFF"/>
<path d="M112.07 24.9701L106.882 18.5337V24.9701H103.022V4.7855H106.882V16.2667L112.013 9.85831H117.036L110.305 17.4395L117.093 24.9701H112.07Z" fill="#835DFF"/>
<path d="M121.617 24.5493C120.624 24.106 119.835 23.4999 119.256 22.7367C118.677 21.9736 118.359 21.1262 118.302 20.2003H122.19C122.264 20.7839 122.554 21.2665 123.059 21.6481C123.564 22.0297 124.194 22.2205 124.949 22.2205C125.704 22.2205 126.26 22.0746 126.674 21.7828C127.089 21.491 127.293 21.1206 127.293 20.6661C127.293 20.1723 127.038 19.8075 126.532 19.5606C126.027 19.3137 125.221 19.05 124.12 18.7582C122.979 18.4832 122.048 18.2026 121.322 17.9108C120.595 17.619 119.971 17.1757 119.449 16.5753C118.927 15.9749 118.66 15.1668 118.66 14.1455C118.66 13.3094 118.904 12.5462 119.392 11.856C119.88 11.1658 120.578 10.6215 121.486 10.2174C122.395 9.81903 123.467 9.61701 124.699 9.61701C126.521 9.61701 127.974 10.0659 129.058 10.9694C130.142 11.8672 130.738 13.0849 130.852 14.6113H127.157C127.1 14.0108 126.85 13.5339 126.396 13.1803C125.948 12.8268 125.34 12.6472 124.591 12.6472C123.893 12.6472 123.354 12.7763 122.979 13.0288C122.605 13.2813 122.412 13.6405 122.412 14.095C122.412 14.6057 122.667 14.9928 123.184 15.2566C123.7 15.5203 124.5 15.7897 125.585 16.059C126.686 16.334 127.6 16.6146 128.315 16.9064C129.03 17.1982 129.654 17.6471 130.176 18.2588C130.699 18.8704 130.971 19.6729 130.988 20.6717C130.988 21.5415 130.744 22.3271 130.256 23.0173C129.768 23.7075 129.07 24.2519 128.161 24.639C127.253 25.0319 126.186 25.2226 124.977 25.2226C123.768 25.2226 122.605 24.9982 121.611 24.5549L121.617 24.5493Z" fill="#835DFF"/>
<path d="M145.871 10.3914C146.773 10.8908 147.477 11.6259 147.982 12.6023C148.487 13.5731 148.743 14.7459 148.743 16.1095V24.9757H144.883V16.6314C144.883 15.4305 144.582 14.5103 143.975 13.8649C143.368 13.2196 142.539 12.8941 141.495 12.8941C140.45 12.8941 139.587 13.2196 138.969 13.8649C138.35 14.5103 138.043 15.4305 138.043 16.6314V24.9757H134.184V4.7855H138.043V11.7382C138.543 11.0816 139.201 10.571 140.03 10.195C140.859 9.81903 141.778 9.63385 142.789 9.63385C143.947 9.63385 144.98 9.88637 145.876 10.3858L145.871 10.3914Z" fill="#835DFF"/>
<path d="M159.578 24.5493C158.625 25.015 157.592 25.2451 156.491 25.2451C155.531 25.2451 154.669 25.0543 153.897 24.6727C153.125 24.2911 152.517 23.7637 152.075 23.0903C151.632 22.4169 151.411 21.6425 151.411 20.7727C151.411 19.3754 151.938 18.2251 152.994 17.3385C154.05 16.4462 155.639 16.0029 157.751 16.0029H161.639C161.599 15.0377 161.321 14.269 160.799 13.6966C160.277 13.1242 159.55 12.838 158.631 12.838C157.819 12.838 157.149 13.0513 156.616 13.4777C156.082 13.9042 155.741 14.499 155.594 15.2622H151.728C151.91 14.1736 152.313 13.1915 152.926 12.3274C153.545 11.4632 154.351 10.7898 155.355 10.3072C156.36 9.82464 157.484 9.58334 158.733 9.58334C159.981 9.58334 161.185 9.84708 162.223 10.3746C163.262 10.9021 164.074 11.654 164.664 12.636C165.254 13.618 165.55 14.774 165.55 16.0983V24.9645H161.633V22.8097C161.207 23.4999 160.521 24.0779 159.561 24.5437L159.578 24.5493ZM159.51 21.7547C160.129 21.4798 160.634 21.0701 161.043 20.5258C161.446 19.9815 161.65 19.3362 161.65 18.5898V18.4832H157.978C157.092 18.4832 156.44 18.6572 156.003 18.9995C155.571 19.3474 155.355 19.8019 155.355 20.3631C155.355 20.9242 155.554 21.3451 155.946 21.6706C156.343 21.996 156.899 22.1588 157.615 22.1588C158.256 22.1588 158.886 22.0241 159.505 21.7491L159.51 21.7547Z" fill="#835DFF"/>
<path d="M172.105 7.97845V14.3363H179.115V16.3845H172.105V22.9331H179.938V24.9813H169.591V5.93586H179.938V7.98406H172.105V7.97845Z" fill="#835DFF"/>
<path d="M203.256 6.09859V24.9757H200.747V10.9021L194.401 24.9757H192.636L186.262 10.874V24.9757H183.753V6.09859H186.455L193.516 21.6986L200.577 6.09859H203.25H203.256Z" fill="#835DFF"/>
<path d="M210.192 24.4932C209.187 24.0498 208.404 23.4326 207.831 22.6414C207.257 21.8501 206.968 20.9354 206.945 19.9029H209.618C209.709 20.7952 210.084 21.5415 210.737 22.1532C211.389 22.7648 212.343 23.0678 213.592 23.0678C214.84 23.0678 215.732 22.7704 216.418 22.1812C217.111 21.592 217.451 20.8288 217.451 19.9029C217.451 19.1734 217.247 18.5842 216.844 18.1297C216.441 17.6752 215.936 17.3272 215.329 17.0916C214.721 16.8559 213.904 16.5977 212.871 16.3284C211.599 16.0029 210.583 15.6718 209.823 15.3464C209.057 15.0209 208.404 14.5047 207.865 13.8032C207.32 13.1018 207.053 12.1646 207.053 10.9806C207.053 9.94248 207.32 9.02781 207.853 8.22536C208.387 7.42291 209.136 6.80565 210.101 6.37356C211.066 5.94147 212.173 5.71701 213.427 5.71701C215.232 5.71701 216.708 6.16032 217.854 7.05255C219.001 7.94478 219.654 9.1232 219.801 10.599H217.043C216.952 9.86953 216.566 9.22982 215.885 8.67428C215.204 8.11874 214.301 7.84378 213.183 7.84378C212.133 7.84378 211.282 8.11313 210.617 8.64622C209.953 9.18493 209.624 9.93126 209.624 10.8964C209.624 11.5867 209.823 12.1534 210.214 12.5855C210.612 13.0232 211.1 13.3543 211.679 13.5787C212.258 13.8088 213.07 14.067 214.12 14.3588C215.391 14.7067 216.407 15.0434 217.185 15.38C217.957 15.7167 218.621 16.233 219.171 16.9344C219.722 17.6359 220 18.5842 220 19.7851C220 20.711 219.75 21.5864 219.256 22.4057C218.757 23.2249 218.025 23.8871 217.048 24.3978C216.072 24.9084 214.926 25.1609 213.597 25.1609C212.269 25.1609 211.191 24.9365 210.192 24.4932Z" fill="#835DFF"/>
<path d="M100.332 5.0829L97.3292 3.82592C97.2838 3.80348 97.227 3.80348 97.1816 3.82592L94.1676 5.07729C94.0711 5.12219 94.0257 5.2288 94.0711 5.32981C94.0882 5.3747 94.1222 5.40837 94.1676 5.42521C94.3436 5.49816 95.388 5.93586 95.5355 5.99758L97.1873 6.6878C97.2327 6.70463 97.2894 6.70463 97.3349 6.6878C97.8627 6.46895 99.2307 5.89657 99.7415 5.68334C99.7415 5.82363 99.7415 7.00204 99.7415 7.17039C99.5145 7.22651 99.4236 7.60809 99.5485 7.81571L99.3782 8.56205C99.3669 8.60694 99.3896 8.65744 99.4293 8.67989C99.4691 8.70794 99.5201 8.70233 99.5599 8.67989C99.6393 8.61816 99.7415 8.5901 99.838 8.58449C99.9458 8.58449 100.048 8.61816 100.139 8.67989C100.19 8.71356 100.264 8.70233 100.298 8.65183C100.315 8.62377 100.326 8.5901 100.315 8.55643L100.099 7.81571C100.207 7.63053 100.15 7.29384 99.9629 7.20406C99.9629 7.0301 99.9629 5.72823 99.9629 5.59355L100.332 5.44204C100.428 5.39715 100.474 5.28492 100.428 5.18952C100.411 5.14463 100.377 5.11096 100.332 5.09413V5.0829Z" fill="#835DFF"/>
<path d="M97.0965 6.88982C96.9602 6.8337 95.3936 6.17716 95.3085 6.14349V7.24334C95.3085 7.36119 95.3709 7.47342 95.4731 7.54076C95.9726 7.87745 96.5629 8.06824 97.1702 8.08507C97.8343 8.0963 98.4871 7.91111 99.0433 7.54637C99.1455 7.47903 99.2079 7.3668 99.2136 7.24334V6.14349C99.1342 6.17716 97.5619 6.8337 97.4257 6.88982C97.3235 6.93471 97.2043 6.93471 97.1021 6.88982H97.0965Z" fill="#835DFF"/>
<path d="M60.5313 32.7365V35.3627H63.2275V35.9463H60.5313V38.6117H63.534V39.1953H59.8161V32.1473H63.534V32.7309H60.5313V32.7365Z" fill="#808080"/>
<path d="M64.9587 34.953C65.1914 34.5265 65.5092 34.1955 65.9122 33.9654C66.3152 33.7353 66.775 33.6175 67.2802 33.6175C67.7853 33.6175 68.211 33.7353 68.6027 33.971C68.9943 34.2067 69.2838 34.5097 69.4654 34.8857V31.7432H70.1806V39.1897H69.4654V37.9608C69.2952 38.3424 69.017 38.6566 68.6311 38.9035C68.2451 39.1504 67.791 39.2683 67.2688 39.2683C66.7466 39.2683 66.3039 39.1504 65.9009 38.9148C65.4979 38.6791 65.18 38.348 64.953 37.9159C64.7259 37.4838 64.6124 36.99 64.6124 36.4288C64.6124 35.8677 64.7259 35.3683 64.9587 34.9418V34.953ZM69.193 35.2841C69.0114 34.9474 68.7616 34.6893 68.4438 34.5097C68.1259 34.3301 67.7796 34.2404 67.3994 34.2404C67.0191 34.2404 66.6501 34.3301 66.3379 34.5041C66.0257 34.6781 65.7817 34.9306 65.6 35.2617C65.4184 35.5927 65.3276 35.9855 65.3276 36.4457C65.3276 36.9058 65.4184 37.2874 65.6 37.6297C65.7817 37.9664 66.0257 38.2245 66.3379 38.4041C66.6501 38.5837 67.002 38.6735 67.3994 38.6735C67.7967 38.6735 68.1259 38.5837 68.4438 38.4041C68.7616 38.2245 69.0114 37.9664 69.193 37.6297C69.3746 37.293 69.4654 36.9058 69.4654 36.4625C69.4654 36.0192 69.3746 35.632 69.193 35.2953V35.2841Z" fill="#808080"/>
<path d="M76.6286 33.7017V39.1953H75.9134V38.2302C75.7488 38.5725 75.4991 38.8362 75.1585 39.0158C74.818 39.1953 74.4377 39.2851 74.0176 39.2851C73.3535 39.2851 72.8086 39.0831 72.3886 38.6735C71.9686 38.2694 71.7586 37.6802 71.7586 36.9058V33.696H72.4624V36.8273C72.4624 37.4221 72.6156 37.8822 72.9165 38.1965C73.2173 38.5107 73.6317 38.6679 74.1539 38.6679C74.6761 38.6679 75.1188 38.4995 75.4366 38.1628C75.7545 37.8261 75.9134 37.3323 75.9134 36.6814V33.6904H76.6286V33.7017Z" fill="#808080"/>
<path d="M78.2747 34.953C78.5074 34.5265 78.8252 34.1955 79.2339 33.9654C79.6426 33.7353 80.108 33.6175 80.6302 33.6175C81.317 33.6175 81.8789 33.7858 82.3274 34.1225C82.7701 34.4592 83.0596 34.9137 83.1901 35.4917H82.4238C82.3274 35.0933 82.123 34.7847 81.8108 34.5602C81.493 34.3358 81.1013 34.2235 80.6359 34.2235C80.2613 34.2235 79.9264 34.3077 79.6256 34.476C79.3247 34.6444 79.092 34.8913 78.9161 35.228C78.7401 35.5591 78.6549 35.9687 78.6549 36.4513C78.6549 36.9339 78.7401 37.3435 78.9161 37.6802C79.0863 38.0169 79.3247 38.2694 79.6256 38.4378C79.9264 38.6061 80.2613 38.6903 80.6359 38.6903C81.107 38.6903 81.4986 38.5781 81.8108 38.3536C82.1287 38.1291 82.333 37.8149 82.4238 37.4109H83.1901C83.0596 37.972 82.7701 38.4265 82.3274 38.7689C81.8789 39.1112 81.317 39.2795 80.6359 39.2795C80.1137 39.2795 79.6483 39.1617 79.2396 38.9316C78.8309 38.7015 78.5131 38.3704 78.2803 37.944C78.0476 37.5175 77.9341 37.0181 77.9341 36.4513C77.9341 35.8845 78.0476 35.3851 78.2803 34.9586L78.2747 34.953Z" fill="#808080"/>
<path d="M84.5126 34.953C84.7397 34.5265 85.0575 34.1955 85.4605 33.9654C85.8635 33.7353 86.3233 33.6175 86.8285 33.6175C87.3336 33.6175 87.8161 33.7409 88.1964 33.9822C88.5824 34.2235 88.8548 34.5322 89.0251 34.9081V33.7017H89.7403V39.1953H89.0251V37.9776C88.8491 38.3536 88.571 38.6622 88.185 38.9091C87.7991 39.156 87.345 39.2739 86.8171 39.2739C86.2892 39.2739 85.8635 39.156 85.4605 38.9204C85.0575 38.6847 84.7397 38.3536 84.5126 37.9215C84.2856 37.4894 84.1721 36.9956 84.1721 36.4345C84.1721 35.8733 84.2856 35.3739 84.5126 34.9474V34.953ZM88.7527 35.2841C88.571 34.9474 88.3213 34.6893 88.0034 34.5097C87.6855 34.3301 87.3393 34.2404 86.959 34.2404C86.5787 34.2404 86.2098 34.3301 85.8976 34.5041C85.5854 34.6781 85.3413 34.9306 85.1597 35.2617C84.9781 35.5927 84.8873 35.9855 84.8873 36.4457C84.8873 36.9058 84.9781 37.2874 85.1597 37.6297C85.3413 37.9664 85.5854 38.2245 85.8976 38.4041C86.2098 38.5837 86.5617 38.6735 86.959 38.6735C87.3563 38.6735 87.6855 38.5837 88.0034 38.4041C88.3213 38.2245 88.571 37.9664 88.7527 37.6297C88.9343 37.293 89.0251 36.9058 89.0251 36.4625C89.0251 36.0192 88.9343 35.632 88.7527 35.2953V35.2841Z" fill="#808080"/>
<path d="M92.2945 34.2965V37.7083C92.2945 38.045 92.357 38.275 92.4875 38.4041C92.6181 38.5332 92.8451 38.5949 93.1686 38.5949H93.8214V39.2009H93.0551C92.5556 39.2009 92.181 39.0831 91.9369 38.853C91.6929 38.623 91.568 38.2414 91.568 37.7083V34.2965H90.796V33.7017H91.568V32.3212H92.2888V33.7017H93.8157V34.2965H92.2888H92.2945Z" fill="#808080"/>
<path d="M94.9793 32.512C94.8771 32.411 94.826 32.2876 94.826 32.1417C94.826 31.9958 94.8771 31.8723 94.9793 31.7769C95.0815 31.6815 95.2007 31.631 95.3482 31.631C95.4958 31.631 95.615 31.6815 95.7172 31.7769C95.8194 31.8723 95.8704 31.9958 95.8704 32.1417C95.8704 32.2876 95.8194 32.411 95.7172 32.512C95.615 32.613 95.4958 32.6635 95.3482 32.6635C95.2007 32.6635 95.0815 32.613 94.9793 32.512ZM95.7058 33.7017V39.1953H94.9907V33.7017H95.7058Z" fill="#808080"/>
<path d="M98.3452 38.9316C97.9252 38.7015 97.5959 38.3704 97.3575 37.944C97.1192 37.5175 96.9943 37.0181 96.9943 36.4513C96.9943 35.8845 97.1192 35.3851 97.3632 34.9586C97.6073 34.5322 97.9422 34.2011 98.3622 33.971C98.7822 33.7409 99.2534 33.6231 99.7755 33.6231C100.298 33.6231 100.769 33.7409 101.195 33.971C101.62 34.2011 101.949 34.5322 102.194 34.9586C102.432 35.3851 102.557 35.8845 102.557 36.4513C102.557 37.0181 102.432 37.5119 102.188 37.9384C101.944 38.3704 101.609 38.6959 101.178 38.9316C100.752 39.1617 100.275 39.2795 99.7528 39.2795C99.2306 39.2795 98.7595 39.1617 98.3452 38.9316ZM100.775 38.4153C101.087 38.2526 101.342 38.0001 101.535 37.669C101.728 37.3379 101.825 36.9283 101.825 36.4457C101.825 35.9631 101.728 35.5535 101.541 35.2224C101.353 34.8913 101.098 34.6444 100.786 34.476C100.474 34.3133 100.133 34.2291 99.7699 34.2291C99.4066 34.2291 99.066 34.3133 98.7539 34.476C98.4417 34.6388 98.1919 34.8913 98.0046 35.2224C97.8173 35.5535 97.7265 35.9631 97.7265 36.4457C97.7265 36.9283 97.8173 37.3379 98.0046 37.669C98.1919 38.0001 98.4417 38.247 98.7482 38.4153C99.0547 38.5781 99.3953 38.6622 99.7585 38.6622C100.122 38.6622 100.462 38.5781 100.775 38.4153Z" fill="#808080"/>
<path d="M108.097 34.2123C108.517 34.6163 108.727 35.2055 108.727 35.9799V39.2009H108.023V36.0585C108.023 35.4637 107.87 35.0035 107.569 34.6893C107.268 34.375 106.854 34.2179 106.331 34.2179C105.809 34.2179 105.366 34.3863 105.049 34.7229C104.731 35.0596 104.572 35.5535 104.572 36.2044V39.2066H103.857V33.7129H104.572V34.65C104.748 34.3133 105.003 34.0552 105.338 33.8812C105.673 33.7017 106.048 33.6119 106.468 33.6119C107.132 33.6119 107.677 33.8139 108.097 34.2235V34.2123Z" fill="#808080"/>
<path d="M120.045 32.2539V39.2009H119.33V33.6568L116.826 39.2009H116.31L113.807 33.6736V39.2009H113.092V32.2539H113.846L116.565 38.275L119.284 32.2539H120.05H120.045Z" fill="#808080"/>
<path d="M121.679 34.953C121.906 34.5265 122.224 34.1955 122.627 33.9654C123.03 33.7353 123.49 33.6175 123.995 33.6175C124.5 33.6175 124.983 33.7409 125.363 33.9822C125.749 34.2235 126.022 34.5322 126.192 34.9081V33.7017H126.907V39.1953H126.192V37.9776C126.016 38.3536 125.738 38.6622 125.352 38.9091C124.966 39.156 124.512 39.2739 123.984 39.2739C123.456 39.2739 123.03 39.156 122.627 38.9204C122.224 38.6847 121.906 38.3536 121.679 37.9215C121.452 37.4894 121.339 36.9956 121.339 36.4345C121.339 35.8733 121.452 35.3739 121.679 34.9474V34.953ZM125.919 35.2841C125.738 34.9474 125.488 34.6893 125.17 34.5097C124.852 34.3301 124.506 34.2404 124.126 34.2404C123.746 34.2404 123.377 34.3301 123.064 34.5041C122.752 34.6781 122.508 34.9306 122.327 35.2617C122.145 35.5927 122.054 35.9855 122.054 36.4457C122.054 36.9058 122.145 37.2874 122.327 37.6297C122.508 37.9664 122.752 38.2245 123.064 38.4041C123.377 38.5837 123.729 38.6735 124.126 38.6735C124.523 38.6735 124.852 38.5837 125.17 38.4041C125.488 38.2245 125.738 37.9664 125.919 37.6297C126.101 37.293 126.192 36.9058 126.192 36.4625C126.192 36.0192 126.101 35.632 125.919 35.2953V35.2841Z" fill="#808080"/>
<path d="M132.77 34.2123C133.19 34.6163 133.4 35.2055 133.4 35.9799V39.2009H132.697V36.0585C132.697 35.4637 132.543 35.0035 132.243 34.6893C131.942 34.375 131.527 34.2179 131.005 34.2179C130.483 34.2179 130.04 34.3863 129.722 34.7229C129.405 35.0596 129.246 35.5535 129.246 36.2044V39.2066H128.53V33.7129H129.246V34.65C129.422 34.3133 129.677 34.0552 130.012 33.8812C130.347 33.7017 130.721 33.6119 131.141 33.6119C131.806 33.6119 132.35 33.8139 132.77 34.2235V34.2123Z" fill="#808080"/>
<path d="M134.995 34.953C135.222 34.5265 135.54 34.1955 135.943 33.9654C136.346 33.7353 136.806 33.6175 137.311 33.6175C137.816 33.6175 138.299 33.7409 138.679 33.9822C139.065 34.2235 139.338 34.5322 139.508 34.9081V33.7017H140.223V39.1953H139.508V37.9776C139.332 38.3536 139.054 38.6622 138.668 38.9091C138.282 39.156 137.828 39.2739 137.3 39.2739C136.772 39.2739 136.346 39.156 135.943 38.9204C135.54 38.6847 135.222 38.3536 134.995 37.9215C134.768 37.4894 134.655 36.9956 134.655 36.4345C134.655 35.8733 134.768 35.3739 134.995 34.9474V34.953ZM139.235 35.2841C139.054 34.9474 138.804 34.6893 138.486 34.5097C138.168 34.3301 137.822 34.2404 137.442 34.2404C137.062 34.2404 136.693 34.3301 136.38 34.5041C136.068 34.6781 135.824 34.9306 135.643 35.2617C135.461 35.5927 135.37 35.9855 135.37 36.4457C135.37 36.9058 135.461 37.2874 135.643 37.6297C135.824 37.9664 136.068 38.2245 136.38 38.4041C136.693 38.5837 137.044 38.6735 137.442 38.6735C137.839 38.6735 138.168 38.5837 138.486 38.4041C138.804 38.2245 139.054 37.9664 139.235 37.6297C139.417 37.293 139.508 36.9058 139.508 36.4625C139.508 36.0192 139.417 35.632 139.235 35.2953V35.2841Z" fill="#808080"/>
<path d="M145.547 33.9822C145.933 34.2235 146.211 34.5265 146.382 34.8969V33.7017H147.097V39.3356C147.097 39.8407 146.989 40.284 146.768 40.6768C146.546 41.064 146.24 41.367 145.848 41.5802C145.456 41.7935 145.008 41.9001 144.503 41.9001C143.788 41.9001 143.197 41.7317 142.726 41.395C142.255 41.0584 141.96 40.6038 141.846 40.0258H142.55C142.675 40.4074 142.902 40.7161 143.248 40.9405C143.589 41.1706 144.009 41.2828 144.509 41.2828C144.866 41.2828 145.19 41.2099 145.473 41.0584C145.757 40.9068 145.984 40.6824 146.143 40.3906C146.308 40.0932 146.387 39.7453 146.387 39.3412V37.9832C146.211 38.3592 145.933 38.6678 145.547 38.9148C145.161 39.1617 144.713 39.2795 144.191 39.2795C143.668 39.2795 143.226 39.1617 142.823 38.926C142.42 38.6903 142.102 38.3592 141.875 37.9271C141.648 37.495 141.534 37.0012 141.534 36.4401C141.534 35.8789 141.648 35.3795 141.875 34.953C142.102 34.5265 142.42 34.1955 142.823 33.9654C143.226 33.7353 143.685 33.6175 144.191 33.6175C144.696 33.6175 145.167 33.7409 145.553 33.9822H145.547ZM146.109 35.2841C145.928 34.9474 145.678 34.6893 145.36 34.5097C145.042 34.3301 144.696 34.2404 144.316 34.2404C143.935 34.2404 143.566 34.3301 143.254 34.5041C142.942 34.6781 142.698 34.9306 142.516 35.2617C142.335 35.5927 142.244 35.9855 142.244 36.4457C142.244 36.9058 142.335 37.2874 142.516 37.6297C142.698 37.9664 142.942 38.2245 143.254 38.4041C143.566 38.5837 143.918 38.6735 144.316 38.6735C144.713 38.6735 145.042 38.5837 145.36 38.4041C145.678 38.2245 145.928 37.9664 146.109 37.6297C146.291 37.293 146.382 36.9058 146.382 36.4625C146.382 36.0192 146.291 35.632 146.109 35.2953V35.2841Z" fill="#808080"/>
<path d="M153.732 36.7206H149.117C149.14 37.1359 149.242 37.495 149.424 37.7868C149.606 38.0842 149.85 38.3031 150.145 38.4546C150.446 38.6061 150.769 38.6791 151.121 38.6791C151.581 38.6791 151.973 38.5668 152.285 38.348C152.603 38.1291 152.807 37.8261 152.909 37.4501H153.664C153.528 37.9889 153.238 38.4265 152.796 38.7632C152.353 39.0999 151.791 39.2739 151.121 39.2739C150.599 39.2739 150.128 39.156 149.713 38.926C149.299 38.6959 148.976 38.3648 148.743 37.9383C148.51 37.5119 148.391 37.0124 148.391 36.4457C148.391 35.8789 148.504 35.3739 148.737 34.9474C148.97 34.5153 149.288 34.1899 149.702 33.9598C150.116 33.7297 150.588 33.6175 151.115 33.6175C151.643 33.6175 152.109 33.7297 152.506 33.9598C152.903 34.1899 153.21 34.4929 153.42 34.8801C153.636 35.2673 153.738 35.6937 153.738 36.1651C153.738 36.4064 153.732 36.5916 153.715 36.7206H153.732ZM152.784 35.0989C152.608 34.8127 152.375 34.5939 152.075 34.4424C151.774 34.2965 151.45 34.2235 151.098 34.2235C150.571 34.2235 150.116 34.3919 149.742 34.7286C149.367 35.0653 149.163 35.5366 149.123 36.1483H153.034C153.04 35.7386 152.96 35.3907 152.784 35.0989Z" fill="#808080"/>
<path d="M163.268 34.2123C163.677 34.6163 163.881 35.2055 163.881 35.9799V39.2009H163.177V36.0585C163.177 35.4637 163.029 35.0035 162.74 34.6893C162.45 34.375 162.053 34.2179 161.548 34.2179C161.043 34.2179 160.606 34.3863 160.294 34.7286C159.981 35.0709 159.822 35.5647 159.822 36.2156V39.1953H159.119V36.0529C159.119 35.4581 158.971 34.9979 158.682 34.6837C158.392 34.3694 157.989 34.2123 157.478 34.2123C156.967 34.2123 156.536 34.3806 156.224 34.7229C155.912 35.0653 155.753 35.5591 155.753 36.21V39.1897H155.038V33.696H155.753V34.6444C155.929 34.3021 156.178 34.044 156.508 33.8644C156.831 33.6848 157.194 33.595 157.597 33.595C158.08 33.595 158.5 33.7073 158.863 33.9373C159.227 34.1674 159.488 34.4985 159.652 34.9418C159.8 34.5041 160.055 34.173 160.418 33.9429C160.782 33.7129 161.196 33.595 161.656 33.595C162.309 33.595 162.836 33.797 163.251 34.2067L163.268 34.2123Z" fill="#808080"/>
<path d="M170.471 36.7206H165.856C165.879 37.1359 165.981 37.495 166.163 37.7868C166.344 38.0842 166.588 38.3031 166.883 38.4546C167.184 38.6061 167.508 38.6791 167.86 38.6791C168.32 38.6791 168.711 38.5668 169.023 38.348C169.341 38.1291 169.546 37.8261 169.648 37.4501H170.403C170.266 37.9889 169.977 38.4265 169.534 38.7632C169.091 39.0999 168.53 39.2739 167.86 39.2739C167.338 39.2739 166.866 39.156 166.452 38.926C166.038 38.6959 165.714 38.3648 165.482 37.9383C165.249 37.5119 165.13 37.0124 165.13 36.4457C165.13 35.8789 165.243 35.3739 165.476 34.9474C165.709 34.5153 166.026 34.1899 166.441 33.9598C166.855 33.7297 167.326 33.6175 167.854 33.6175C168.382 33.6175 168.847 33.7297 169.245 33.9598C169.642 34.1899 169.949 34.4929 170.159 34.8801C170.374 35.2673 170.476 35.6937 170.476 36.1651C170.476 36.4064 170.471 36.5916 170.454 36.7206H170.471ZM169.517 35.0989C169.341 34.8127 169.108 34.5939 168.808 34.4424C168.507 34.2965 168.183 34.2235 167.831 34.2235C167.304 34.2235 166.849 34.3919 166.475 34.7286C166.1 35.0653 165.896 35.5366 165.856 36.1483H169.767C169.773 35.7386 169.693 35.3907 169.517 35.0989Z" fill="#808080"/>
<path d="M176.028 34.2123C176.448 34.6163 176.658 35.2055 176.658 35.9799V39.2009H175.954V36.0585C175.954 35.4637 175.801 35.0035 175.5 34.6893C175.199 34.375 174.785 34.2179 174.262 34.2179C173.74 34.2179 173.297 34.3863 172.98 34.7229C172.662 35.0596 172.503 35.5535 172.503 36.2044V39.2066H171.788V33.7129H172.503V34.65C172.679 34.3133 172.934 34.0552 173.269 33.8812C173.604 33.7017 173.979 33.6119 174.399 33.6119C175.063 33.6119 175.608 33.8139 176.028 34.2235V34.2123Z" fill="#808080"/>
<path d="M179.166 34.2965V37.7083C179.166 38.045 179.229 38.275 179.359 38.4041C179.49 38.5332 179.717 38.5949 180.041 38.5949H180.693V39.2009H179.927C179.428 39.2009 179.053 39.0831 178.809 38.853C178.565 38.623 178.44 38.2414 178.44 37.7083V34.2965H177.668V33.7017H178.44V32.3212H179.161V33.7017H180.688V34.2965H179.161H179.166Z" fill="#808080"/>
<path d="M185.575 39.027C185.217 38.8642 184.939 38.6398 184.735 38.3536C184.53 38.0674 184.422 37.7419 184.411 37.3884H185.166C185.2 37.7307 185.353 38.0337 185.626 38.2919C185.898 38.55 186.296 38.6791 186.818 38.6791C187.3 38.6791 187.681 38.5556 187.964 38.3143C188.248 38.0674 188.384 37.7588 188.384 37.3828C188.384 37.0798 188.305 36.8385 188.152 36.6533C187.993 36.4681 187.8 36.3335 187.573 36.2381C187.34 36.1483 187.022 36.0473 186.613 35.9406C186.137 35.8116 185.762 35.6881 185.484 35.5703C185.206 35.4468 184.967 35.2617 184.769 35.0091C184.57 34.7566 184.474 34.4087 184.474 33.971C184.474 33.6063 184.57 33.2864 184.757 33.0002C184.945 32.714 185.217 32.4896 185.563 32.3324C185.91 32.1753 186.307 32.0911 186.755 32.0911C187.414 32.0911 187.947 32.2483 188.35 32.5681C188.753 32.888 188.986 33.2976 189.048 33.8027H188.277C188.231 33.5165 188.072 33.2583 187.8 33.0339C187.527 32.8094 187.164 32.6972 186.699 32.6972C186.273 32.6972 185.915 32.8094 185.631 33.0339C185.348 33.2583 185.206 33.567 185.206 33.9542C185.206 34.2516 185.285 34.4873 185.438 34.6668C185.597 34.8464 185.79 34.9867 186.023 35.0821C186.256 35.1775 186.574 35.2785 186.977 35.3851C187.436 35.5142 187.811 35.6376 188.095 35.7611C188.379 35.8845 188.623 36.0753 188.816 36.3278C189.014 36.5804 189.111 36.9227 189.111 37.3548C189.111 37.6858 189.02 37.9945 188.844 38.2919C188.668 38.5893 188.407 38.825 188.061 39.0045C187.715 39.1841 187.3 39.2739 186.818 39.2739C186.335 39.2739 185.938 39.1953 185.58 39.0326L185.575 39.027Z" fill="#808080"/>
<path d="M195.059 33.7017L191.762 41.7822H191.018L192.097 39.1673L189.815 33.7017H190.598L192.494 38.3929L194.327 33.7017H195.059Z" fill="#808080"/>
<path d="M196.376 38.8418C195.973 38.55 195.746 38.1516 195.701 37.6466H196.433C196.467 37.9552 196.615 38.2077 196.876 38.3985C197.137 38.5893 197.489 38.6847 197.931 38.6847C198.317 38.6847 198.624 38.5949 198.845 38.4153C199.067 38.2358 199.175 38.0113 199.175 37.7419C199.175 37.5568 199.112 37.3996 198.993 37.2762C198.874 37.1527 198.715 37.0573 198.527 36.99C198.34 36.9171 198.09 36.8441 197.767 36.7655C197.353 36.6589 197.018 36.5523 196.757 36.4457C196.501 36.3391 196.28 36.1763 196.098 35.9687C195.917 35.7555 195.826 35.4749 195.826 35.1158C195.826 34.8464 195.905 34.5995 196.07 34.3694C196.234 34.1394 196.461 33.9598 196.762 33.8251C197.063 33.6904 197.398 33.6231 197.778 33.6231C198.374 33.6231 198.857 33.7746 199.226 34.072C199.595 34.3694 199.788 34.7791 199.816 35.3065H199.101C199.078 34.9867 198.953 34.723 198.72 34.5265C198.488 34.3301 198.164 34.2291 197.756 34.2291C197.398 34.2291 197.103 34.3133 196.881 34.4817C196.66 34.65 196.547 34.8576 196.547 35.1045C196.547 35.3178 196.615 35.4973 196.745 35.632C196.876 35.7723 197.04 35.8789 197.239 35.9519C197.438 36.0304 197.699 36.1146 198.034 36.21C198.437 36.3166 198.755 36.4232 198.993 36.5242C199.231 36.6253 199.436 36.7712 199.606 36.9676C199.776 37.164 199.861 37.4221 199.873 37.7419C199.873 38.0394 199.793 38.3031 199.629 38.5332C199.464 38.7632 199.237 38.9484 198.948 39.0831C198.658 39.2178 198.317 39.2851 197.937 39.2851C197.301 39.2851 196.779 39.1392 196.376 38.8474V38.8418Z" fill="#808080"/>
<path d="M202.143 34.2965V37.7083C202.143 38.045 202.206 38.275 202.336 38.4041C202.467 38.5332 202.694 38.5949 203.017 38.5949H203.67V39.2009H202.904C202.404 39.2009 202.03 39.0831 201.786 38.853C201.541 38.623 201.417 38.2414 201.417 37.7083V34.2965H200.645V33.7017H201.417V32.3212H202.137V33.7017H203.664V34.2965H202.137H202.143Z" fill="#808080"/>
<path d="M209.851 36.7206H205.237C205.259 37.1359 205.361 37.495 205.543 37.7868C205.725 38.0842 205.969 38.3031 206.264 38.4546C206.565 38.6061 206.888 38.6791 207.24 38.6791C207.7 38.6791 208.092 38.5668 208.404 38.348C208.722 38.1291 208.926 37.8261 209.028 37.4501H209.783C209.647 37.9889 209.357 38.4265 208.915 38.7632C208.472 39.0999 207.91 39.2739 207.24 39.2739C206.718 39.2739 206.247 39.156 205.833 38.926C205.418 38.6959 205.095 38.3648 204.862 37.9383C204.629 37.5119 204.51 37.0124 204.51 36.4457C204.51 35.8789 204.624 35.3739 204.856 34.9474C205.089 34.5153 205.407 34.1899 205.821 33.9598C206.236 33.7297 206.707 33.6175 207.235 33.6175C207.762 33.6175 208.228 33.7297 208.625 33.9598C209.023 34.1899 209.329 34.4929 209.539 34.8801C209.755 35.2673 209.857 35.6937 209.857 36.1651C209.857 36.4064 209.851 36.5916 209.834 36.7206H209.851ZM208.898 35.0989C208.722 34.8127 208.489 34.5939 208.188 34.4424C207.887 34.2965 207.564 34.2235 207.212 34.2235C206.684 34.2235 206.23 34.3919 205.855 34.7286C205.481 35.0653 205.276 35.5366 205.237 36.1483H209.147C209.153 35.7386 209.074 35.3907 208.898 35.0989Z" fill="#808080"/>
<path d="M219.381 34.2123C219.79 34.6163 220 35.2055 220 35.9799V39.2009H219.296V36.0585C219.296 35.4637 219.149 35.0035 218.859 34.6893C218.57 34.375 218.172 34.2179 217.667 34.2179C217.162 34.2179 216.725 34.3863 216.413 34.7286C216.101 35.0709 215.942 35.5647 215.942 36.2156V39.1953H215.238V36.0529C215.238 35.4581 215.09 34.9979 214.801 34.6837C214.511 34.3694 214.108 34.2123 213.597 34.2123C213.087 34.2123 212.655 34.3806 212.343 34.7229C212.031 35.0653 211.872 35.5591 211.872 36.21V39.1897H211.157V33.696H211.872V34.6444C212.048 34.3021 212.298 34.044 212.627 33.8644C212.95 33.6848 213.314 33.595 213.717 33.595C214.199 33.595 214.619 33.7073 214.982 33.9373C215.346 34.1674 215.607 34.4985 215.771 34.9418C215.919 34.5041 216.174 34.173 216.538 33.9429C216.901 33.7129 217.315 33.595 217.775 33.595C218.428 33.595 218.956 33.797 219.37 34.2067L219.381 34.2123Z" fill="#808080"/>
</svg>
