<svg width="24" height="24" viewBox="0 0 24 24" fill="none" xmlns="http://www.w3.org/2000/svg">
<path d="M20.9999 19.656C20.6399 16.656 17.7599 15.096 15.8879 14.376L12.9359 19.344L12.6719 15.936L13.2959 14.472C13.0319 14.592 12.5279 14.664 11.9519 14.664C11.4719 14.664 11.0639 14.616 10.7759 14.52L11.3519 15.936L11.0879 19.416L8.1359 14.4C6.2639 15.096 3.3839 16.656 3.0239 19.68C2.9759 20.112 3.1439 20.52 3.5039 20.76C4.4879 21.456 7.0559 22.8 11.9999 22.8C16.9439 22.8 19.5119 21.456 20.4959 20.76C20.8559 20.496 21.0479 20.088 20.9999 19.656Z" fill="#333333"/>
<path d="M5.68778 4.968V7.464H6.26378V5.256L11.9038 8.184L18.3358 4.896L19.0558 4.44L11.9038 1.2L4.72778 4.44L5.01578 4.608L5.68778 4.968Z" fill="#333333"/>
<path d="M7.89587 7.00799C7.60787 7.63199 7.46387 8.30399 7.46387 9.04799C7.46387 11.664 9.47987 13.776 11.9759 13.776C14.4719 13.776 16.4879 11.664 16.4879 9.04799C16.4879 8.30399 16.3199 7.60799 16.0319 6.98399L11.9279 9.09599L7.89587 7.00799Z" fill="#333333"/>
<path d="M5.32788 9.288H6.62388L6.28788 7.752H5.68788L5.32788 9.288Z" fill="#333333"/>
</svg>
