<svg width="33" height="36" viewBox="0 0 33 36" fill="none" xmlns="http://www.w3.org/2000/svg">
<path d="M0.618332 1.51617C0.226665 1.91592 0 2.53829 0 3.34429V32.0938C0 32.8998 0.226665 33.5222 0.618332 33.9219L0.714999 34.0097L17.2383 17.9059V17.5257L0.714999 1.42192L0.618332 1.51617Z" fill="#333333"/>
<path d="M24.7399 23.2765L19.2383 17.9059V17.5256L24.7466 12.155L24.8699 12.2249L31.3933 15.8438C33.2549 16.8708 33.2549 18.5608 31.3933 19.5943L24.8699 23.2066L24.7399 23.2765Z" fill="#333333"/>
<path d="M23.8698 24.2067L18.2382 18.7158L1.61816 34.9219C2.2365 35.5557 3.24483 35.6321 4.3915 34.9983L23.8698 24.2067Z" fill="#333333"/>
<path d="M23.8698 11.225L4.3915 0.433349C3.24483 -0.193901 2.2365 -0.117528 1.61816 0.516221L18.2382 16.7158L23.8698 11.225Z" fill="#333333"/>
</svg>
