<svg width="24" height="24" viewBox="0 0 24 24" fill="none" xmlns="http://www.w3.org/2000/svg">
<path d="M12.5039 12.192C15.3405 12.192 17.6399 9.78508 17.6399 6.816C17.6399 3.84692 15.3405 1.44 12.5039 1.44C9.66738 1.44 7.36792 3.84692 7.36792 6.816C7.36792 9.78508 9.66738 12.192 12.5039 12.192Z" fill="#333333"/>
<path d="M22.2239 20.16C22.2239 20.112 22.1999 20.064 22.1999 20.016C22.1279 19.68 21.9599 19.392 21.7439 19.152C21.4799 18.888 21.1679 18.672 20.7839 18.576C20.6399 18.528 20.4719 18.504 20.3039 18.504C19.2239 18.504 18.3359 19.392 18.3359 20.472C18.3359 21.552 19.2239 22.44 20.3039 22.44C21.3839 22.44 22.2719 21.552 22.2719 20.472C22.2719 20.376 22.2479 20.28 22.2239 20.16Z" fill="#333333"/>
<path d="M6.21595 18.528C6.21595 17.448 5.32796 16.56 4.24796 16.56C4.17596 16.56 4.10395 16.56 4.03195 16.56C4.00795 16.56 4.00796 16.56 3.98396 16.56C3.93596 16.56 3.88795 16.584 3.83995 16.584C3.81595 16.584 3.81596 16.584 3.79195 16.608C3.74396 16.608 3.69595 16.632 3.64795 16.656C3.62395 16.656 3.62396 16.656 3.62396 16.68C3.57596 16.704 3.52795 16.728 3.47995 16.728H3.45595C3.40795 16.752 3.35995 16.776 3.28795 16.8C3.23995 16.824 3.19195 16.872 3.11995 16.896C3.02395 16.968 2.90396 17.064 2.83196 17.16C2.49596 17.52 2.30396 17.976 2.30396 18.504C2.30396 19.584 3.19195 20.472 4.27195 20.472C5.35195 20.472 6.21595 19.608 6.21595 18.528Z" fill="#333333"/>
<path d="M22.8 18.936C22.2 14.112 15.936 12.552 15.192 12.384L12.576 14.448L9.95995 12.384C9.40795 12.504 5.90395 13.368 3.83995 15.72L2.08795 9.552L1.19995 9.792L2.99995 16.224C3.35995 16.032 3.79195 15.912 4.24795 15.912C5.68795 15.912 6.86395 17.088 6.86395 18.528C6.86395 19.848 5.87995 20.928 4.63195 21.12C5.71195 21.576 7.19995 22.032 9.16795 22.296V16.056C9.16795 16.056 12.408 16.056 14.64 17.52L14.664 22.56H15.312L15.288 17.52C17.52 16.056 20.76 16.056 20.76 16.056V17.928C21.648 18.096 22.368 18.696 22.704 19.512C22.8 19.32 22.824 19.128 22.8 18.936Z" fill="#333333"/>
</svg>
