<svg width="40" height="40" viewBox="0 0 40 40" fill="none" xmlns="http://www.w3.org/2000/svg">
<g clip-path="url(#clip0_105_253)">
<path d="M40 16.5625C40 13.9778 37.8972 11.875 35.3125 11.875H33.7106C32.8477 11.875 32.1481 12.5745 32.1481 13.4375C32.1481 14.3005 32.8477 15 33.7106 15H35.3125C36.1741 15 36.875 15.7009 36.875 16.5625V22.8125C36.875 23.6741 36.1741 24.375 35.3125 24.375H4.6875C3.82594 24.375 3.125 23.6741 3.125 22.8125V16.5625C3.125 15.7009 3.82594 15 4.6875 15H6.28945C7.15242 15 7.85195 14.3005 7.85195 13.4375C7.85195 12.5745 7.15242 11.875 6.28945 11.875H4.6875C2.10281 11.875 0 13.9778 0 16.5625V22.8125C0 24.0122 0.453516 25.1075 1.19742 25.9375C0.453516 26.7675 0 27.8628 0 29.0625V35.3125C0 37.8972 2.10281 40 4.6875 40H35.3125C37.8972 40 40 37.8972 40 35.3125V29.0625C40 27.8628 39.5465 26.7675 38.8026 25.9375C39.5465 25.1075 40 24.0122 40 22.8125V16.5625ZM36.875 35.3125C36.875 36.1741 36.1741 36.875 35.3125 36.875H4.6875C3.82594 36.875 3.125 36.1741 3.125 35.3125V29.0625C3.125 28.2009 3.82594 27.5 4.6875 27.5H35.3125C36.1741 27.5 36.875 28.2009 36.875 29.0625V35.3125Z" fill="#835DFF"/>
<path d="M32.5 30.625H29.375C28.512 30.625 27.8125 31.3245 27.8125 32.1875C27.8125 33.0505 28.512 33.75 29.375 33.75H32.5C33.363 33.75 34.0625 33.0505 34.0625 32.1875C34.0625 31.3245 33.363 30.625 32.5 30.625Z" fill="#44B87E"/>
<path d="M29.375 21.25H32.5C33.363 21.25 34.0625 20.5505 34.0625 19.6875C34.0625 18.8245 33.363 18.125 32.5 18.125H29.375C28.512 18.125 27.8125 18.8245 27.8125 19.6875C27.8125 20.5505 28.512 21.25 29.375 21.25Z" fill="#44B87E"/>
<path d="M7.5 33.75C8.36294 33.75 9.0625 33.0504 9.0625 32.1875C9.0625 31.3246 8.36294 30.625 7.5 30.625C6.63706 30.625 5.9375 31.3246 5.9375 32.1875C5.9375 33.0504 6.63706 33.75 7.5 33.75Z" fill="#44B87E"/>
<path d="M13.75 33.75C14.6129 33.75 15.3125 33.0504 15.3125 32.1875C15.3125 31.3246 14.6129 30.625 13.75 30.625C12.8871 30.625 12.1875 31.3246 12.1875 32.1875C12.1875 33.0504 12.8871 33.75 13.75 33.75Z" fill="#44B87E"/>
<path d="M7.5 21.25C8.36294 21.25 9.0625 20.5504 9.0625 19.6875C9.0625 18.8246 8.36294 18.125 7.5 18.125C6.63706 18.125 5.9375 18.8246 5.9375 19.6875C5.9375 20.5504 6.63706 21.25 7.5 21.25Z" fill="#44B87E"/>
<path d="M20 21.25C18.8575 21.25 17.7566 20.8341 16.9004 20.079L13.8023 17.3467C11.7831 15.5667 10.625 13.0028 10.625 10.3125V6.25C10.625 5.09328 11.2593 4.03648 12.2803 3.4918L17.796 0.549766C18.4703 0.190078 19.2324 0 20 0C20.7676 0 21.5297 0.190078 22.204 0.549766L27.7198 3.4918C28.7407 4.03641 29.375 5.09328 29.375 6.25V10.3125C29.375 13.0022 28.2173 15.5658 26.1987 17.3459L23.0996 20.079C22.2434 20.8341 21.1426 21.25 20 21.25ZM13.7511 6.24906L13.75 10.3125C13.75 12.1061 14.5224 13.8156 15.8691 15.0028L18.9673 17.7352C19.2524 17.9866 19.6191 18.125 20 18.125C20.3809 18.125 20.7476 17.9866 21.0327 17.7352L24.1317 15.0021C25.4779 13.8149 26.25 12.1057 26.25 10.3125V6.25L20.7333 3.30703C20.5068 3.18625 20.2601 3.125 20 3.125C19.7399 3.125 19.4932 3.18625 19.2666 3.30703L13.7511 6.24906Z" fill="#44B87E"/>
</g>
<defs>
<clipPath id="clip0_105_253">
<rect width="40" height="40" fill="white"/>
</clipPath>
</defs>
</svg>
