<svg width="24" height="24" viewBox="0 0 24 24" fill="none" xmlns="http://www.w3.org/2000/svg">
<g clip-path="url(#clip0_155_490)">
<path d="M12 7.07812C10.0616 7.07812 8.48438 8.65533 8.48438 10.5938C8.48438 12.5322 10.0616 14.1094 12 14.1094C13.9384 14.1094 15.5156 12.5322 15.5156 10.5938C15.5156 8.65533 13.9384 7.07812 12 7.07812Z" fill="#333333"/>
<path d="M23.5193 9.927L22.2516 9.5198C21.9948 8.45414 21.576 7.44338 21.0019 6.50611L21.578 5.35392C21.7133 5.08341 21.6604 4.75655 21.4462 4.54233L19.4576 2.5538C19.2427 2.33888 18.9172 2.28736 18.646 2.42194L17.4931 2.99873C16.6376 2.47622 15.7099 2.08069 14.7266 1.81908L14.0352 0.388641C13.9157 0.150375 13.6727 0 13.4062 0H10.5938C10.3273 0 10.0843 0.150375 9.96478 0.388641L9.27333 1.81912C8.29003 2.08073 7.36237 2.47627 6.50681 2.99878L5.35392 2.42198C5.082 2.28534 4.75725 2.33822 4.54233 2.55384L2.5538 4.54233C2.33958 4.75655 2.2867 5.08341 2.42194 5.35392L2.99873 6.50681C2.47622 7.36237 2.08069 8.29003 1.81908 9.27333L0.388641 9.96478C0.150375 10.0843 0 10.3273 0 10.5938V13.4062C0 13.6727 0.150375 13.9157 0.388641 14.0352L1.81912 14.7267C2.05669 15.6145 2.41031 16.4666 2.87381 17.268L2.38355 18.738C2.29978 18.9907 2.36569 19.2695 2.55384 19.4577L4.54238 21.4462C4.73119 21.6344 5.00859 21.7003 5.262 21.6165L6.73209 21.1262C7.61583 21.6391 8.55033 22.0161 9.51989 22.251L9.92709 23.5194C10.0225 23.8064 10.2909 24 10.5938 24H13.4062C13.7091 24 13.9776 23.8064 14.073 23.5193L14.4802 22.2509C15.4498 22.0161 16.3843 21.6391 17.268 21.1262L18.7381 21.6165C18.9915 21.7002 19.2703 21.6343 19.4577 21.4462L21.4462 19.4576C21.6344 19.2695 21.7003 18.9907 21.6165 18.738L21.1263 17.2679C21.6392 16.3842 22.0162 15.4497 22.251 14.4801L23.5194 14.0729C23.8064 13.9776 24 13.7091 24 13.4062V10.5938C24 10.2909 23.8064 10.0225 23.5193 9.927ZM12 19.7344C7.73527 19.7344 4.26562 16.2647 4.26562 12C4.26562 7.73527 7.73527 4.26562 12 4.26562C16.2647 4.26562 19.7344 7.73527 19.7344 12C19.7344 16.2647 16.2647 19.7344 12 19.7344Z" fill="#333333"/>
<path d="M15.4195 14.121C14.5328 14.9806 13.3292 15.5156 11.9999 15.5156C10.6706 15.5156 9.46679 14.9806 8.58024 14.121C7.99932 14.6953 7.55354 15.4071 7.3103 16.2098C8.46962 17.5 10.1327 18.3281 11.9999 18.3281C13.8667 18.3281 15.5297 17.5004 16.6889 16.2105C16.4459 15.4074 16.0003 14.6953 15.4195 14.121Z" fill="#333333"/>
</g>
<defs>
<clipPath id="clip0_155_490">
<rect width="24" height="24" fill="white"/>
</clipPath>
</defs>
</svg>
