<svg width="40" height="40" viewBox="0 0 40 40" fill="none" xmlns="http://www.w3.org/2000/svg">
<g clip-path="url(#clip0_105_220)">
<path d="M36.811 5.16342C36.433 2.89604 34.4886 1.25037 32.1876 1.25037H7.81303C5.51198 1.25037 3.56756 2.89604 3.1896 5.16342C-0.127756 25.2042 0.00060117 23.9384 0.00060117 24.6874C0.00060117 27.272 2.10337 29.3748 4.68801 29.3748H18.4377V35.6247H13.7503C12.8874 35.6247 12.1879 36.3242 12.1879 37.1872C12.1879 38.0501 12.8874 38.7496 13.7503 38.7496H26.2501C27.113 38.7496 27.8126 38.0501 27.8126 37.1872C27.8126 36.3242 27.113 35.6247 26.2501 35.6247H21.5627V29.3748H35.3124C37.8971 29.3748 39.9998 27.272 39.9998 24.6874C39.9998 23.9802 40.0755 24.8854 36.811 5.16342ZM36.8749 24.6874C36.8749 25.549 36.174 26.2499 35.3124 26.2499H4.68801C3.82646 26.2499 3.12554 25.549 3.12554 24.6874C3.12554 24.4377 2.95062 25.6521 6.27196 5.67715C6.39766 4.92279 7.04578 4.37531 7.81295 4.37531H32.1875C32.9546 4.37531 33.6028 4.92279 33.7285 5.67715C37.0486 25.6449 36.8749 24.4375 36.8749 24.6874Z" fill="#835DFF"/>
<path d="M19.9991 23.1253C19.7642 23.1253 19.5259 23.0722 19.3015 22.96C18.5297 22.5741 18.2168 21.6356 18.6028 20.8637L20.5971 16.8751H16.8754C16.3338 16.8751 15.8309 16.5947 15.5463 16.1341C15.2616 15.6734 15.2357 15.0982 15.4779 14.6139L18.6028 8.36398C18.9888 7.59219 19.9273 7.27931 20.6991 7.66524C21.4709 8.05117 21.7838 8.98967 21.3979 9.76153L19.4035 13.7502H23.1253C23.6668 13.7502 24.1697 14.0306 24.4544 14.4912C24.739 14.9518 24.7649 15.527 24.5227 16.0114L21.3978 22.2613C21.124 22.8088 20.5722 23.1253 19.9991 23.1253Z" fill="#44B87E"/>
</g>
<defs>
<clipPath id="clip0_105_220">
<rect width="40" height="40" fill="white"/>
</clipPath>
</defs>
</svg>
