<svg width="40" height="40" viewBox="0 0 40 40" fill="none" xmlns="http://www.w3.org/2000/svg">
<g clip-path="url(#clip0_105_230)">
<path d="M1.56219 40C1.36086 40 1.15789 39.9611 0.964609 39.881C0.380703 39.6392 0 39.0695 0 38.4375V7.8125C0 3.50469 3.50469 0 7.8125 0H32.1875C36.4954 0 40 3.50469 40 7.8125V25.9375C40 30.2453 36.4954 33.75 32.1875 33.75H9.10695C8.68961 33.75 8.29727 33.9126 8.00211 34.2077L2.66742 39.5423C2.36852 39.8413 1.96875 40 1.56219 40ZM7.8125 3.125C5.22781 3.125 3.125 5.22781 3.125 7.8125V34.6653L5.79234 31.998C6.67773 31.1126 7.85484 30.625 9.10695 30.625H32.1875C34.7722 30.625 36.875 28.5222 36.875 25.9375V7.8125C36.875 5.22781 34.7722 3.125 32.1875 3.125H7.8125Z" fill="#835DFF"/>
<path d="M23.125 24.6875H16.875C14.2903 24.6875 12.1875 22.5847 12.1875 20C12.1875 19.137 12.887 18.4375 13.75 18.4375C14.613 18.4375 15.3125 19.137 15.3125 20C15.3125 20.8616 16.0134 21.5625 16.875 21.5625H23.125C23.9866 21.5625 24.6875 20.8616 24.6875 20C24.6875 19.137 25.387 18.4375 26.25 18.4375C27.113 18.4375 27.8125 19.137 27.8125 20C27.8125 22.5847 25.7097 24.6875 23.125 24.6875Z" fill="#44B87E"/>
<path d="M16.875 15.3125C16.012 15.3125 15.3125 14.613 15.3125 13.75C15.3125 12.8884 14.6116 12.1875 13.75 12.1875C12.8884 12.1875 12.1875 12.8884 12.1875 13.75C12.1875 14.613 11.488 15.3125 10.625 15.3125C9.76203 15.3125 9.0625 14.613 9.0625 13.75C9.0625 11.1653 11.1653 9.0625 13.75 9.0625C16.3347 9.0625 18.4375 11.1653 18.4375 13.75C18.4375 14.613 17.738 15.3125 16.875 15.3125Z" fill="#44B87E"/>
<path d="M29.375 15.3125C28.512 15.3125 27.8125 14.613 27.8125 13.75C27.8125 12.8884 27.1116 12.1875 26.25 12.1875C25.3884 12.1875 24.6875 12.8884 24.6875 13.75C24.6875 14.613 23.988 15.3125 23.125 15.3125C22.262 15.3125 21.5625 14.613 21.5625 13.75C21.5625 11.1653 23.6653 9.0625 26.25 9.0625C28.8347 9.0625 30.9375 11.1653 30.9375 13.75C30.9375 14.613 30.238 15.3125 29.375 15.3125Z" fill="#44B87E"/>
</g>
<defs>
<clipPath id="clip0_105_230">
<rect width="40" height="40" fill="white"/>
</clipPath>
</defs>
</svg>
