<svg width="94" height="28" viewBox="0 0 94 28" fill="none" xmlns="http://www.w3.org/2000/svg">
<mask id="mask0_105_93" style="mask-type:alpha" maskUnits="userSpaceOnUse" x="0" y="0" width="94" height="28">
<path d="M14.042 0C21.8119 0 28.084 6.25334 28.084 14C28.084 21.7466 21.8119 28 14.042 28C6.27209 28 0 21.7466 0 14C0 6.25334 6.27209 0 14.042 0ZM14.042 3.73334C8.33157 3.73334 3.74453 8.30666 3.74453 14C3.74453 19.6934 8.33157 24.2666 14.042 24.2666C19.7524 24.2666 24.3394 19.6934 24.3394 14C24.3394 8.30666 19.7524 3.73334 14.042 3.73334ZM37.9134 5.50666C38.1006 5.41334 38.2878 5.6 38.2878 5.69334V9.70664H45.7769C45.8704 9.70664 46.0577 9.89336 46.0577 9.98664L46.6193 12.32L47.1811 14.6534L47.2746 14.9334L47.3683 14.6534L48.7725 9.98664C48.7725 9.8 48.9597 9.70664 49.0533 9.70664H52.7979C52.8914 9.70664 53.0786 9.89336 53.0786 9.98664L54.5765 14.9334L54.6701 14.6534L55.887 9.98664C55.887 9.8 56.0743 9.70664 56.1679 9.70664H65.7165C65.8101 9.70664 65.9037 9.89336 65.9037 9.98664V22.4C65.9037 22.5866 65.7165 22.68 65.6228 22.68H60.8486C60.6614 22.68 60.5677 22.4934 60.5677 22.4L60.5671 10.64L57.0104 22.4C57.0104 22.5634 56.8671 22.6552 56.7685 22.6756L56.7296 22.68H52.7979C52.7042 22.68 52.517 22.4934 52.517 22.4L51.7681 19.88L50.9256 17.1734L49.2405 22.4C49.2405 22.5866 49.0533 22.68 48.9597 22.68H45.0279C44.9343 22.68 44.7471 22.4934 44.7471 22.4L41.1898 10.64V13.6266C41.1898 13.8134 41.0025 13.9066 40.909 13.9066H38.1941V17.08C38.1941 18.0134 38.6622 18.3866 39.5048 18.3866C39.8792 18.3866 40.3473 18.2934 40.8153 18.1066C40.909 18.0134 41.0962 18.1066 41.0962 18.2934V22.0266C40.2537 22.4934 39.0367 22.7734 37.7262 22.7734C34.6369 22.7734 32.9518 21.3734 32.9518 18.2934V13.9066H31.7348C31.5476 13.9066 31.4541 13.72 31.4541 13.6266V10.08C31.4541 9.89336 31.6413 9.8 31.7348 9.8H32.9518V7.28C32.9518 7.09334 33.0455 7 33.2327 7L37.9134 5.50666ZM86.2178 9.42664C90.3366 9.42664 93.3323 12.5066 93.3323 16.0534C93.3323 19.6 90.3366 22.68 86.1241 22.68C82.0052 22.68 79.0096 19.6 79.0096 16.0534C79.0096 12.5066 82.0052 9.42664 86.2178 9.42664ZM71.9885 5.50666C72.1758 5.50666 72.2694 5.6 72.2694 5.69334V22.3066C72.2694 22.4934 72.0821 22.5866 71.9885 22.5866H67.2142C67.027 22.5866 66.9335 22.4 66.9335 22.3066V5.78666C66.9335 5.6 67.1207 5.50666 67.2142 5.50666H71.9885ZM78.2606 9.70664C78.4478 9.70664 78.5415 9.89336 78.5415 9.98664V22.2134C78.5415 22.4 78.3542 22.4934 78.2606 22.4934H73.4863C73.2991 22.4934 73.2055 22.3066 73.2055 22.2134V9.98664C73.2055 9.8 73.3927 9.70664 73.4863 9.70664H78.2606ZM10.5783 14.56C12.1698 14.56 13.4803 15.8666 13.4803 17.4534C13.4803 19.04 12.1698 20.3466 10.5783 20.3466C8.98684 20.3466 7.67628 19.04 7.67628 17.4534C7.67628 15.8666 8.98684 14.56 10.5783 14.56ZM17.5057 14.56C19.0971 14.56 20.4077 15.8666 20.4077 17.4534C20.4077 19.04 19.0971 20.3466 17.5057 20.3466C15.9142 20.3466 14.6036 19.04 14.6036 17.4534C14.6036 15.8666 15.9142 14.56 17.5057 14.56ZM86.2178 13.9066C85.0008 13.9066 84.1582 14.9334 84.1582 16.1466C84.1582 17.36 85.0943 18.3866 86.2178 18.3866C87.4347 18.3866 88.2774 17.36 88.2774 16.1466C88.2774 14.84 87.3411 13.8134 86.2178 13.9066ZM17.5057 7.65334C19.0971 7.65334 20.4077 8.96 20.4077 10.5466C20.4077 12.1334 19.0971 13.44 17.5057 13.44C15.9142 13.44 14.6036 12.1334 14.6036 10.5466C14.6036 8.96 15.9142 7.65334 17.5057 7.65334ZM10.5783 7.65334C12.1698 7.65334 13.4803 8.96 13.4803 10.5466C13.4803 12.1334 12.1698 13.44 10.5783 13.44C8.98684 13.44 7.67628 12.1334 7.67628 10.5466C7.67628 8.96 8.98684 7.65334 10.5783 7.65334ZM65.8101 5.50666C65.9037 5.50666 65.9973 5.6 66.0909 5.69334V8.68C66.0909 8.86664 65.9037 8.96 65.8101 8.96H60.8486C60.6614 8.96 60.5677 8.77336 60.5677 8.68V5.78666C60.5677 5.6 60.7549 5.50666 60.8486 5.50666H65.8101ZM78.3542 5.50666C78.5415 5.50666 78.635 5.6 78.635 5.69334V8.68C78.635 8.86664 78.4478 8.96 78.3542 8.96H73.3927C73.2055 8.96 73.1119 8.77336 73.1119 8.68V5.78666C73.1119 5.6 73.2991 5.50666 73.3927 5.50666H78.3542Z" fill="white"/>
</mask>
<g mask="url(#mask0_105_93)">
<path d="M14.042 0C21.8119 0 28.084 6.25334 28.084 14C28.084 21.7466 21.8119 28 14.042 28C6.27209 28 0 21.7466 0 14C0 6.25334 6.27209 0 14.042 0ZM14.042 3.73334C8.33157 3.73334 3.74453 8.30666 3.74453 14C3.74453 19.6934 8.33157 24.2666 14.042 24.2666C19.7524 24.2666 24.3394 19.6934 24.3394 14C24.3394 8.30666 19.7524 3.73334 14.042 3.73334ZM37.9134 5.50666C38.1006 5.41334 38.2878 5.6 38.2878 5.69334V9.70664H45.7769C45.8704 9.70664 46.0577 9.89336 46.0577 9.98664L46.6193 12.32L47.1811 14.6534L47.2746 14.9334L47.3683 14.6534L48.7725 9.98664C48.7725 9.8 48.9597 9.70664 49.0533 9.70664H52.7979C52.8914 9.70664 53.0786 9.89336 53.0786 9.98664L54.5765 14.9334L54.6701 14.6534L55.887 9.98664C55.887 9.8 56.0743 9.70664 56.1679 9.70664H65.7165C65.8101 9.70664 65.9037 9.89336 65.9037 9.98664V22.4C65.9037 22.5866 65.7165 22.68 65.6228 22.68H60.8486C60.6614 22.68 60.5677 22.4934 60.5677 22.4L60.5671 10.64L57.0104 22.4C57.0104 22.5634 56.8671 22.6552 56.7685 22.6756L56.7296 22.68H52.7979C52.7042 22.68 52.517 22.4934 52.517 22.4L51.7681 19.88L50.9256 17.1734L49.2405 22.4C49.2405 22.5866 49.0533 22.68 48.9597 22.68H45.0279C44.9343 22.68 44.7471 22.4934 44.7471 22.4L41.1898 10.64V13.6266C41.1898 13.8134 41.0025 13.9066 40.909 13.9066H38.1941V17.08C38.1941 18.0134 38.6622 18.3866 39.5048 18.3866C39.8792 18.3866 40.3473 18.2934 40.8153 18.1066C40.909 18.0134 41.0962 18.1066 41.0962 18.2934V22.0266C40.2537 22.4934 39.0367 22.7734 37.7262 22.7734C34.6369 22.7734 32.9518 21.3734 32.9518 18.2934V13.9066H31.7348C31.5476 13.9066 31.4541 13.72 31.4541 13.6266V10.08C31.4541 9.89336 31.6413 9.8 31.7348 9.8H32.9518V7.28C32.9518 7.09334 33.0455 7 33.2327 7L37.9134 5.50666ZM86.2178 9.42664C90.3366 9.42664 93.3323 12.5066 93.3323 16.0534C93.3323 19.6 90.3366 22.68 86.1241 22.68C82.0052 22.68 79.0096 19.6 79.0096 16.0534C79.0096 12.5066 82.0052 9.42664 86.2178 9.42664ZM71.9885 5.50666C72.1758 5.50666 72.2694 5.6 72.2694 5.69334V22.3066C72.2694 22.4934 72.0821 22.5866 71.9885 22.5866H67.2142C67.027 22.5866 66.9335 22.4 66.9335 22.3066V5.78666C66.9335 5.6 67.1207 5.50666 67.2142 5.50666H71.9885ZM78.2606 9.70664C78.4478 9.70664 78.5415 9.89336 78.5415 9.98664V22.2134C78.5415 22.4 78.3542 22.4934 78.2606 22.4934H73.4863C73.2991 22.4934 73.2055 22.3066 73.2055 22.2134V9.98664C73.2055 9.8 73.3927 9.70664 73.4863 9.70664H78.2606ZM10.5783 14.56C12.1698 14.56 13.4803 15.8666 13.4803 17.4534C13.4803 19.04 12.1698 20.3466 10.5783 20.3466C8.98684 20.3466 7.67628 19.04 7.67628 17.4534C7.67628 15.8666 8.98684 14.56 10.5783 14.56ZM17.5057 14.56C19.0971 14.56 20.4077 15.8666 20.4077 17.4534C20.4077 19.04 19.0971 20.3466 17.5057 20.3466C15.9142 20.3466 14.6036 19.04 14.6036 17.4534C14.6036 15.8666 15.9142 14.56 17.5057 14.56ZM86.2178 13.9066C85.0008 13.9066 84.1582 14.9334 84.1582 16.1466C84.1582 17.36 85.0943 18.3866 86.2178 18.3866C87.4347 18.3866 88.2774 17.36 88.2774 16.1466C88.2774 14.84 87.3411 13.8134 86.2178 13.9066ZM17.5057 7.65334C19.0971 7.65334 20.4077 8.96 20.4077 10.5466C20.4077 12.1334 19.0971 13.44 17.5057 13.44C15.9142 13.44 14.6036 12.1334 14.6036 10.5466C14.6036 8.96 15.9142 7.65334 17.5057 7.65334ZM10.5783 7.65334C12.1698 7.65334 13.4803 8.96 13.4803 10.5466C13.4803 12.1334 12.1698 13.44 10.5783 13.44C8.98684 13.44 7.67628 12.1334 7.67628 10.5466C7.67628 8.96 8.98684 7.65334 10.5783 7.65334ZM65.8101 5.50666C65.9037 5.50666 65.9973 5.6 66.0909 5.69334V8.68C66.0909 8.86664 65.9037 8.96 65.8101 8.96H60.8486C60.6614 8.96 60.5677 8.77336 60.5677 8.68V5.78666C60.5677 5.6 60.7549 5.50666 60.8486 5.50666H65.8101ZM78.3542 5.50666C78.5415 5.50666 78.635 5.6 78.635 5.69334V8.68C78.635 8.86664 78.4478 8.96 78.3542 8.96H73.3927C73.2055 8.96 73.1119 8.77336 73.1119 8.68V5.78666C73.1119 5.6 73.2991 5.50666 73.3927 5.50666H78.3542Z" fill="#835DFF"/>
</g>
</svg>
