<svg width="110" height="28" viewBox="0 0 110 28" fill="none" xmlns="http://www.w3.org/2000/svg">
<g clip-path="url(#clip0_105_98)">
<path d="M104.831 7.26262C104.62 8.54298 105.246 9.70162 106.208 10.1981C105.535 13.7327 102.832 19.386 101.311 19.386C99.7894 19.386 100.96 14.141 102.618 7.90323C102.969 6.56761 99.3998 6.8672 98.6962 8.05173C97.4889 14.3854 94.8243 19.2349 93.1687 19.2349C92.5142 19.2349 92.4142 18.4432 92.4142 17.7499C92.4142 14.9301 93.9733 9.28893 94.1742 8.10094C94.3769 6.93454 92.7292 7.1901 91.65 7.70898C91.314 7.88597 88.7994 9.12316 87.5764 9.69471C86.8306 6.9803 83.7335 7.33428 83.1115 9.38994C82.6596 10.8723 83.7862 11.8272 84.9294 12.0267C84.8697 15.3143 82.9 19.4844 80.6469 19.4844C77.8315 19.4844 79.1387 10.6271 82.7596 8.44974C82.5578 7.31183 81.0496 7.16333 79.6415 7.75905C76.9436 8.89265 75.2669 13.1646 75.5064 16.713C74.4536 18.324 73.4007 19.3376 72.7524 19.3376C72.4505 19.3376 72.0987 19.0415 72.0987 18.3016C72.0987 16.2235 73.1516 10.4337 73.7578 6.57452C74.1605 3.80312 73.6578 0.438599 69.836 0.438599C67.1574 0.438599 65.6632 2.95703 64.5779 6.87151H62.9469C62.245 6.87151 61.8405 8.6535 62.5959 8.70271C62.8398 8.72429 63.425 8.72688 64.1155 8.72343C63.9172 9.59283 63.7312 10.5132 63.5514 11.4741C63.4572 11.9668 63.3665 12.4753 63.2794 12.9997C61.9107 15.8168 58.7101 19.6881 55.8577 19.6881C54.5355 19.6881 54.0749 18.1142 54.1556 16.1665C61.9098 16.5058 64.2919 6.92245 57.3659 6.9708C53.2423 6.99757 50.6909 11.279 50.3847 15.2444C49.1494 17.2638 47.0937 19.7339 45.1968 19.7339C41.1741 19.7339 43.8895 8.89696 46.6006 8.89696C47.757 8.89696 47.506 10.7282 46.8015 11.9654C47.0533 13.5488 49.6179 13.6973 50.2233 11.0252C50.6751 8.99625 49.4187 7.01656 46.7533 7.01656C42.3217 7.01656 39.5369 11.879 39.5115 16.0378C38.6613 17.8621 37.5558 18.8429 36.7469 18.8429C36.0932 18.8429 35.9923 18.1013 36.7969 13.7491C36.9978 12.6604 37.1987 11.4232 37.4005 10.1368C37.6988 8.27534 36.9127 7.19096 35.2878 7.16851C35.2878 7.16851 35.1 7.16851 35.0342 7.17542C33.8998 7.23758 32.3837 7.71588 30.7799 8.81581C29.8148 6.59178 27.0704 7.03296 26.4887 8.99625C26.0368 10.5503 27.1634 11.525 28.3066 11.7297C28.2416 15.1201 26.2737 19.4369 24.0241 19.4369C21.2086 19.4369 22.5159 10.2853 26.136 8.05605C25.935 6.86806 24.4268 6.71956 23.0187 7.31356C18.1414 9.34246 16.6323 21.8612 23.4714 21.8612C28.8944 21.8612 31.0071 14.2921 31.1115 10.9475C31.9889 10.3051 32.9636 9.80004 33.5085 9.78709H33.5287C33.7796 9.78709 33.8796 9.88638 33.8296 10.1825C33.5269 12.4583 32.7259 16.3176 32.7259 18.3957C32.7259 20.5239 33.3295 21.8595 35.1904 21.8595C36.9381 21.8595 38.6622 20.3348 39.8405 18.406C40.4546 20.4039 41.9628 21.8595 44.544 21.8595C47.1016 21.8595 49.1406 19.8435 50.5417 17.888C51.0287 20.15 52.472 21.8595 55.0541 21.8595C58.6293 21.8595 61.2518 19.0492 62.7644 16.4307C62.6714 17.1214 62.5819 17.8302 62.4959 18.5442C61.9932 22.5528 61.5913 24.1854 60.9368 25.6238C60.6683 26.2172 60.3663 26.7954 60.0322 27.3557C59.7804 27.8012 60.0823 27.9989 60.485 27.9989C61.3895 27.9989 62.8477 27.4549 63.7532 25.97C64.6077 24.5886 65.4632 23.1994 66.3677 15.2323C66.5678 13.522 66.8389 11.0545 67.2293 8.70098H68.2286C69.1341 8.70098 69.9886 7.01829 68.9305 6.91986C68.7445 6.9026 68.233 6.89224 67.5601 6.88447C68.1313 4.08372 68.9095 1.82257 69.9869 1.82257C70.9924 1.82257 71.1933 3.35677 70.7414 5.83116C69.9869 9.69039 69.2832 14.5399 68.9814 17.3139C68.6305 20.5791 69.7351 21.8655 71.596 21.8655C73.0621 21.8655 74.6852 20.5446 75.9267 18.8438C76.5575 20.6128 77.8894 21.8655 80.0942 21.8655C85.0706 21.8655 87.2597 15.6847 87.6668 12.1631C88.3919 11.926 89.1014 11.6446 89.7909 11.3204C89.3127 13.762 88.9442 16.4514 88.9442 18.0063C88.9442 20.2821 90.1006 21.8163 91.8606 21.8163C94.4532 21.8163 96.2308 19.4127 97.3003 17.4132C97.2933 20.0473 98.3198 21.8664 100.76 21.8664C106.04 21.8664 109.761 11.3273 109.761 7.96194C109.759 4.29438 105.284 4.44201 104.831 7.26262ZM57.4624 8.84603C59.576 8.84603 58.0178 14.2213 54.3215 14.5701C54.79 11.7633 56.106 8.84603 57.4624 8.84603Z" fill="#835DFF"/>
<path fill-rule="evenodd" clip-rule="evenodd" d="M36.2415 5.48148C39.2087 5.48148 39.8624 0.434265 36.7451 0.434265C33.8278 0.434265 33.2251 5.48148 36.2415 5.48148Z" fill="#835DFF"/>
<path fill-rule="evenodd" clip-rule="evenodd" d="M13.5115 0.780463C14.4669 1.32438 15.8742 3.254 15.3215 7.41109C14.4161 14.0417 10.796 19.4844 9.58877 19.4844C8.88687 19.4844 8.93513 18.4483 9.84057 14.5856C11.047 9.53842 12.7069 2.36387 6.16966 2.36387C-0.769458 2.36387 -1.62489 9.68691 2.85057 10.5779C2.19693 7.1633 4.25875 3.94728 6.21967 3.94728C8.3315 3.94728 7.42693 7.95501 6.57062 12.2606C5.56515 17.2577 4.40878 22.9482 8.43152 22.9482C14.0133 22.9482 18.187 12.8045 18.9415 7.40764C19.8996 0.58189 15.6751 -1.24844 13.5115 0.780463Z" fill="#835DFF"/>
</g>
<defs>
<clipPath id="clip0_105_98">
<rect width="110" height="28" fill="white"/>
</clipPath>
</defs>
</svg>
