<svg width="22" height="22" viewBox="0 0 22 22" fill="none" xmlns="http://www.w3.org/2000/svg">
<path d="M9.21252 2.31914L3.69418 5.92164C1.92502 7.07664 1.92502 9.66164 3.69418 10.8166L9.21252 14.4191C10.2025 15.07 11.8342 15.07 12.8242 14.4191L18.315 10.8166C20.075 9.66164 20.075 7.0858 18.315 5.9308L12.8242 2.32831C11.8342 1.66831 10.2025 1.66831 9.21252 2.31914Z" stroke="#292D32" stroke-width="1.5" stroke-linecap="round" stroke-linejoin="round"/>
<path d="M5.16078 11.99L5.15161 16.2892C5.15161 17.4533 6.04994 18.7 7.14994 19.0667L10.0741 20.0383C10.5783 20.2033 11.4124 20.2033 11.9258 20.0383L14.8499 19.0667C15.9499 18.7 16.8483 17.4533 16.8483 16.2892V12.0358" stroke="#292D32" stroke-width="1.5" stroke-linecap="round" stroke-linejoin="round"/>
<path d="M19.6167 13.75V8.25" stroke="#292D32" stroke-width="1.5" stroke-linecap="round" stroke-linejoin="round"/>
</svg>
