<svg width="22" height="22" viewBox="0 0 22 22" fill="none" xmlns="http://www.w3.org/2000/svg">
<path d="M7.33337 1.83337V4.58337" stroke="#292D32" stroke-width="1.5" stroke-miterlimit="10" stroke-linecap="round" stroke-linejoin="round"/>
<path d="M14.6666 1.83337V4.58337" stroke="#292D32" stroke-width="1.5" stroke-miterlimit="10" stroke-linecap="round" stroke-linejoin="round"/>
<path d="M3.20837 8.33252H18.7917" stroke="#292D32" stroke-width="1.5" stroke-miterlimit="10" stroke-linecap="round" stroke-linejoin="round"/>
<path d="M17.6092 14.4558L14.3642 17.7008C14.2358 17.8291 14.1167 18.0675 14.0892 18.2416L13.915 19.4791C13.8508 19.9283 14.1625 20.24 14.6117 20.1758L15.8492 20.0017C16.0233 19.9742 16.2708 19.855 16.39 19.7266L19.635 16.4817C20.1942 15.9225 20.46 15.2717 19.635 14.4467C18.8192 13.6308 18.1683 13.8966 17.6092 14.4558Z" stroke="#292D32" stroke-width="1.5" stroke-miterlimit="10" stroke-linecap="round" stroke-linejoin="round"/>
<path d="M17.1417 14.9233C17.4167 15.9133 18.1867 16.6833 19.1767 16.9583" stroke="#292D32" stroke-width="1.5" stroke-miterlimit="10" stroke-linecap="round" stroke-linejoin="round"/>
<path d="M11 20.1667H7.33333C4.125 20.1667 2.75 18.3334 2.75 15.5834V7.79171C2.75 5.04171 4.125 3.20837 7.33333 3.20837H14.6667C17.875 3.20837 19.25 5.04171 19.25 7.79171V11" stroke="#292D32" stroke-width="1.5" stroke-miterlimit="10" stroke-linecap="round" stroke-linejoin="round"/>
<path d="M10.9959 12.5583H11.0041" stroke="#292D32" stroke-width="2" stroke-linecap="round" stroke-linejoin="round"/>
<path d="M7.60308 12.5583H7.61131" stroke="#292D32" stroke-width="2" stroke-linecap="round" stroke-linejoin="round"/>
<path d="M7.60308 15.3083H7.61131" stroke="#292D32" stroke-width="2" stroke-linecap="round" stroke-linejoin="round"/>
</svg>
