<svg width="22" height="22" viewBox="0 0 22 22" fill="none" xmlns="http://www.w3.org/2000/svg">
<path d="M15.4917 20.1666H6.50833C4.95 20.1666 3.66666 18.8924 3.66666 17.3249V4.67492C3.66666 3.11659 4.94083 1.83325 6.50833 1.83325H15.4917C17.05 1.83325 18.3333 3.10742 18.3333 4.67492V17.3249C18.3333 18.8924 17.0592 20.1666 15.4917 20.1666Z" stroke="#292D32" stroke-width="1.5" stroke-linecap="round" stroke-linejoin="round"/>
<path d="M16.9583 11.9166H5.04166C4.28082 11.9166 3.66666 11.3024 3.66666 10.5416V8.70825C3.66666 7.94742 4.28082 7.33325 5.04166 7.33325H16.9583C17.7192 7.33325 18.3333 7.94742 18.3333 8.70825V10.5416C18.3333 11.3024 17.7192 11.9166 16.9583 11.9166Z" stroke="#292D32" stroke-width="1.5" stroke-linecap="round" stroke-linejoin="round"/>
<path d="M7.78664 16.2249H7.79488" stroke="#292D32" stroke-width="2.5" stroke-linecap="round" stroke-linejoin="round"/>
<path d="M14.2033 16.2249H14.2115" stroke="#292D32" stroke-width="2.5" stroke-linecap="round" stroke-linejoin="round"/>
<path d="M8.70834 4.58325H13.2917" stroke="#292D32" stroke-width="1.5" stroke-linecap="round" stroke-linejoin="round"/>
</svg>
