<svg width="22" height="22" viewBox="0 0 22 22" fill="none" xmlns="http://www.w3.org/2000/svg">
<path d="M8.70834 12.6041C8.70834 13.4933 9.39586 14.2083 10.2392 14.2083H11.9625C12.6958 14.2083 13.2917 13.585 13.2917 12.8058C13.2917 11.9716 12.925 11.6691 12.3842 11.4766L9.62501 10.5141C9.08418 10.3216 8.71752 10.0283 8.71752 9.18497C8.71752 8.41497 9.31334 7.78247 10.0467 7.78247H11.77C12.6133 7.78247 13.3009 8.49747 13.3009 9.38664" stroke="#292D32" stroke-width="1.5" stroke-linecap="round" stroke-linejoin="round"/>
<path d="M11 6.875V15.125" stroke="#292D32" stroke-width="1.5" stroke-linecap="round" stroke-linejoin="round"/>
<path d="M20.1667 10.9999C20.1667 16.0599 16.06 20.1666 11 20.1666C5.94001 20.1666 1.83334 16.0599 1.83334 10.9999C1.83334 5.93992 5.94001 1.83325 11 1.83325" stroke="#292D32" stroke-width="1.5" stroke-linecap="round" stroke-linejoin="round"/>
<path d="M20.1667 5.49992V1.83325H16.5" stroke="#292D32" stroke-width="1.5" stroke-linecap="round" stroke-linejoin="round"/>
<path d="M15.5833 6.41659L20.1667 1.83325" stroke="#292D32" stroke-width="1.5" stroke-linecap="round" stroke-linejoin="round"/>
</svg>
