<svg width="22" height="22" viewBox="0 0 22 22" fill="none" xmlns="http://www.w3.org/2000/svg">
<path d="M8.25001 20.1666H13.75C18.3333 20.1666 20.1667 18.3333 20.1667 13.7499V8.24992C20.1667 3.66659 18.3333 1.83325 13.75 1.83325H8.25001C3.66668 1.83325 1.83334 3.66659 1.83334 8.24992V13.7499C1.83334 18.3333 3.66668 20.1666 8.25001 20.1666Z" stroke="#292D32" stroke-width="1.5" stroke-linecap="round" stroke-linejoin="round"/>
<path d="M8.24999 9.16667C9.26251 9.16667 10.0833 8.34586 10.0833 7.33333C10.0833 6.32081 9.26251 5.5 8.24999 5.5C7.23747 5.5 6.41666 6.32081 6.41666 7.33333C6.41666 8.34586 7.23747 9.16667 8.24999 9.16667Z" stroke="#292D32" stroke-width="1.5" stroke-linecap="round" stroke-linejoin="round"/>
<path d="M2.44751 17.3709L6.96668 14.3368C7.69084 13.8509 8.73584 13.9059 9.38668 14.4651L9.68918 14.7309C10.4042 15.3451 11.5592 15.3451 12.2742 14.7309L16.0875 11.4584C16.8025 10.8443 17.9575 10.8443 18.6725 11.4584L20.1667 12.7418" stroke="#292D32" stroke-width="1.5" stroke-linecap="round" stroke-linejoin="round"/>
</svg>
