<svg width="22" height="22" viewBox="0 0 22 22" fill="none" xmlns="http://www.w3.org/2000/svg">
<path d="M7.33337 1.83337V4.58337" stroke="#292D32" stroke-width="1.5" stroke-miterlimit="10" stroke-linecap="round" stroke-linejoin="round"/>
<path d="M14.6666 1.83337V4.58337" stroke="#292D32" stroke-width="1.5" stroke-miterlimit="10" stroke-linecap="round" stroke-linejoin="round"/>
<path d="M14.6667 3.20837C17.7192 3.37337 19.25 4.53754 19.25 8.84587V14.5109C19.25 18.2875 18.3333 20.1759 13.75 20.1759H8.25C3.66667 20.1759 2.75 18.2875 2.75 14.5109V8.84587C2.75 4.53754 4.28083 3.38254 7.33333 3.20837H14.6667Z" stroke="#292D32" stroke-width="1.5" stroke-miterlimit="10" stroke-linecap="round" stroke-linejoin="round"/>
<path d="M19.0208 16.1333H2.97913" stroke="#292D32" stroke-width="1.5" stroke-miterlimit="10" stroke-linecap="round" stroke-linejoin="round"/>
<path d="M11 7.5625C9.87254 7.5625 8.91921 8.17667 8.91921 9.36833C8.91921 9.93667 9.18504 10.3675 9.58837 10.6425C9.02921 10.9725 8.70837 11.5042 8.70837 12.1275C8.70837 13.2642 9.57921 13.97 11 13.97C12.4117 13.97 13.2917 13.2642 13.2917 12.1275C13.2917 11.5042 12.9709 10.9633 12.4025 10.6425C12.815 10.3583 13.0717 9.93667 13.0717 9.36833C13.0717 8.17667 12.1275 7.5625 11 7.5625ZM11 10.1658C10.5234 10.1658 10.175 9.88167 10.175 9.4325C10.175 8.97417 10.5234 8.70833 11 8.70833C11.4767 8.70833 11.825 8.97417 11.825 9.4325C11.825 9.88167 11.4767 10.1658 11 10.1658ZM11 12.8333C10.395 12.8333 9.95504 12.5308 9.95504 11.9808C9.95504 11.4308 10.395 11.1375 11 11.1375C11.605 11.1375 12.045 11.44 12.045 11.9808C12.045 12.5308 11.605 12.8333 11 12.8333Z" fill="#292D32"/>
</svg>
