<svg width="22" height="22" viewBox="0 0 22 22" fill="none" xmlns="http://www.w3.org/2000/svg">
<path d="M19.855 9.56997L18.9567 13.4016C18.1867 16.7108 16.665 18.0491 13.805 17.7741C13.3467 17.7375 12.8517 17.655 12.32 17.5266L10.78 17.16C6.95749 16.2525 5.77499 14.3641 6.67333 10.5325L7.57166 6.69163C7.75499 5.91247 7.97499 5.23413 8.24999 4.67497C9.32249 2.45663 11.1467 1.8608 14.2083 2.58497L15.7392 2.94247C19.58 3.8408 20.7533 5.7383 19.855 9.56997Z" stroke="#292D32" stroke-width="1.5" stroke-linecap="round" stroke-linejoin="round"/>
<path d="M13.805 17.7742C13.2367 18.1592 12.5217 18.48 11.6508 18.7642L10.2025 19.2409C6.56334 20.4142 4.64751 19.4334 3.46501 15.7942L2.29167 12.1734C1.11834 8.53422 2.09001 6.60922 5.72917 5.43588L7.17751 4.95922C7.55334 4.84005 7.91084 4.73922 8.25001 4.67505C7.97501 5.23422 7.75501 5.91255 7.57167 6.69172L6.67334 10.5325C5.77501 14.3642 6.95751 16.2525 10.78 17.16L12.32 17.5267C12.8517 17.655 13.3467 17.7375 13.805 17.7742Z" stroke="#292D32" stroke-width="1.5" stroke-linecap="round" stroke-linejoin="round"/>
<path d="M11.5867 7.81909L16.0325 8.94659" stroke="#292D32" stroke-width="1.5" stroke-linecap="round" stroke-linejoin="round"/>
<path d="M10.6883 11.3667L13.3467 12.045" stroke="#292D32" stroke-width="1.5" stroke-linecap="round" stroke-linejoin="round"/>
</svg>
