<svg width="22" height="22" viewBox="0 0 22 22" fill="none" xmlns="http://www.w3.org/2000/svg">
<path d="M11.9258 2.67671L17.3342 5.07838C18.8925 5.76588 18.8925 6.90254 17.3342 7.59004L11.9258 9.99171C11.3117 10.2667 10.3033 10.2667 9.68917 9.99171L4.28084 7.59004C2.72251 6.90254 2.72251 5.76588 4.28084 5.07838L9.68917 2.67671C10.3033 2.40171 11.3117 2.40171 11.9258 2.67671Z" stroke="#292D32" stroke-width="1.5" stroke-linecap="round" stroke-linejoin="round"/>
<path d="M2.75 10.0833C2.75 10.8533 3.3275 11.7424 4.03333 12.0541L10.2575 14.8224C10.7342 15.0333 11.275 15.0333 11.7425 14.8224L17.9667 12.0541C18.6725 11.7424 19.25 10.8533 19.25 10.0833" stroke="#292D32" stroke-width="1.5" stroke-linecap="round" stroke-linejoin="round"/>
<path d="M2.75 14.6667C2.75 15.5192 3.25417 16.2892 4.03333 16.6376L10.2575 19.4059C10.7342 19.6167 11.275 19.6167 11.7425 19.4059L17.9667 16.6376C18.7458 16.2892 19.25 15.5192 19.25 14.6667" stroke="#292D32" stroke-width="1.5" stroke-linecap="round" stroke-linejoin="round"/>
</svg>
