<svg width="22" height="22" viewBox="0 0 22 22" fill="none" xmlns="http://www.w3.org/2000/svg">
<path d="M11 17.4166C14.0342 17.4166 16.5 14.9508 16.5 11.9166V7.33325C16.5 4.29909 14.0342 1.83325 11 1.83325C7.96583 1.83325 5.5 4.29909 5.5 7.33325V11.9166C5.5 14.9508 7.96583 17.4166 11 17.4166Z" stroke="#292D32" stroke-width="1.5" stroke-linecap="round" stroke-linejoin="round"/>
<path d="M2.75 10.0833V11.9166C2.75 16.4724 6.44417 20.1666 11 20.1666C15.5558 20.1666 19.25 16.4724 19.25 11.9166V10.0833" stroke="#292D32" stroke-width="1.5" stroke-linecap="round" stroke-linejoin="round"/>
<path d="M8.35083 6.85679C9.9825 6.26095 11.7608 6.26095 13.3925 6.85679" stroke="#292D32" stroke-width="1.5" stroke-linecap="round" stroke-linejoin="round"/>
<path d="M9.19415 9.60676C10.2942 9.30426 11.4583 9.30426 12.5583 9.60676" stroke="#292D32" stroke-width="1.5" stroke-linecap="round" stroke-linejoin="round"/>
</svg>
