<svg width="22" height="22" viewBox="0 0 22 22" fill="none" xmlns="http://www.w3.org/2000/svg">
<path d="M12.8333 1.83325H8.25001C3.66668 1.83325 1.83334 3.66659 1.83334 8.24992V13.7499C1.83334 18.3333 3.66668 20.1666 8.25001 20.1666" stroke="#292D32" stroke-width="1.5" stroke-linecap="round" stroke-linejoin="round"/>
<path d="M20.1667 9.1665V11.9165" stroke="#292D32" stroke-width="1.5" stroke-linecap="round" stroke-linejoin="round"/>
<path d="M20.1667 9.16658H16.5C13.75 9.16658 12.8333 8.24992 12.8333 5.49992V1.83325L20.1667 9.16658Z" stroke="#292D32" stroke-width="1.5" stroke-linecap="round" stroke-linejoin="round"/>
<path d="M12.6133 16.7383C10.4592 16.8941 10.4592 20.0108 12.6133 20.1666H17.71C18.3242 20.1666 18.9292 19.9374 19.3783 19.5249C20.8908 18.2049 20.0842 15.5649 18.095 15.3174C17.38 11.0183 11.165 12.6499 12.6317 16.7474" stroke="#292D32" stroke-width="1.5" stroke-miterlimit="10" stroke-linecap="round" stroke-linejoin="round"/>
</svg>
