<svg width="22" height="22" viewBox="0 0 22 22" fill="none" xmlns="http://www.w3.org/2000/svg">
<path d="M1.82977 7.79175H10.5381" stroke="#292D32" stroke-width="1.5" stroke-miterlimit="10" stroke-linecap="round" stroke-linejoin="round"/>
<path d="M5.49646 15.125H7.32979" stroke="#292D32" stroke-width="1.5" stroke-miterlimit="10" stroke-linecap="round" stroke-linejoin="round"/>
<path d="M9.62146 15.125H13.2881" stroke="#292D32" stroke-width="1.5" stroke-miterlimit="10" stroke-linecap="round" stroke-linejoin="round"/>
<path d="M20.1631 11.0274V14.7674C20.1631 17.9849 19.3473 18.7916 16.0931 18.7916H5.89977C2.64561 18.7916 1.82977 17.9849 1.82977 14.7674V7.23242C1.82977 4.01492 2.64561 3.20825 5.89977 3.20825H13.2881" stroke="#292D32" stroke-width="1.5" stroke-linecap="round" stroke-linejoin="round"/>
<path d="M17.4865 3.78595L14.0856 7.18678C13.9573 7.31512 13.829 7.57178 13.8015 7.75512L13.6181 9.05678C13.5539 9.52428 13.8839 9.85428 14.3514 9.79012L15.6531 9.60678C15.8365 9.57928 16.0931 9.45095 16.2215 9.32262L19.6223 5.92178C20.2089 5.33512 20.4839 4.65678 19.6223 3.79512C18.7514 2.92428 18.0731 3.19928 17.4865 3.78595Z" stroke="#292D32" stroke-width="1.5" stroke-miterlimit="10" stroke-linecap="round" stroke-linejoin="round"/>
<path d="M17.0006 4.27173C17.2939 5.30756 18.1006 6.11423 19.1273 6.3984" stroke="#292D32" stroke-width="1.5" stroke-miterlimit="10" stroke-linecap="round" stroke-linejoin="round"/>
</svg>
