<svg width="22" height="22" viewBox="0 0 22 22" fill="none" xmlns="http://www.w3.org/2000/svg">
<path d="M11.9258 2.67671L17.3341 5.07838C18.8925 5.76588 18.8925 6.90254 17.3341 7.59004L11.9258 9.99171C11.3116 10.2667 10.3033 10.2667 9.68914 9.99171L4.28081 7.59004C2.72248 6.90254 2.72248 5.76588 4.28081 5.07838L9.68914 2.67671C10.3033 2.40171 11.3116 2.40171 11.9258 2.67671Z" stroke="#292D32" stroke-width="1.5" stroke-linecap="round" stroke-linejoin="round"/>
<path d="M2.75 10.0834C2.75 10.8534 3.3275 11.7425 4.03333 12.0542L10.2575 14.8225C10.7342 15.0334 11.275 15.0334 11.7425 14.8225L17.9667 12.0542C18.6725 11.7425 19.25 10.8534 19.25 10.0834" stroke="#292D32" stroke-width="1.5" stroke-linecap="round" stroke-linejoin="round"/>
<path d="M2.75 14.6666C2.75 15.5191 3.25417 16.2891 4.03333 16.6375L10.2575 19.4058C10.7342 19.6166 11.275 19.6166 11.7425 19.4058L17.9667 16.6375C18.7458 16.2891 19.25 15.5191 19.25 14.6666" stroke="#292D32" stroke-width="1.5" stroke-linecap="round" stroke-linejoin="round"/>
</svg>
