<svg width="24" height="22" viewBox="0 0 24 22" fill="none" xmlns="http://www.w3.org/2000/svg">
<path d="M18 6.56326C17.94 6.55409 17.87 6.55409 17.81 6.56326C16.43 6.51742 15.33 5.48159 15.33 4.19825C15.33 2.88742 16.48 1.83325 17.91 1.83325C19.34 1.83325 20.49 2.89659 20.49 4.19825C20.48 5.48159 19.38 6.51742 18 6.56326Z" stroke="#292D32" stroke-width="1.5" stroke-linecap="round" stroke-linejoin="round"/>
<path d="M16.97 13.2365C18.34 13.4473 19.85 13.2273 20.91 12.5765C22.32 11.7148 22.32 10.3032 20.91 9.44149C19.84 8.79066 18.31 8.57065 16.94 8.79065" stroke="#292D32" stroke-width="1.5" stroke-linecap="round" stroke-linejoin="round"/>
<path d="M5.97001 6.56326C6.03001 6.55409 6.10001 6.55409 6.16001 6.56326C7.54001 6.51742 8.64001 5.48159 8.64001 4.19825C8.64001 2.88742 7.49001 1.83325 6.06001 1.83325C4.63001 1.83325 3.48001 2.89659 3.48001 4.19825C3.49001 5.48159 4.59001 6.51742 5.97001 6.56326Z" stroke="#292D32" stroke-width="1.5" stroke-linecap="round" stroke-linejoin="round"/>
<path d="M7 13.2365C5.63 13.4473 4.12 13.2273 3.06 12.5765C1.65 11.7148 1.65 10.3032 3.06 9.44149C4.13 8.79066 5.66 8.57065 7.03 8.79065" stroke="#292D32" stroke-width="1.5" stroke-linecap="round" stroke-linejoin="round"/>
<path d="M12 13.4109C11.94 13.4017 11.87 13.4017 11.81 13.4109C10.43 13.3651 9.33002 12.3292 9.33002 11.0459C9.33002 9.73508 10.48 8.68091 11.91 8.68091C13.34 8.68091 14.49 9.74424 14.49 11.0459C14.48 12.3292 13.38 13.3742 12 13.4109Z" stroke="#292D32" stroke-width="1.5" stroke-linecap="round" stroke-linejoin="round"/>
<path d="M9.09 16.2983C7.68 17.16 7.68 18.5717 9.09 19.4333C10.69 20.4142 13.31 20.4142 14.91 19.4333C16.32 18.5717 16.32 17.16 14.91 16.2983C13.32 15.3267 10.69 15.3267 9.09 16.2983Z" stroke="#292D32" stroke-width="1.5" stroke-linecap="round" stroke-linejoin="round"/>
</svg>
