<svg width="22" height="22" viewBox="0 0 22 22" fill="none" xmlns="http://www.w3.org/2000/svg">
<path d="M9.03833 17.4166L10.5783 16.115C10.8075 15.9225 11.1925 15.9225 11.4308 16.115L12.9617 17.4166C13.3192 17.6 13.7592 17.4166 13.8875 17.0316L14.1808 16.1516C14.2542 15.9408 14.1808 15.6291 14.025 15.4733L12.5217 13.9608C12.4117 13.8508 12.3292 13.64 12.3292 13.4933V11.7975C12.3292 11.4125 12.6133 11.2291 12.9708 11.3758L16.0417 12.6958C16.5458 12.9158 16.9675 12.6408 16.9675 12.0908V11.2383C16.9675 10.7983 16.6375 10.285 16.225 10.1108L12.6133 8.55247C12.4575 8.4883 12.3383 8.2958 12.3383 8.1308V6.2333C12.3383 5.60997 11.88 4.87664 11.33 4.59247C11.1283 4.49164 10.8992 4.49164 10.6975 4.59247C10.1383 4.86747 9.68916 5.60997 9.68916 6.2333V8.1308C9.68916 8.2958 9.56083 8.4883 9.41416 8.55247L5.8025 10.1108C5.39916 10.285 5.06 10.7983 5.06 11.2383V12.0908C5.06 12.6408 5.4725 12.9158 5.98583 12.6958L9.05666 11.3758C9.405 11.22 9.69833 11.4125 9.69833 11.7975V13.4933C9.69833 13.6491 9.60666 13.86 9.50583 13.9608L7.975 15.4641C7.81916 15.62 7.74583 15.9316 7.81916 16.1425L8.1125 17.0225C8.24083 17.4166 8.67166 17.6 9.03833 17.4166Z" stroke="#292D32" stroke-width="1.5" stroke-linecap="round" stroke-linejoin="round"/>
<path d="M8.25001 20.1666H13.75C18.3333 20.1666 20.1667 18.3333 20.1667 13.7499V8.24992C20.1667 3.66659 18.3333 1.83325 13.75 1.83325H8.25001C3.66668 1.83325 1.83334 3.66659 1.83334 8.24992V13.7499C1.83334 18.3333 3.66668 20.1666 8.25001 20.1666Z" stroke="#292D32" stroke-width="1.5" stroke-linecap="round" stroke-linejoin="round"/>
</svg>
