<svg width="22" height="22" viewBox="0 0 22 22" fill="none" xmlns="http://www.w3.org/2000/svg">
<path d="M11 11C13.5313 11 15.5833 8.94801 15.5833 6.41671C15.5833 3.8854 13.5313 1.83337 11 1.83337C8.46865 1.83337 6.41663 3.8854 6.41663 6.41671C6.41663 8.94801 8.46865 11 11 11Z" stroke="currentColor" stroke-width="1.5" stroke-linecap="round" stroke-linejoin="round"/>
<path d="M17.6092 14.4284L14.3641 17.6734C14.2358 17.8017 14.1167 18.04 14.0892 18.2142L13.915 19.4517C13.8508 19.9008 14.1625 20.2125 14.6117 20.1483L15.8491 19.9742C16.0233 19.9467 16.2708 19.8275 16.39 19.6992L19.635 16.4542C20.1941 15.895 20.46 15.2442 19.635 14.4192C18.8191 13.6033 18.1683 13.8692 17.6092 14.4284Z" stroke="currentColor" stroke-width="1.5" stroke-miterlimit="10" stroke-linecap="round" stroke-linejoin="round"/>
<path d="M17.1417 14.8959C17.4167 15.8859 18.1867 16.6558 19.1767 16.9308" stroke="currentColor" stroke-width="1.5" stroke-miterlimit="10" stroke-linecap="round" stroke-linejoin="round"/>
<path d="M3.12585 20.1667C3.12585 16.6192 6.65505 13.75 11 13.75C11.9534 13.75 12.87 13.8875 13.7225 14.1442" stroke="currentColor" stroke-width="1.5" stroke-linecap="round" stroke-linejoin="round"/>
</svg>
