<svg width="22" height="22" viewBox="0 0 22 22" fill="none" xmlns="http://www.w3.org/2000/svg">
<path d="M8.77249 11.4216L5.97665 14.2175" stroke="#292D32" stroke-width="1.5" stroke-miterlimit="10" stroke-linecap="round" stroke-linejoin="round"/>
<path d="M6.00418 11.4492L8.80001 14.2451" stroke="#292D32" stroke-width="1.5" stroke-miterlimit="10" stroke-linecap="round" stroke-linejoin="round"/>
<path d="M12.4025 12.8333H12.4125" stroke="#292D32" stroke-width="2" stroke-miterlimit="10" stroke-linecap="round" stroke-linejoin="round"/>
<path d="M16.0142 12.8333H16.0242" stroke="#292D32" stroke-width="2" stroke-miterlimit="10" stroke-linecap="round" stroke-linejoin="round"/>
<path d="M14.2083 14.6499V14.6299" stroke="#292D32" stroke-width="2" stroke-miterlimit="10" stroke-linecap="round" stroke-linejoin="round"/>
<path d="M14.2083 11.0383V11.0183" stroke="#292D32" stroke-width="2" stroke-miterlimit="10" stroke-linecap="round" stroke-linejoin="round"/>
<path d="M8.25001 20.1667H13.75C18.3333 20.1667 20.1667 18.3333 20.1667 13.75V11.9167C20.1667 7.33333 18.3333 5.5 13.75 5.5H8.25001C3.66668 5.5 1.83334 7.33333 1.83334 11.9167V13.75C1.83334 18.3333 3.66668 20.1667 8.25001 20.1667Z" stroke="#292D32" stroke-width="1.5" stroke-linecap="round" stroke-linejoin="round"/>
<path d="M11.9258 1.83325L11.9167 2.75909C11.9075 3.26325 11.5042 3.66659 11 3.66659H10.9725C10.4683 3.66659 10.065 4.07909 10.065 4.58325C10.065 5.08742 10.4775 5.49992 10.9817 5.49992H11.8983" stroke="#292D32" stroke-width="1.5" stroke-linecap="round" stroke-linejoin="round"/>
</svg>
