<svg width="22" height="22" viewBox="0 0 22 22" fill="none" xmlns="http://www.w3.org/2000/svg">
<path d="M8.25004 20.1667H13.75C18.3334 20.1667 20.1667 18.3334 20.1667 13.75V8.25004C20.1667 3.66671 18.3334 1.83337 13.75 1.83337H8.25004C3.66671 1.83337 1.83337 3.66671 1.83337 8.25004V13.75C1.83337 18.3334 3.66671 20.1667 8.25004 20.1667Z" stroke="#292D32" stroke-width="1.5" stroke-linecap="round" stroke-linejoin="round"/>
<path d="M16.8483 13.9975V6.9483C16.8483 6.24247 16.28 5.72914 15.5833 5.78414H15.5466C14.3183 5.88498 12.4575 6.51749 11.4125 7.16832L11.3116 7.23249C11.1466 7.33333 10.8624 7.33333 10.6883 7.23249L10.5416 7.14082C9.50578 6.48999 7.64495 5.8758 6.41662 5.77497C5.71995 5.71997 5.15161 6.24249 5.15161 6.93915V13.9975C5.15161 14.5566 5.60993 15.0883 6.1691 15.1525L6.33409 15.18C7.59909 15.345 9.56081 15.9958 10.6791 16.61L10.7066 16.6192C10.8624 16.7108 11.1191 16.7108 11.2658 16.6192C12.3841 15.9958 14.3549 15.3541 15.6291 15.18L15.8216 15.1525C16.39 15.0883 16.8483 14.5658 16.8483 13.9975Z" stroke="#292D32" stroke-width="1.5" stroke-linecap="round" stroke-linejoin="round"/>
<path d="M11 7.42493V16.1883" stroke="#292D32" stroke-width="1.5" stroke-linecap="round" stroke-linejoin="round"/>
</svg>
