<svg width="22" height="22" viewBox="0 0 22 22" fill="none" xmlns="http://www.w3.org/2000/svg">
<path d="M19.3233 7.86507V14.135C19.3233 15.1617 18.7733 16.1151 17.8841 16.6376L12.4391 19.7817C11.55 20.2951 10.45 20.2951 9.55165 19.7817L4.10665 16.6376C3.21748 16.1242 2.66748 15.1709 2.66748 14.135V7.86507C2.66748 6.83841 3.21748 5.88503 4.10665 5.36253L9.55165 2.21837C10.4408 1.70504 11.5408 1.70504 12.4391 2.21837L17.8841 5.36253C18.7733 5.88503 19.3233 6.82924 19.3233 7.86507Z" stroke="#292D32" stroke-width="1.5" stroke-linecap="round" stroke-linejoin="round"/>
<path d="M11.0001 10.0833C12.1797 10.0833 13.1359 9.12703 13.1359 7.94744C13.1359 6.76785 12.1797 5.81165 11.0001 5.81165C9.8205 5.81165 8.86426 6.76785 8.86426 7.94744C8.86426 9.12703 9.8205 10.0833 11.0001 10.0833Z" stroke="#292D32" stroke-width="1.5" stroke-linecap="round" stroke-linejoin="round"/>
<path d="M14.6667 15.2716C14.6667 13.6216 13.0259 12.2833 11 12.2833C8.97421 12.2833 7.33337 13.6216 7.33337 15.2716" stroke="#292D32" stroke-width="1.5" stroke-linecap="round" stroke-linejoin="round"/>
</svg>
