<svg width="40" height="40" viewBox="0 0 40 40" fill="none" xmlns="http://www.w3.org/2000/svg">
<g clip-path="url(#clip0_125_500)">
<path d="M36.25 0.625H3.75V19.375H36.25V0.625ZM35 1.875V15.625H32.5V13.125H26.25V15.625H5V1.875H35ZM31.25 15.625H27.5V14.375H31.25V15.625ZM5 18.125V16.875H35V18.125H5Z" fill="#005CE3"/>
<path d="M40 23.125H36.25C36.2495 22.6279 36.0517 22.1513 35.7002 21.7998C35.3487 21.4483 34.8721 21.2505 34.375 21.25H26.875C26.3779 21.2505 25.9013 21.4483 25.5498 21.7998C25.1983 22.1513 25.0005 22.6279 25 23.125H21.25V26.875H22.5V36.875H23.75V26.875H25.1152C25.2436 27.2395 25.4817 27.5554 25.7968 27.7792C26.1119 28.003 26.4885 28.1238 26.875 28.125H27.5V31.25H25V35H26.25V39.375H27.5V35H33.75V39.375H35V35H36.25V31.25H33.75V28.125H34.375C34.7615 28.1238 35.1381 28.003 35.4532 27.7792C35.7683 27.5554 36.0064 27.2395 36.1348 26.875H37.5V36.875H38.75V26.875H40V23.125ZM22.5 24.375H25V25.625H22.5V24.375ZM35 33.75H26.25V32.5H35V33.75ZM32.5 31.25H28.75V28.125H32.5V31.25ZM35 26.25C34.9999 26.4157 34.934 26.5746 34.8168 26.6918C34.6996 26.809 34.5407 26.8749 34.375 26.875H26.875C26.7093 26.8749 26.5504 26.809 26.4332 26.6918C26.316 26.5746 26.2501 26.4157 26.25 26.25V23.125C26.2501 22.9593 26.316 22.8004 26.4332 22.6832C26.5504 22.566 26.7093 22.5001 26.875 22.5H34.375C34.5407 22.5001 34.6996 22.566 34.8168 22.6832C34.934 22.8004 34.9999 22.9593 35 23.125V26.25ZM38.75 25.625H36.25V24.375H38.75V25.625Z" fill="#005CE3"/>
<path d="M13.125 21.25H5.625C5.12789 21.2505 4.65129 21.4483 4.29978 21.7998C3.94827 22.1513 3.75055 22.6279 3.75 23.125H0V26.875H1.25V36.875H2.5V26.875H3.86519C3.99359 27.2395 4.23168 27.5554 4.54677 27.7792C4.86186 28.003 5.23851 28.1238 5.625 28.125H6.25V31.25H3.75V35H5V39.375H6.25V35H12.5V39.375H13.75V35H15V31.25H12.5V28.125H13.125C13.5115 28.1238 13.8881 28.003 14.2032 27.7792C14.5183 27.5554 14.7564 27.2395 14.8848 26.875H16.25V36.875H17.5V26.875H18.75V23.125H15C14.9995 22.6279 14.8017 22.1513 14.4502 21.7998C14.0987 21.4483 13.6221 21.2505 13.125 21.25ZM1.25 24.375H3.75V25.625H1.25V24.375ZM13.75 33.75H5V32.5H13.75V33.75ZM11.25 31.25H7.5V28.125H11.25V31.25ZM13.75 26.25C13.7499 26.4157 13.684 26.5746 13.5668 26.6918C13.4496 26.809 13.2907 26.8749 13.125 26.875H5.625C5.45929 26.8749 5.3004 26.809 5.18322 26.6918C5.06604 26.5746 5.00015 26.4157 5 26.25V23.125C5.00015 22.9593 5.06604 22.8004 5.18322 22.6832C5.3004 22.566 5.45929 22.5001 5.625 22.5H13.125C13.2907 22.5001 13.4496 22.566 13.5668 22.6832C13.684 22.8004 13.7499 22.9593 13.75 23.125V26.25ZM17.5 24.375V25.625H15V24.375H17.5Z" fill="#005CE3"/>
</g>
<defs>
<clipPath id="clip0_125_500">
<rect width="40" height="40" fill="white"/>
</clipPath>
</defs>
</svg>
