<svg width="40" height="40" viewBox="0 0 40 40" fill="none" xmlns="http://www.w3.org/2000/svg">
<g clip-path="url(#clip0_125_504)">
<path d="M39.3894 21.2499L39.4 21.2449C39.5617 21.2402 39.7154 21.173 39.8285 21.0573C39.9417 20.9417 40.0056 20.7867 40.0069 20.6249C40.0078 20.5431 39.9925 20.462 39.9618 20.3862C39.9312 20.3104 39.8858 20.2415 39.8283 20.1834C39.7708 20.1252 39.7023 20.0791 39.6269 20.0476C39.5514 20.0161 39.4705 19.9999 39.3887 19.9999C39.2125 19.9436 38.75 19.183 38.75 17.8124C38.75 16.4418 39.2131 15.6811 39.3894 15.6249L39.3981 15.6205C39.5515 15.6096 39.6954 15.5425 39.8024 15.4322C39.9094 15.3218 39.972 15.1759 39.9782 15.0223C39.9844 14.8686 39.9338 14.7181 39.836 14.5995C39.7382 14.4809 39.6001 14.4025 39.4481 14.3793L19.305 12.0105C18.5209 11.9174 17.7285 11.9174 16.9444 12.0105L2.42563 13.7543H2.41625C1.24062 13.8355 0.625 15.5193 0.625 17.1874C0.584108 18.1792 0.845669 19.1601 1.375 19.9999C0.845486 20.8396 0.583909 21.8205 0.625 22.8124C0.591431 23.7671 0.829858 24.7117 1.3125 25.5361C0.449375 26.4049 0 28.2074 0 29.9999C0 32.4636 0.844375 34.958 2.45875 34.9999L23.6769 37.4961C23.7011 37.4989 23.7256 37.5002 23.75 37.4999C23.7749 37.5 23.7997 37.4986 23.8244 37.4955L28.75 36.9043V39.3749C28.75 39.5116 28.7947 39.6446 28.8775 39.7534C28.9602 39.8622 29.0764 39.9409 29.2081 39.9774C29.2625 39.9922 29.3186 39.9998 29.375 39.9999C29.4828 39.9999 29.5889 39.9719 29.6827 39.9188C29.7766 39.8657 29.8551 39.7892 29.9106 39.6968L31.3075 37.3686L32.625 39.1249C32.7037 39.2298 32.8134 39.3074 32.9386 39.3465C33.0639 39.3856 33.1982 39.3843 33.3226 39.3428C33.4471 39.3013 33.5553 39.2218 33.632 39.1153C33.7087 39.0089 33.75 38.8811 33.75 38.7499V36.3049L39.4494 35.6205C39.6077 35.6017 39.7528 35.5231 39.855 35.4008C39.9573 35.2785 40.0089 35.1218 39.9994 34.9626C39.9899 34.8035 39.92 34.654 39.8039 34.5448C39.6878 34.4355 39.5344 34.3748 39.375 34.3749C38.9375 34.3749 38.125 32.9511 38.125 30.6249C38.125 28.3186 38.8925 26.9836 39.375 26.8749C39.5415 26.8754 39.7015 26.8099 39.8199 26.6928C39.9383 26.5757 40.0056 26.4164 40.0069 26.2499C40.0082 26.0971 39.9529 25.9492 39.8517 25.8348C39.7505 25.7203 39.6105 25.6473 39.4587 25.6299C39.4341 25.627 39.4092 25.6253 39.3844 25.6249C39.205 25.5561 38.75 24.7974 38.75 23.4374C38.75 22.0624 39.2131 21.3061 39.3894 21.2499ZM20.1794 35.8255C19.5894 34.642 19.3124 33.3271 19.375 32.0061C19.3293 30.738 19.5758 29.4763 20.0956 28.3186L22.1537 28.5605C21.516 29.7731 21.2045 31.1306 21.25 32.4999C21.2288 33.7126 21.463 34.9162 21.9375 36.0324L20.1794 35.8255ZM17.6569 35.5286C17.0864 34.3514 16.8177 33.0506 16.875 31.7436C16.8248 30.4647 17.0789 29.1921 17.6163 28.0305L18.785 28.168C18.3198 29.3929 18.0957 30.6962 18.125 32.0061C18.1055 33.2474 18.3058 34.4823 18.7169 35.6536L17.6569 35.5286ZM7.55437 34.3411C7.07838 33.2154 6.85091 32.0003 6.8875 30.7786C6.81443 29.4223 7.11538 28.0719 7.7575 26.8749L16.2344 27.8705C16.2531 27.8705 16.27 27.8818 16.2887 27.8818C16.2935 27.8821 16.2983 27.8821 16.3031 27.8818C15.8291 29.113 15.5988 30.4246 15.625 31.7436C15.6069 32.9729 15.8028 34.1959 16.2038 35.358L7.55437 34.3411ZM5.05875 34.048C4.57801 32.9199 4.34894 31.7006 4.3875 30.4749C4.31348 29.1213 4.61178 27.7733 5.25 26.5774L6.41375 26.7143C5.86526 27.9967 5.59965 29.3824 5.635 30.7768C5.62038 31.929 5.78916 33.0763 6.135 34.1755L5.05875 34.048ZM2.51375 24.9999C2.3375 24.9436 1.875 24.183 1.875 22.8124C1.875 21.4536 2.32875 20.6961 2.495 20.6286L5.45563 20.9736C5.46625 20.9736 5.47437 20.9818 5.48438 20.983L18.0556 22.458C17.7759 23.2757 17.6408 24.1358 17.6562 24.9999C17.6546 25.6054 17.7194 26.2092 17.8494 26.8005L16.6537 26.6605C16.3603 25.9354 16.2228 25.1567 16.25 24.3749C16.2494 24.0016 16.2914 23.6294 16.375 23.2655C16.3935 23.1855 16.396 23.1027 16.3825 23.0217C16.3689 22.9408 16.3395 22.8633 16.296 22.7937C16.2525 22.724 16.1958 22.6637 16.1289 22.616C16.0621 22.5683 15.9865 22.5343 15.9066 22.5158C15.8266 22.4974 15.7437 22.4948 15.6628 22.5084C15.5818 22.5219 15.5043 22.5513 15.4347 22.5948C15.3651 22.6383 15.3047 22.6951 15.2571 22.7619C15.2094 22.8287 15.1753 22.9043 15.1569 22.9843C15.0523 23.4404 14.9997 23.9069 15 24.3749C14.9932 25.0923 15.0847 25.8073 15.2719 26.4999L7.52938 25.5899H7.51625L5.025 25.2961C5.01937 25.2961 5.01437 25.2961 5.00875 25.2961L2.51375 24.9999ZM6.025 15.4174L8.45187 15.7018H8.45813L22.3456 17.3386C22.0209 18.0784 21.8604 18.8797 21.875 19.6874C21.8699 20.3679 21.9809 21.0442 22.2031 21.6874L8.67625 20.0993C8.50996 19.4546 8.42968 18.7907 8.4375 18.1249C8.43661 17.7338 8.46062 17.343 8.50937 16.9549C8.51988 16.8735 8.51425 16.7908 8.49279 16.7115C8.47134 16.6323 8.43449 16.5581 8.38435 16.4931C8.33421 16.4281 8.27175 16.3736 8.20055 16.3327C8.12935 16.2918 8.05079 16.2654 7.96938 16.2549C7.88796 16.2444 7.80526 16.25 7.72602 16.2715C7.64678 16.2929 7.57254 16.3298 7.50754 16.3799C7.44254 16.4301 7.38805 16.4925 7.34718 16.5637C7.30632 16.6349 7.27988 16.7135 7.26937 16.7949C7.21387 17.236 7.18652 17.6803 7.1875 18.1249C7.18564 18.7356 7.24278 19.3451 7.35812 19.9449L5.96313 19.7811C5.71551 19.0469 5.60101 18.2744 5.625 17.4999C5.62432 16.7866 5.76009 16.0797 6.025 15.4174ZM23.75 17.4999C23.7747 17.5 23.7993 17.4985 23.8237 17.4955L37.8237 15.8174C37.6035 16.4592 37.494 17.1338 37.5 17.8124C37.485 18.6218 37.6465 19.4248 37.9731 20.1655L23.7569 21.8693C23.5756 21.7974 23.125 21.0455 23.125 19.6874C23.125 18.3168 23.5875 17.5561 23.75 17.4999ZM19.1875 26.9574C18.9933 26.3233 18.8984 25.663 18.9062 24.9999C18.8621 24.1785 19.0192 23.3587 19.3638 22.6118L22.3475 22.9618C22.0215 23.7018 21.8603 24.5039 21.875 25.3124C21.8699 25.9929 21.9809 26.6692 22.2031 27.3124L19.1875 26.9574ZM23.7588 27.4949C23.5763 27.423 23.125 26.6711 23.125 25.3124C23.125 23.9418 23.5875 23.1811 23.75 23.1249C23.7749 23.125 23.7997 23.1236 23.8244 23.1205L37.8244 21.4424C37.6039 22.0842 37.4942 22.7588 37.5 23.4374C37.4878 24.2474 37.6542 25.0502 37.9875 25.7886L23.7588 27.4949ZM17.0925 13.2499C17.7786 13.1686 18.472 13.1686 19.1581 13.2499L34.0831 15.0049L23.75 16.2455L8.60437 14.4605H8.59813L7.805 14.3674L17.0925 13.2499ZM2.49187 14.9999L4.74687 15.2643C4.50111 15.984 4.37547 16.7393 4.375 17.4999C4.36914 18.2126 4.44739 18.9236 4.60813 19.618L2.51375 19.3749C2.3375 19.3186 1.875 18.558 1.875 17.1874C1.875 15.8386 2.3225 15.0811 2.49187 15.003V14.9999ZM2.5 33.7499C2.0625 33.7499 1.25 32.3261 1.25 29.9999C1.25 27.6874 2.04875 26.2711 2.49062 26.253L3.91187 26.4199C3.36664 27.7006 3.10257 29.0834 3.1375 30.4749C3.12341 31.6296 3.29411 32.7791 3.64313 33.8799L2.57313 33.7549C2.54888 33.7517 2.52446 33.75 2.5 33.7499ZM31.75 35.8749C31.6892 35.7921 31.6086 35.7258 31.5155 35.6822C31.4225 35.6385 31.3201 35.6188 31.2175 35.6249C31.1158 35.6308 31.0171 35.6614 30.93 35.7141C30.8428 35.7668 30.7699 35.84 30.7175 35.9274L30 37.1186V31.7574L32.5 31.4561V36.8749L31.75 35.8749ZM33.75 35.0455V31.3055L34.1425 31.258C34.3072 31.2384 34.4573 31.1541 34.5599 31.0238C34.6624 30.8934 34.709 30.7277 34.6894 30.563C34.6697 30.3983 34.5855 30.2482 34.4551 30.1456C34.3248 30.0431 34.1591 29.9965 33.9944 30.0161L33.0569 30.1299H33.0525L29.3025 30.5799C29.2956 30.5799 29.29 30.5849 29.2831 30.5855L28.5044 30.6799C28.3463 30.6987 28.2013 30.7771 28.0991 30.8991C27.9969 31.0212 27.945 31.1776 27.9542 31.3365C27.9634 31.4955 28.0329 31.6449 28.1485 31.7544C28.264 31.8638 28.4171 31.925 28.5763 31.9255C28.6009 31.9256 28.6255 31.9241 28.65 31.9211L28.75 31.9086V35.6455L23.75 36.2455L23.695 36.2393C23.2638 36.1349 22.5 34.8018 22.5 32.4999C22.5 30.1736 23.3125 28.7499 23.75 28.7499C23.7749 28.75 23.7997 28.7486 23.8244 28.7455L37.5625 27.0986C37.0887 28.2129 36.8545 29.4143 36.875 30.6249C36.8298 31.993 37.1396 33.3496 37.7744 34.5624L33.75 35.0455Z" fill="#FF985C"/>
</g>
<defs>
<clipPath id="clip0_125_504">
<rect width="40" height="40" fill="white"/>
</clipPath>
</defs>
</svg>
