<svg width="40" height="40" viewBox="0 0 40 40" fill="none" xmlns="http://www.w3.org/2000/svg">
<g clip-path="url(#clip0_125_469)">
<path d="M10.3249 10.2642C10.6485 10.2642 10.9108 10.0018 10.9108 9.67824V8.44418C10.9108 7.90566 11.3489 7.46762 11.8874 7.46762H13.9478V8.46856C13.9478 9.07379 14.3282 9.62441 14.8942 9.83879C16.553 10.4669 18.296 10.7811 20.039 10.7811C21.7821 10.7811 23.525 10.4669 25.1839 9.83879C25.7499 9.62441 26.1301 9.07379 26.1301 8.46856V7.46762H28.1906C28.7291 7.46762 29.1671 7.90566 29.1671 8.44418V9.67824C29.1671 10.0018 29.4295 10.2642 29.7531 10.2642C30.0767 10.2642 30.339 10.0018 30.339 9.67824V8.44418C30.339 7.25949 29.3753 6.29574 28.1906 6.29574H26.1301V5.20324L27.8432 4.54332C28.1809 4.41395 28.3995 4.09676 28.4 3.7352C28.4005 3.37332 28.1825 3.05504 27.8441 2.92434L25.1558 1.88918C24.8539 1.77293 24.5147 1.9234 24.3985 2.22543C24.2822 2.52746 24.4327 2.86652 24.7347 2.98277L26.6848 3.73371L20.0391 6.29387L13.3932 3.73363L20.0391 1.17348L22.1832 1.99918C22.485 2.11535 22.8242 1.96496 22.9406 1.66293C23.0568 1.36098 22.9064 1.02184 22.6043 0.905586L20.4512 0.0763672C20.1856 -0.0254297 19.8928 -0.0255859 19.6261 0.0766797L12.2335 2.92457C11.8957 3.05504 11.6777 3.37332 11.6782 3.7352C11.6788 4.09676 11.8973 4.41395 12.234 4.54285L13.9479 5.20309V6.29566H11.8875C10.7028 6.29566 9.73901 7.25941 9.73901 8.4441V9.67816C9.73894 10.0018 10.0013 10.2642 10.3249 10.2642ZM19.6242 7.38988C19.7582 7.44199 19.899 7.46809 20.0396 7.46801C20.1796 7.46801 20.3195 7.44215 20.4521 7.39059L24.9582 5.65473V8.46856C24.9582 8.58973 24.8821 8.69996 24.7689 8.74285C21.7189 9.89785 18.3593 9.89793 15.3092 8.74285C15.1958 8.69996 15.1197 8.58973 15.1197 8.46856V5.65457L19.6242 7.38988Z" fill="#00B865"/>
<path d="M37.3281 31.9181V23.5375C37.3281 23.2139 37.0658 22.9516 36.7422 22.9516C36.4186 22.9516 36.1562 23.2139 36.1562 23.5375V30.9724C36.0181 30.8966 35.8749 30.8277 35.7267 30.7664L34.6074 30.3037C34.6381 30.1308 34.6312 29.9499 34.5825 29.7713C34.4664 29.345 34.1414 29.0255 33.7132 28.9168L31.9928 28.4798V26.5864C33.7829 25.2287 34.876 23.0938 34.876 20.7823V19.2195C34.876 18.9159 34.644 18.6625 34.3414 18.6359C32.855 18.5051 31.4561 17.8513 30.4025 16.7948L29.4797 15.8695V12.6987C29.9161 12.5077 30.3898 12.4062 30.8687 12.4062C31.4641 12.4062 32.0528 12.561 32.5712 12.854C33.6576 13.4673 34.5648 14.3615 35.1945 15.4398C35.8236 16.5183 36.1561 17.748 36.1561 18.9961V20.8031C36.1561 21.1267 36.4184 21.3891 36.742 21.3891C37.0656 21.3891 37.3279 21.1267 37.3279 20.8031V18.9961C37.3279 17.5409 36.9403 16.107 36.2066 14.8491C35.4722 13.5914 34.4143 12.5487 33.1475 11.8337C32.4537 11.4416 31.6657 11.2344 30.8686 11.2344C30.1856 11.2344 29.509 11.3863 28.8936 11.6759C28.2781 11.3862 27.6016 11.2344 26.9186 11.2344C26.1215 11.2344 25.3334 11.4416 24.6399 11.8335C22.0612 13.2895 20.4592 16.0341 20.4592 18.9961V25.825C20.4592 26.1486 20.7215 26.4109 21.0451 26.4109C21.3687 26.4109 21.6311 26.1486 21.6311 25.825V18.9961C21.6311 16.4561 23.0047 14.1026 25.2162 12.8538C25.7344 12.561 26.3231 12.4062 26.9186 12.4062C27.3975 12.4062 27.8712 12.5077 28.3077 12.6988V15.8695L27.3849 16.7948C26.3313 17.8513 24.9324 18.5051 23.446 18.6359C23.1434 18.6625 22.9114 18.9159 22.9114 19.2195V20.7822C22.9114 23.0937 24.0044 25.2287 25.7946 26.5863V28.4797L24.0742 28.9167C23.646 29.0255 23.321 29.3449 23.2049 29.7712C23.1562 29.9498 23.1493 30.1307 23.18 30.3036L22.0607 30.7664C21.9125 30.8277 21.7692 30.8966 21.631 30.9724V28.5594C21.631 28.2358 21.3687 27.9734 21.0451 27.9734C20.7215 27.9734 20.4591 28.2358 20.4591 28.5594V31.9183C20.2864 32.1173 20.1326 32.3316 19.9997 32.5586C19.5379 31.7697 18.8251 31.1329 17.9389 30.7664L16.8196 30.3037C16.8503 30.1308 16.8433 29.9499 16.7947 29.7713C16.6786 29.345 16.3536 29.0255 15.9254 28.9168L14.205 28.4798V26.5864C15.9731 25.2454 17.0601 23.1459 17.0866 20.8673H17.4522C17.9594 20.8673 18.3774 20.4863 18.4247 19.9802C18.4601 19.5831 18.5226 19.0232 18.517 18.6337C18.517 14.5538 15.1925 11.2345 11.1061 11.2345C9.55334 11.2345 8.06818 11.7084 6.81107 12.6051C6.54764 12.793 6.48639 13.1589 6.67436 13.4223C6.86232 13.6858 7.22811 13.747 7.49162 13.5591C8.54889 12.8048 9.79873 12.4062 11.1061 12.4062C14.5463 12.4062 17.3451 15.1998 17.3451 18.6336C17.3494 18.9471 17.3033 19.3754 17.274 19.6953H13.008L11.6397 16.6761C11.5448 16.4666 11.3362 16.332 11.1062 16.332C10.8762 16.332 10.6674 16.4666 10.5724 16.676L9.20357 19.6953H4.93826L4.89436 19.218C4.76943 17.8653 5.07701 16.541 5.78381 15.3883C5.95303 15.1124 5.86646 14.7516 5.59061 14.5825C5.31475 14.4133 4.95396 14.4998 4.78482 14.7757C3.94475 16.1458 3.57904 17.7191 3.7274 19.3255L3.78764 19.981C3.83482 20.4862 4.25287 20.8672 4.76014 20.8672H5.12553C5.15201 23.1459 6.23904 25.2453 8.00717 26.5863V28.4797L6.28678 28.9167C5.85857 29.0255 5.53357 29.3449 5.41748 29.7712C5.36881 29.9498 5.36186 30.1307 5.39256 30.3036L4.27326 30.7664C2.66537 31.4312 1.62646 32.985 1.62646 34.7249V39.414C1.62646 39.7376 1.88881 39.9999 2.2124 39.9999C2.536 39.9999 2.79834 39.7376 2.79834 39.414V34.7249C2.79834 33.461 3.55303 32.3323 4.72107 31.8493L6.07686 31.2887L8.69686 33.8837C8.81107 33.9968 8.96014 34.0533 9.1092 34.0533C9.25912 34.0533 9.40912 33.996 9.5235 33.8816L10.5203 32.8848V39.4141C10.5203 39.7377 10.7826 40 11.1062 40C11.4298 40 11.6922 39.7377 11.6922 39.4141V32.8849L12.689 33.8818C12.8034 33.9962 12.9533 34.0534 13.1033 34.0534C13.2524 34.0534 13.4015 33.9969 13.5157 33.8838L16.1356 31.2889L17.4914 31.8495C18.6594 32.3324 19.4141 33.4612 19.4141 34.7251V39.4141C19.4141 39.7377 19.6765 40.0001 20.0001 40.0001C20.3237 40.0001 20.586 39.7377 20.586 39.4141V34.7251C20.586 33.4612 21.3407 32.3324 22.5087 31.8495L23.8645 31.2889L26.4844 33.8837C26.5986 33.9969 26.7476 34.0534 26.8967 34.0534C27.0466 34.0534 27.1966 33.9961 27.311 33.8817L28.3079 32.8848V39.4141C28.3079 39.7377 28.5702 40 28.8938 40C29.2174 40 29.4797 39.7377 29.4797 39.4141V32.8849L30.4765 33.8818C30.5909 33.9962 30.7408 34.0534 30.8908 34.0534C31.0399 34.0534 31.189 33.9969 31.3032 33.8838L33.9232 31.2889L35.279 31.8495C36.447 32.3324 37.2017 33.4611 37.2017 34.7251V39.4141C37.2017 39.7377 37.464 40.0001 37.7876 40.0001C38.1112 40.0001 38.3736 39.7377 38.3736 39.4141V34.7251C38.3736 33.668 37.9896 32.6802 37.3281 31.9181ZM6.2974 20.8672H9.58123C9.81115 20.8672 10.0199 20.7327 10.1149 20.5232L11.1062 18.3371L12.0969 20.523C12.1918 20.7326 12.4005 20.8671 12.6305 20.8671H15.915C15.8818 23.264 14.4512 25.4234 12.2497 26.3849C11.523 26.7023 10.6894 26.7023 9.96279 26.3849C7.76123 25.4236 6.33061 23.2641 6.2974 20.8672ZM9.49373 27.459C10.0061 27.6827 10.5562 27.7946 11.1062 27.7946C11.6562 27.7946 12.2062 27.6827 12.7187 27.459C12.8253 27.4124 12.9297 27.3627 13.0333 27.3115V28.6942L11.1062 30.6381L9.17904 28.6942V27.3115C9.28264 27.3627 9.38717 27.4124 9.49373 27.459ZM9.10709 32.6409L6.55803 30.1161C6.55139 30.1096 6.54232 30.1005 6.54811 30.0793C6.55389 30.058 6.56623 30.0549 6.57529 30.0526L8.41279 29.5858L10.2794 31.4686L9.10709 32.6409ZM13.1053 32.6409L11.933 31.4686L13.7996 29.5858L15.6371 30.0526C15.6462 30.0548 15.6585 30.058 15.6643 30.0793C15.6701 30.1005 15.661 30.1096 15.6544 30.1162L13.1053 32.6409ZM24.0835 20.7822V19.7367C25.6431 19.4855 27.0939 18.7463 28.2149 17.6223L28.8938 16.9415L29.5727 17.6223C30.6937 18.7463 32.1445 19.4856 33.7041 19.7367V20.7822C33.7041 23.213 32.2647 25.4122 30.0372 26.3851C29.3106 26.7024 28.4769 26.7024 27.7504 26.3851C25.5229 25.4122 24.0835 23.213 24.0835 20.7822ZM27.2814 27.459C27.7937 27.6827 28.3438 27.7946 28.8938 27.7946C29.4438 27.7946 29.9939 27.6827 30.5062 27.459C30.6129 27.4124 30.7173 27.3627 30.8208 27.3115V28.6942L28.8937 30.6381L26.9666 28.6942V27.3115C27.0702 27.3627 27.1747 27.4124 27.2814 27.459ZM26.8947 32.6409L24.3457 30.1161C24.339 30.1096 24.33 30.1005 24.3358 30.0793C24.3415 30.058 24.3539 30.0549 24.3629 30.0526L26.2004 29.5858L28.067 31.4686L26.8947 32.6409ZM30.8929 32.6409L29.7207 31.4686L31.5872 29.5858L33.4247 30.0526C33.4338 30.0548 33.4462 30.058 33.4519 30.0793C33.4577 30.1005 33.4487 30.1096 33.442 30.1162L30.8929 32.6409Z" fill="#00B865"/>
<path d="M27.5145 24.2146C27.9399 24.4573 28.4169 24.5786 28.8938 24.5786C29.3708 24.5786 29.8478 24.4573 30.2732 24.2146C30.5543 24.0543 30.6522 23.6964 30.4919 23.4154C30.3316 23.1342 29.9737 23.0364 29.6927 23.1967C29.1999 23.4778 28.5877 23.4778 28.0951 23.1967C27.814 23.0364 27.4562 23.1343 27.2959 23.4154C27.1355 23.6964 27.2334 24.0542 27.5145 24.2146Z" fill="#00B865"/>
<path d="M23.3597 34.2856C23.0361 34.2856 22.7738 34.548 22.7738 34.8716V39.4142C22.7738 39.7378 23.0361 40.0001 23.3597 40.0001C23.6833 40.0001 23.9457 39.7378 23.9457 39.4142V34.8715C23.9457 34.548 23.6833 34.2856 23.3597 34.2856Z" fill="#00B865"/>
<path d="M34.4279 34.2856C34.1043 34.2856 33.8419 34.548 33.8419 34.8716V39.4142C33.8419 39.7378 34.1043 40.0001 34.4279 40.0001C34.7515 40.0001 35.0138 39.7378 35.0138 39.4142V34.8715C35.0138 34.548 34.7515 34.2856 34.4279 34.2856Z" fill="#00B865"/>
<path d="M9.72674 24.2146C10.1521 24.4573 10.6292 24.5786 11.1061 24.5786C11.5831 24.5786 12.0601 24.4573 12.4855 24.2146C12.7666 24.0543 12.8645 23.6964 12.7042 23.4154C12.5438 23.1342 12.186 23.0364 11.9049 23.1967C11.4122 23.4778 10.8 23.4778 10.3074 23.1967C10.0263 23.0364 9.66838 23.1343 9.50815 23.4154C9.34776 23.6964 9.44565 24.0542 9.72674 24.2146Z" fill="#00B865"/>
<path d="M5.57214 34.2856C5.24855 34.2856 4.98621 34.548 4.98621 34.8716V39.4142C4.98621 39.7378 5.24855 40.0001 5.57214 40.0001C5.89574 40.0001 6.15808 39.7378 6.15808 39.4142V34.8715C6.15808 34.548 5.89574 34.2856 5.57214 34.2856Z" fill="#00B865"/>
<path d="M16.6403 34.2856C16.3167 34.2856 16.0543 34.548 16.0543 34.8716V39.4142C16.0543 39.7378 16.3167 40.0001 16.6403 40.0001C16.9639 40.0001 17.2262 39.7378 17.2262 39.4142V34.8715C17.2262 34.548 16.9639 34.2856 16.6403 34.2856Z" fill="#00B865"/>
</g>
<defs>
<clipPath id="clip0_125_469">
<rect width="40" height="40" fill="white"/>
</clipPath>
</defs>
</svg>
