<svg width="40" height="40" viewBox="0 0 40 40" fill="none" xmlns="http://www.w3.org/2000/svg">
<path fill-rule="evenodd" clip-rule="evenodd" d="M10.9789 9.07199V3.72505C10.9789 3.55538 11.0463 3.39283 11.1659 3.27329C11.2859 3.15328 11.4484 3.08591 11.6181 3.08591H38.0977C38.2674 3.08591 38.4299 3.15328 38.5494 3.27329C38.6694 3.39283 38.7368 3.55538 38.7368 3.72505V23.9407C38.7368 24.1103 38.6694 24.2729 38.5494 24.3924C38.4299 24.5124 38.2674 24.5798 38.0977 24.5798H24.8846C24.5359 24.5798 24.2531 24.8628 24.2531 25.2113C24.2531 25.5599 24.536 25.8429 24.8846 25.8429H38.0977C38.6021 25.8429 39.0859 25.6424 39.4429 25.2859C39.7996 24.9288 40 24.445 40 23.9406V3.72505C40 3.22065 39.7996 2.73685 39.4429 2.3798C39.0859 2.02314 38.6021 1.82275 38.0977 1.82275C33.312 1.82275 16.4038 1.82275 11.6181 1.82275C11.1137 1.82275 10.6295 2.02321 10.2729 2.3798C9.91621 2.73685 9.71582 3.22065 9.71582 3.72505V9.07199C9.71582 9.42059 9.99877 9.70354 10.3474 9.70354C10.696 9.70354 10.9789 9.42066 10.9789 9.07199Z" fill="#835DFF"/>
<path fill-rule="evenodd" clip-rule="evenodd" d="M24.5616 28.5717V37.5456C24.5616 37.8943 24.845 38.1771 25.1932 38.1771C25.5419 38.1771 25.8247 37.8942 25.8247 37.5456V28.5717C25.8247 28.2231 25.5418 27.9402 25.1932 27.9402C24.845 27.9402 24.5616 28.2231 24.5616 28.5717Z" fill="#835DFF"/>
<path fill-rule="evenodd" clip-rule="evenodd" d="M39.3684 20.8906H32.272C31.4551 20.8906 30.7932 21.5525 30.7932 22.3694V25.2114C30.7932 25.5601 31.0762 25.843 31.4248 25.843C31.7734 25.843 32.0563 25.56 32.0563 25.2114V22.3694C32.0563 22.2502 32.1527 22.1538 32.2719 22.1538H39.3683C39.717 22.1538 39.9998 21.8708 39.9998 21.5222C39.9998 21.1736 39.717 20.8906 39.3684 20.8906Z" fill="#835DFF"/>
<path fill-rule="evenodd" clip-rule="evenodd" d="M14.746 7.34537H23.4669C23.8151 7.34537 24.0984 7.06242 24.0984 6.71382C24.0984 6.36516 23.8151 6.08228 23.4669 6.08228H14.746C14.3974 6.08228 14.1145 6.36522 14.1145 6.71382C14.1144 7.06242 14.3974 7.34537 14.746 7.34537Z" fill="#835DFF"/>
<path fill-rule="evenodd" clip-rule="evenodd" d="M14.746 10.6088H35.6408C35.9894 10.6088 36.2723 10.3258 36.2723 9.97725C36.2723 9.62905 35.9894 9.3457 35.6408 9.3457H14.746C14.3974 9.3457 14.1145 9.62905 14.1145 9.97725C14.1144 10.3258 14.3974 10.6088 14.746 10.6088Z" fill="#835DFF"/>
<path fill-rule="evenodd" clip-rule="evenodd" d="M18.5683 13.873H22.6895C23.0382 13.873 23.3211 13.59 23.3211 13.2414C23.3211 12.8927 23.0381 12.6099 22.6895 12.6099H18.5683C18.2201 12.6099 17.9368 12.8928 17.9368 13.2414C17.9368 13.59 18.2201 13.873 18.5683 13.873Z" fill="#835DFF"/>
<path fill-rule="evenodd" clip-rule="evenodd" d="M28.6883 18.3315H35.2071C35.5557 18.3315 35.8386 18.0485 35.8386 17.6999C35.8386 17.3517 35.5557 17.0684 35.2071 17.0684H28.6883C28.3396 17.0684 28.0568 17.3517 28.0568 17.6999C28.0568 18.0485 28.3397 18.3315 28.6883 18.3315Z" fill="#835DFF"/>
<path fill-rule="evenodd" clip-rule="evenodd" d="M30.2484 13.873H35.5398C35.8884 13.873 36.1713 13.59 36.1713 13.2414C36.1713 12.8927 35.8884 12.6099 35.5398 12.6099H30.2484C29.9002 12.6099 29.6168 12.8928 29.6168 13.2414C29.6168 13.59 29.9002 13.873 30.2484 13.873Z" fill="#835DFF"/>
<path fill-rule="evenodd" clip-rule="evenodd" d="M10.0744 10.4307C6.86807 10.4307 4.26514 13.0336 4.26514 16.2399C4.26514 19.4463 6.86807 22.0492 10.0744 22.0492C13.2803 22.0492 15.8837 19.4463 15.8837 16.2399C15.8837 13.0336 13.2804 10.4307 10.0744 10.4307ZM10.0744 11.6938C12.5835 11.6938 14.6205 13.7309 14.6205 16.2399C14.6205 18.749 12.5835 20.786 10.0744 20.786C7.56533 20.786 5.52829 18.749 5.52829 16.2399C5.52829 13.7309 7.5654 11.6938 10.0744 11.6938Z" fill="#835DFF"/>
<path fill-rule="evenodd" clip-rule="evenodd" d="M20.6344 21.528L18.2719 23.7945C18.1528 23.9087 17.9945 23.9722 17.8294 23.9722H6.89426C4.09933 23.9722 1.71237 25.9895 1.24627 28.7456C0.82608 31.229 0.322072 34.2101 0.0265098 35.9578C-0.0665511 36.5099 0.088 37.0749 0.449214 37.5027C0.81089 37.9305 1.34224 38.1772 1.90226 38.1772H13.6075C14.6585 38.1772 15.5103 37.3254 15.5103 36.2749V30.2981C15.5103 30.2408 15.5326 30.1861 15.573 30.1457C15.6138 30.1052 15.6686 30.0825 15.7259 30.0825H18.5318C19.8227 30.0825 21.0636 29.5836 21.9949 28.6901C22.8332 27.8859 23.9431 26.8215 24.8644 25.9372C25.4492 25.3764 25.7869 24.6063 25.8038 23.7962C25.8206 22.9945 25.5212 22.2185 24.9714 21.6358C24.9659 21.6299 24.9423 21.6054 24.9364 21.5996C24.3773 21.0261 23.6144 20.6947 22.8127 20.6779C22.0025 20.6614 21.2193 20.9667 20.6344 21.528ZM19.1465 24.7057C19.6635 24.2096 20.6383 23.2745 21.509 22.4391C21.8517 22.1103 22.3115 21.9309 22.7865 21.941C23.2568 21.9507 23.7039 22.1448 24.0319 22.4812C24.0353 22.4849 24.0492 22.4993 24.0525 22.503C24.375 22.8445 24.5507 23.2996 24.541 23.7696C24.5312 24.2449 24.333 24.6967 23.9898 25.0256C23.0685 25.9098 21.9586 26.9742 21.1203 27.7784C20.4243 28.4462 19.4967 28.8193 18.5316 28.8193C17.5906 28.8193 16.4744 28.8193 15.7257 28.8193C15.3333 28.8193 14.9573 28.9751 14.6799 29.2526C14.4028 29.5296 14.247 29.906 14.247 30.298V36.2749C14.2466 36.6277 13.9607 36.914 13.6079 36.914C13.6075 36.914 1.90219 36.914 1.90219 36.914C1.71396 36.914 1.53543 36.831 1.41417 36.6875C1.29251 36.5435 1.24073 36.3536 1.27183 36.1683L2.4916 28.9561C2.85499 26.8079 4.71562 25.2353 6.89413 25.2353H17.8293C18.3203 25.2354 18.7919 25.0454 19.1465 24.7057Z" fill="#835DFF"/>
<path fill-rule="evenodd" clip-rule="evenodd" d="M5.67187 37.6509L6.77632 31.1182C6.83444 30.7747 6.60281 30.4483 6.25884 30.3903C5.91526 30.3321 5.58892 30.5642 5.53086 30.9078L4.42641 37.4404C4.36829 37.784 4.59986 38.1103 4.9439 38.1684C5.28748 38.2265 5.61382 37.9944 5.67187 37.6509Z" fill="#835DFF"/>
<path fill-rule="evenodd" clip-rule="evenodd" d="M5.70058 34.3247H9.50016C9.61931 34.3247 9.71574 34.4211 9.71574 34.5403V37.5458C9.71574 37.8944 9.99869 38.1773 10.3473 38.1773C10.696 38.1773 10.9788 37.8943 10.9788 37.5458V34.5403C10.9788 33.7234 10.3165 33.0615 9.50009 33.0615C8.15986 33.0615 5.70052 33.0615 5.70052 33.0615C5.35192 33.0615 5.06897 33.3445 5.06897 33.6931C5.06897 34.0417 5.35192 34.3247 5.70058 34.3247Z" fill="#835DFF"/>
<path fill-rule="evenodd" clip-rule="evenodd" d="M24.0681 21.6102L26.6841 13.4338C26.7902 13.1016 26.607 12.7463 26.2748 12.6397C25.943 12.5337 25.5872 12.7168 25.4807 13.049L22.8651 21.2254C22.759 21.5572 22.9422 21.913 23.2739 22.0195C23.6062 22.1256 23.962 21.942 24.0681 21.6102Z" fill="#835DFF"/>
</svg>
