<svg width="24" height="24" viewBox="0 0 24 24" fill="none" xmlns="http://www.w3.org/2000/svg">
<g clip-path="url(#clip0_72_135)">
<mask id="mask0_72_135" style="mask-type:luminance" maskUnits="userSpaceOnUse" x="0" y="0" width="24" height="24">
<path d="M24 0H0V24H24V0Z" fill="white"/>
</mask>
<g mask="url(#mask0_72_135)">
<path d="M2.00847 23.9195C1.69663 23.9195 1.40308 23.7877 1.19847 23.555C1.07015 23.4091 1.08457 23.1869 1.23046 23.0589C1.37636 22.9309 1.59855 22.945 1.72652 23.0909C1.76941 23.1398 1.86398 23.2206 2.01937 23.2164C3.36338 23.1788 4.75591 22.5154 5.7438 21.4414C5.95298 21.2143 6.24688 21.0982 6.55028 21.1229C6.95352 21.1559 7.37961 21.1724 7.8166 21.1724C9.98081 21.1724 11.6862 20.7797 12.8854 20.0049C14.2421 19.1281 14.9301 17.7458 14.9301 15.8958C14.9301 14.0459 14.2421 12.6636 12.8854 11.7868C11.6862 11.012 9.98081 10.6193 7.8166 10.6193C5.65239 10.6193 3.94697 11.012 2.7478 11.7868C1.39113 12.6636 0.703122 14.0459 0.703122 15.8958C0.703122 17.4744 1.20374 18.7154 2.19128 19.5844C2.4771 19.8358 2.59346 20.2183 2.49538 20.5825C2.36038 21.0831 2.19198 21.5644 1.99476 22.0127C1.91671 22.1902 1.70929 22.2711 1.5314 22.193C1.35351 22.115 1.273 21.9075 1.35105 21.7297C1.53386 21.3138 1.69066 20.8662 1.81651 20.3997C1.84464 20.2956 1.81019 20.1856 1.72687 20.1125C0.58113 19.1038 0 17.6853 0 15.8958C0 13.7921 0.796285 12.2108 2.36636 11.1965C3.68084 10.3472 5.51458 9.9165 7.8166 9.9165C10.1186 9.9165 11.9524 10.3472 13.2668 11.1965C14.8369 12.2111 15.6332 13.7921 15.6332 15.8962C15.6332 18.0003 14.8369 19.5813 13.2668 20.5955C11.9524 21.4449 10.1186 21.8755 7.8166 21.8755C7.36063 21.8755 6.9152 21.858 6.49298 21.8235C6.40684 21.8161 6.32282 21.8506 6.2613 21.9174C5.13068 23.1464 3.5919 23.8759 2.03905 23.9195C2.02886 23.9195 2.01866 23.9199 2.00847 23.9199V23.9195Z" fill="currentColor"/>
<path d="M8.71937 10.6436C8.71937 10.6436 8.71726 10.6436 8.71621 10.6436C8.52215 10.6418 8.36605 10.4829 8.36781 10.2889C8.3868 8.21149 9.19117 6.65021 10.7584 5.64861C12.0712 4.80979 13.8965 4.3844 16.1837 4.3844C17.3934 4.3844 18.4871 4.50569 19.4349 4.7444C19.6234 4.79186 19.7373 4.98311 19.6898 5.17119C19.6424 5.35963 19.4511 5.47353 19.263 5.42607C18.3715 5.20143 17.3354 5.08752 16.1837 5.08752C14.0329 5.08752 12.3352 5.47564 11.1371 6.24134C9.78284 7.10689 9.08781 8.47059 9.07093 10.2955C9.06918 10.4885 8.91203 10.6439 8.71937 10.6439V10.6436Z" fill="currentColor"/>
<path d="M21.9926 18.3878C21.9821 18.3878 21.9715 18.3878 21.961 18.3874C20.4081 18.3442 18.869 17.6147 17.7387 16.3853C17.6775 16.3188 17.5932 16.2844 17.5074 16.2914C17.0845 16.3258 16.639 16.3434 16.1838 16.3434C15.8719 16.3434 15.5618 16.335 15.262 16.3188C15.0683 16.3083 14.9195 16.1423 14.9301 15.9486C14.9406 15.7549 15.1066 15.6069 15.3003 15.6167C15.5875 15.6326 15.8846 15.6403 16.1838 15.6403C16.6204 15.6403 17.0465 15.6234 17.4501 15.5907C17.7531 15.5661 18.047 15.6818 18.2562 15.9092C19.2444 16.9836 20.6366 17.647 21.9806 17.6843C22.1775 17.6892 22.2784 17.5616 22.3122 17.506C22.3466 17.4501 22.4162 17.3007 22.3206 17.1249C21.9824 16.5034 21.7078 15.8052 21.5046 15.0504C21.4065 14.6862 21.5229 14.3037 21.8087 14.0523C22.7963 13.1832 23.2969 11.9422 23.2969 10.3637C23.2969 9.28971 23.0656 8.36721 22.6089 7.62226C22.1909 6.93988 21.5718 6.38652 20.7692 5.97765C20.5962 5.88941 20.5273 5.67777 20.6155 5.50481C20.7038 5.33184 20.9154 5.26293 21.0884 5.35117C22.0084 5.8198 22.7217 6.46035 23.2086 7.25523C23.7339 8.11268 24 9.15858 24 10.3641C24 12.1535 23.4189 13.5721 22.2731 14.5807C22.1898 14.6542 22.1554 14.7642 22.1835 14.8679C22.3726 15.5696 22.6265 16.2162 22.9383 16.7896C23.126 17.1351 23.1162 17.5405 22.9116 17.8741C22.7133 18.1976 22.3712 18.3878 21.9926 18.3878Z" fill="currentColor"/>
<path d="M3.54795 11.3294C3.5033 11.3294 3.45795 11.321 3.41401 11.3027C2.3435 10.8612 1.51136 10.2196 0.939722 9.39586C0.316405 8.49692 0 7.37438 0 6.0599C0 3.95616 0.796285 2.37484 2.36636 1.36023C3.68084 0.510862 5.51458 0.0802002 7.8166 0.0802002C12.2572 0.0802002 14.9167 1.67734 15.508 4.69936C15.5453 4.8899 15.4212 5.07447 15.2307 5.11174C15.0401 5.149 14.8556 5.0249 14.8183 4.83436C14.543 3.42846 13.7464 2.37308 12.4502 1.69773C11.2851 1.09094 9.72628 0.78297 7.81695 0.78297C5.65275 0.78297 3.94732 1.17566 2.74815 1.9505C1.39148 2.8273 0.703473 4.20963 0.703473 6.05955C0.703473 7.22813 0.977691 8.21567 1.51804 8.99508C2.01093 9.70593 2.73936 10.2635 3.6826 10.6527C3.86225 10.7269 3.94768 10.9322 3.8735 11.1118C3.8176 11.2475 3.68647 11.3294 3.5483 11.3294H3.54795Z" fill="currentColor"/>
<path d="M4.30805 4.28171C4.11399 4.28171 3.95649 4.12421 3.95649 3.93015C3.95649 3.76808 3.82465 3.63659 3.66293 3.63659C3.50122 3.63659 3.36938 3.76843 3.36938 3.93015C3.36938 4.12421 3.21188 4.28171 3.01782 4.28171C2.82376 4.28171 2.66626 4.12421 2.66626 3.93015C2.66626 3.38066 3.11345 2.93347 3.66293 2.93347C4.21242 2.93347 4.65961 3.38066 4.65961 3.93015C4.65961 4.12421 4.50211 4.28171 4.30805 4.28171Z" fill="currentColor"/>
<path d="M10.0757 4.28171C9.88169 4.28171 9.72419 4.12421 9.72419 3.93015C9.72419 3.76808 9.59235 3.63659 9.43063 3.63659C9.26892 3.63659 9.13708 3.76843 9.13708 3.93015C9.13708 4.12421 8.97958 4.28171 8.78552 4.28171C8.59146 4.28171 8.43396 4.12421 8.43396 3.93015C8.43396 3.38066 8.88115 2.93347 9.43063 2.93347C9.98012 2.93347 10.4273 3.38066 10.4273 3.93015C10.4273 4.12421 10.2698 4.28171 10.0757 4.28171Z" fill="currentColor"/>
<path d="M6.5468 5.3476C6.18293 5.3476 5.83664 5.1901 5.59723 4.91518C5.46961 4.76893 5.48508 4.54675 5.63133 4.41913C5.77758 4.29151 5.99977 4.30698 6.12738 4.45323C6.2332 4.57487 6.38613 4.64448 6.5468 4.64448C6.70746 4.64448 6.86039 4.57487 6.96621 4.45323C7.09383 4.30698 7.31601 4.29151 7.46226 4.41913C7.60851 4.54675 7.62398 4.76893 7.49636 4.91518C7.25695 5.1901 6.91101 5.3476 6.5468 5.3476Z" fill="currentColor"/>
<path d="M18.2927 12.7772C18.1507 12.7772 18.0167 12.6904 17.9637 12.5498L16.1914 7.85361L14.4252 12.4914C14.3559 12.6728 14.1531 12.7639 13.9717 12.695C13.7903 12.626 13.6992 12.4228 13.7681 12.2414L15.752 7.03272C15.753 7.02991 15.7541 7.02744 15.7552 7.02463C15.8279 6.84639 15.9995 6.73108 16.1921 6.73108H16.1925C16.3848 6.73108 16.5564 6.84604 16.6295 7.02393C16.6309 7.02709 16.6319 7.03026 16.6333 7.03342L18.6214 12.3019C18.69 12.4837 18.5982 12.6865 18.4168 12.7551C18.376 12.7705 18.3338 12.7779 18.2927 12.7779V12.7772Z" fill="currentColor"/>
<path d="M17.6772 11.4648H14.6998C14.5058 11.4648 14.3483 11.3073 14.3483 11.1133C14.3483 10.9192 14.5058 10.7617 14.6998 10.7617H17.6772C17.8713 10.7617 18.0288 10.9192 18.0288 11.1133C18.0288 11.3073 17.8713 11.4648 17.6772 11.4648Z" fill="currentColor"/>
<path d="M10.633 12.666V13.2377H9.55472V18.7097H8.87692V16.0389L7.58634 16.0308C7.68442 16.2432 7.73329 16.4664 7.73329 16.7005C7.73329 17.1797 7.58212 17.5622 7.28013 17.848C6.97778 18.1339 6.5763 18.2769 6.07533 18.2769C5.72693 18.2769 5.4151 18.2077 5.14018 18.0688C4.86526 17.93 4.6501 17.7352 4.49506 17.4849C4.34002 17.2346 4.26233 16.9459 4.26233 16.6193H4.89936C4.89936 16.9298 5.00412 17.1857 5.21365 17.3871C5.42318 17.5886 5.69424 17.6895 6.02646 17.6895C6.35869 17.6895 6.61462 17.5928 6.81044 17.3994C7.00661 17.2061 7.10435 16.9544 7.10435 16.6439C7.10435 16.4098 7.04177 16.2059 6.91661 16.0315H6.892L6.88392 15.9827C6.68247 15.7323 6.37486 15.6068 5.96107 15.6068H5.64256V15.0514H5.96107C6.29294 15.0514 6.55169 14.9603 6.73697 14.7779C6.92189 14.5954 7.0147 14.3817 7.0147 14.1366C7.0147 13.8427 6.91943 13.6086 6.72888 13.4342C6.53833 13.2598 6.29857 13.173 6.01029 13.173C5.72201 13.173 5.46045 13.2588 5.259 13.4303C5.05756 13.6019 4.95666 13.8294 4.95666 14.1124H4.31963C4.31963 13.6497 4.47748 13.2806 4.79319 13.0056C5.10889 12.7307 5.51459 12.5933 6.00994 12.5933C6.50529 12.5933 6.87829 12.7254 7.17782 12.9895C7.47735 13.2535 7.62712 13.6061 7.62712 14.047C7.62712 14.3627 7.54134 14.6309 7.36977 14.8513C7.19821 15.0718 6.95177 15.2229 6.63079 15.3045V15.3207C6.78302 15.3425 6.93032 15.3941 7.07165 15.4757H8.87656V12.666H10.6326H10.633Z" fill="currentColor"/>
</g>
</g>
<defs>
<clipPath id="clip0_72_135">
<rect width="24" height="24" fill="white"/>
</clipPath>
</defs>
</svg>
