<svg width="24" height="24" viewBox="0 0 24 24" fill="none" xmlns="http://www.w3.org/2000/svg">
<path d="M7.81958 2.5H16.1897C17.9103 2.5 19.2241 3.01093 20.1067 3.89355C20.9892 4.77611 21.5002 6.08929 21.5002 7.80957V16.1797C21.5002 17.9003 20.9893 19.2141 20.1067 20.0967C19.2241 20.9793 17.9103 21.4902 16.1897 21.4902H7.81958C6.09931 21.4901 4.78612 20.9792 3.90356 20.0967C3.02094 19.2141 2.51001 17.9003 2.51001 16.1797V7.80957C2.5101 6.08922 3.02101 4.77611 3.90356 3.89355C4.78612 3.011 6.09923 2.50009 7.81958 2.5Z" stroke="white"/>
<path d="M16.86 8.46008C16.02 8.38008 15.25 8.33008 14.5 8.28008L14.42 7.80008C14.35 7.32008 14.2 6.33008 12.69 6.33008H11.3C9.81004 6.33008 9.65004 7.28008 9.57004 7.79008L9.49004 8.26007C9.06004 8.29007 8.64004 8.31007 8.21004 8.35007L7.12003 8.46008C6.74003 8.50008 6.47003 8.83008 6.51003 9.21008C6.55003 9.56008 6.84004 9.83008 7.19004 9.83008C7.21004 9.83008 7.24003 9.83008 7.26003 9.83008L8.34003 9.72008C8.94003 9.67008 9.55003 9.62008 10.15 9.59008C11.37 9.54008 12.59 9.56008 13.82 9.62008C14.73 9.66008 15.68 9.73008 16.72 9.83008C16.74 9.83008 16.76 9.83008 16.78 9.83008C17.13 9.83008 17.43 9.56008 17.46 9.21008C17.51 8.83008 17.24 8.49008 16.86 8.46008Z" fill="white"/>
<path d="M15.83 11.1001C15.66 10.9101 15.41 10.8101 15.16 10.8101H8.84C8.59 10.8101 8.34 10.9201 8.17 11.1001C8 11.2901 7.91 11.5401 7.93 11.7901L8.24001 15.7501C8.30001 16.6001 8.37 17.6601 10.29 17.6601H13.71C15.63 17.6601 15.7 16.6001 15.76 15.7501L16.07 11.7901C16.09 11.5401 16 11.2901 15.83 11.1001Z" fill="white"/>
</svg>
