<svg width="24" height="24" viewBox="0 0 24 24" fill="none" xmlns="http://www.w3.org/2000/svg">
<circle cx="12" cy="12" r="12" fill="black"/>
<g clip-path="url(#clip0_72_163)">
<path d="M15.619 18.0953H8.38093C7.88569 18.0953 7.39045 17.8286 7.12379 17.4095C6.81903 16.9905 6.78093 16.4572 6.97141 15.9619C7.73331 14.0191 9.75236 12.7238 12 12.7238C14.2476 12.7238 16.2666 14.0191 17.0286 15.9619C17.219 16.4191 17.1809 16.9905 16.8762 17.4095C16.6095 17.8286 16.1143 18.0953 15.619 18.0953ZM12 12C10.3238 12 8.95236 10.6286 8.95236 8.9524C8.95236 7.27621 10.3238 5.90479 12 5.90479C13.6762 5.90479 15.0476 7.27621 15.0476 8.9524C15.0476 10.6286 13.6762 12 12 12Z" fill="white"/>
</g>
<defs>
<clipPath id="clip0_72_163">
<rect width="13.7143" height="13.7143" fill="white" transform="translate(5.14282 5.14282)"/>
</clipPath>
</defs>
</svg>
