<?xml version="1.0" encoding="UTF-8"?>
<svg id="Layer_1" data-name="Layer 1" xmlns="http://www.w3.org/2000/svg" viewBox="0 0 500 195.43">
  <defs>
    <style>
      .cls-1 {
        fill: #ff672b;
      }

      .cls-2 {
        fill: #9a999c;
      }

      .cls-3 {
        fill-rule: evenodd;
      }

      .cls-3, .cls-4 {
        fill: #44b87e;
      }

      .cls-5 {
        fill: #3b77fa;
      }

      .cls-6 {
        fill: #ffcd31;
      }
    </style>
  </defs>
  <g>
    <path class="cls-3" d="M73.8,14.04h0C65.68,5.95,54.88,1.49,43.37,1.49,19.66,1.49.37,20.69.36,44.29c0,7.54,1.98,14.91,5.74,21.4L0,87.87l22.8-5.95c6.28,3.41,13.36,5.21,20.55,5.21h.02c23.7,0,43-19.2,43.01-42.8,0-11.44-4.47-22.19-12.59-30.28Z"/>
    <g>
      <path class="cls-1" d="M160.1,0c-2.57,0-4.65,2.09-4.65,4.65v.71c5.59,1.66,10.67,4.56,14.89,8.34V4.65c0-2.57-2.09-4.65-4.65-4.65h-5.59Z"/>
      <path class="cls-1" d="M122.87,0c-2.57,0-4.65,2.09-4.65,4.65v9.05c4.23-3.78,9.31-6.68,14.89-8.34v-.71C133.11,2.09,131.02,0,128.45,0h-5.59Z"/>
      <path class="cls-6" d="M183.38,53.99h-3.72v-11.17c0-19.51-15.86-35.37-35.37-35.37s-35.37,15.86-35.37,35.37v11.17h-3.72c-3.07,0-5.59,2.51-5.59,5.59v14.89c0,3.07,2.51,5.59,5.59,5.59h3.72v3.72c0,3.07,2.51,5.59,5.59,5.59h59.57c3.07,0,5.59-2.51,5.59-5.59v-3.72h3.72c3.07,0,5.59-2.51,5.59-5.59v-14.89c0-3.07-2.51-5.59-5.59-5.59ZM172.21,78.19c0,3.07-2.51,5.59-5.59,5.59h-44.68c-3.07,0-5.59-2.51-5.59-5.59v-29.79c0-3.07,2.51-5.59,5.59-5.59h44.68c3.07,0,5.59,2.51,5.59,5.59v29.79Z"/>
      <path class="cls-4" d="M157.31,67.78c0,1.02-.84,1.86-1.86,1.86s-1.86-.84-1.86-1.86v-3.72h-33.51v14.13c0,1.02.84,1.86,1.86,1.86h44.68c1.02,0,1.86-.84,1.86-1.86v-14.13h-11.17v3.72Z"/>
      <path class="cls-1" d="M166.62,46.54h-44.68c-1.02,0-1.86.84-1.86,1.86v11.93h48.4v-11.93c0-1.02-.84-1.86-1.86-1.86Z"/>
    </g>
    <path class="cls-5" d="M181.2,102.56h-53.94c-3.7,0-6.71,3.01-6.71,6.71v25.11h-13.19c-3.7,0-6.69,2.99-6.69,6.71v31.71c0,3.7,2.99,6.71,6.69,6.71h9.29v5.8c0,2.01,1.62,3.65,3.65,3.65h8.72c2.01,0,3.63-1.64,3.63-3.65v-5.8h23.27v5.8c0,2.01,1.62,3.65,3.63,3.65h8.73c2.01,0,3.63-1.64,3.63-3.65v-5.8h9.29c3.7,0,6.69-3.01,6.69-6.71v-63.52c0-3.7-2.99-6.71-6.69-6.71ZM178.64,131.26c0,2.12-1.7,3.82-3.82,3.82h-41.2c-2.12,0-3.83-1.7-3.83-3.82v-15.74c0-2.12,1.72-3.83,3.83-3.83h41.2c2.12,0,3.82,1.72,3.82,3.83v15.74Z"/>
    <path class="cls-1" d="M78.67,102.56H7.71C3.46,102.56,0,106.02,0,110.28v35.48C0,169.61,19.35,188.95,43.19,188.95s43.19-19.33,43.19-43.19v-35.48c0-4.26-3.46-7.71-7.71-7.71ZM43.19,177.92c-16.44,0-30.03-12.44-31.83-28.4-.1-.91.6-1.7,1.49-1.7h11.23c.73,0,1.34.52,1.47,1.22,1.5,8.39,8.83,14.76,17.63,14.76s16.14-6.37,17.63-14.76c.13-.7.76-1.22,1.47-1.22h11.23c.91,0,1.59.79,1.5,1.7-1.8,15.97-15.4,28.4-31.84,28.4Z"/>
  </g>
  <g>
    <path d="M226.32,49.95c-1.88-.8-3.37-1.96-4.46-3.47-1.09-1.51-1.66-3.29-1.69-5.35h7.23c.1,1.38.59,2.47,1.47,3.28.88.8,2.1,1.21,3.64,1.21s2.81-.38,3.71-1.13c.9-.75,1.35-1.74,1.35-2.96,0-1-.31-1.81-.92-2.46-.61-.64-1.37-1.15-2.29-1.52-.92-.37-2.18-.78-3.78-1.23-2.19-.64-3.96-1.28-5.33-1.9-1.37-.63-2.54-1.57-3.52-2.84-.98-1.27-1.47-2.96-1.47-5.08,0-1.99.5-3.73,1.49-5.2,1-1.48,2.39-2.61,4.19-3.4,1.8-.79,3.86-1.18,6.17-1.18,3.47,0,6.29.84,8.46,2.53,2.17,1.69,3.37,4.04,3.59,7.06h-7.42c-.06-1.16-.55-2.11-1.47-2.87-.92-.75-2.13-1.13-3.64-1.13-1.32,0-2.37.34-3.16,1.01-.79.67-1.18,1.66-1.18,2.94,0,.9.3,1.65.89,2.24.59.6,1.33,1.08,2.22,1.45.88.37,2.13.8,3.74,1.28,2.18.64,3.97,1.29,5.35,1.93,1.38.64,2.57,1.61,3.57,2.89,1,1.29,1.49,2.97,1.49,5.06,0,1.8-.47,3.47-1.4,5.01-.93,1.54-2.3,2.77-4.1,3.69-1.8.92-3.94,1.37-6.41,1.37-2.35,0-4.46-.4-6.34-1.21Z"/>
    <path d="M270.83,25.06c1.57.88,2.8,2.19,3.69,3.9.88,1.72,1.33,3.78,1.33,6.19v15.66h-6.75v-14.75c0-2.12-.53-3.75-1.59-4.89-1.06-1.14-2.51-1.71-4.34-1.71s-3.33.57-4.41,1.71c-1.08,1.14-1.61,2.77-1.61,4.89v14.75h-6.75V15.16h6.75v12.29c.87-1.16,2.02-2.06,3.47-2.72s3.05-.99,4.82-.99c2.02,0,3.82.44,5.4,1.33Z"/>
    <rect x="282.25" y="24.12" width="6.75" height="26.7"/>
    <path d="M311.46,50.82l-9.06-11.37v11.37h-6.75V15.16h6.75v20.29l8.96-11.33h8.77l-11.76,13.4,11.86,13.3h-8.77Z"/>
    <path d="M328.13,50.07c-1.74-.79-3.11-1.86-4.12-3.2-1.01-1.35-1.57-2.84-1.66-4.48h6.8c.13,1.03.63,1.88,1.52,2.55.88.67,1.98,1.01,3.3,1.01s2.29-.26,3.01-.77c.72-.51,1.08-1.17,1.08-1.98,0-.87-.44-1.52-1.33-1.95-.88-.43-2.29-.91-4.22-1.42-1.99-.48-3.62-.98-4.89-1.49-1.27-.51-2.36-1.3-3.28-2.36-.92-1.06-1.37-2.49-1.37-4.29,0-1.48.43-2.83,1.28-4.05.85-1.22,2.07-2.18,3.66-2.89,1.59-.71,3.46-1.06,5.61-1.06,3.18,0,5.72.8,7.62,2.39,1.9,1.59,2.94,3.73,3.13,6.43h-6.46c-.1-1.06-.54-1.9-1.33-2.53-.79-.63-1.84-.94-3.16-.94-1.22,0-2.16.23-2.82.67-.66.45-.99,1.08-.99,1.88,0,.9.45,1.58,1.35,2.05.9.47,2.3.94,4.19,1.42,1.93.48,3.52.98,4.77,1.49,1.25.51,2.34,1.31,3.25,2.39.92,1.08,1.39,2.5,1.42,4.27,0,1.54-.43,2.92-1.28,4.14-.85,1.22-2.07,2.18-3.66,2.87-1.59.69-3.45,1.04-5.57,1.04s-4.15-.39-5.88-1.18Z"/>
    <path d="M370.5,25.06c1.57.88,2.8,2.19,3.69,3.9.88,1.72,1.33,3.78,1.33,6.19v15.66h-6.75v-14.75c0-2.12-.53-3.75-1.59-4.89-1.06-1.14-2.51-1.71-4.34-1.71s-3.33.57-4.41,1.71c-1.08,1.14-1.61,2.77-1.61,4.89v14.75h-6.75V15.16h6.75v12.29c.87-1.16,2.02-2.06,3.47-2.72s3.05-.99,4.82-.99c2.02,0,3.82.44,5.4,1.33Z"/>
    <path d="M394.45,50.07c-1.67.82-3.47,1.23-5.4,1.23-1.67,0-3.18-.34-4.53-1.01s-2.41-1.61-3.18-2.8c-.77-1.19-1.16-2.55-1.16-4.1,0-2.47.92-4.5,2.77-6.07,1.85-1.57,4.62-2.36,8.31-2.36h6.8c-.06-1.7-.55-3.06-1.47-4.07-.92-1.01-2.18-1.52-3.78-1.52-1.41,0-2.59.38-3.52,1.13-.93.75-1.53,1.81-1.78,3.16h-6.75c.32-1.93,1.02-3.65,2.1-5.18,1.08-1.53,2.49-2.71,4.24-3.57,1.75-.85,3.72-1.28,5.9-1.28s4.28.47,6.1,1.4c1.81.93,3.24,2.26,4.27,4,1.03,1.74,1.54,3.78,1.54,6.12v15.66h-6.84v-3.81c-.74,1.22-1.94,2.24-3.62,3.06ZM394.33,45.13c1.08-.48,1.97-1.21,2.67-2.17.71-.96,1.06-2.1,1.06-3.42v-.19h-6.41c-1.54,0-2.69.31-3.45.92-.75.61-1.13,1.41-1.13,2.41s.35,1.73,1.04,2.31c.69.58,1.66.87,2.92.87,1.12,0,2.22-.24,3.3-.72Z"/>
    <path d="M416.33,20.79v11.23h12.24v3.62h-12.24v11.57h13.69v3.61h-18.07V17.18h18.07v3.61h-13.69Z"/>
    <path d="M470.75,17.47v33.35h-4.39v-24.87l-11.09,24.87h-3.08l-11.13-24.92v24.92h-4.39V17.47h4.72l12.34,27.57,12.34-27.57h4.68Z"/>
    <path d="M482.87,49.98c-1.75-.79-3.13-1.88-4.12-3.28-1-1.4-1.51-3.01-1.54-4.84h4.68c.16,1.57.81,2.9,1.95,3.98,1.14,1.08,2.8,1.61,4.99,1.61s3.73-.52,4.94-1.57c1.21-1.04,1.81-2.39,1.81-4.02,0-1.29-.35-2.33-1.06-3.13-.71-.8-1.59-1.41-2.65-1.83-1.06-.42-2.49-.87-4.29-1.35-2.22-.58-3.99-1.16-5.33-1.74-1.33-.58-2.47-1.49-3.42-2.72-.95-1.24-1.42-2.9-1.42-4.99,0-1.83.47-3.45,1.4-4.87.93-1.41,2.24-2.51,3.93-3.28s3.62-1.16,5.81-1.16c3.15,0,5.73.79,7.74,2.36,2.01,1.57,3.14,3.66,3.4,6.27h-4.82c-.16-1.28-.84-2.42-2.02-3.4-1.19-.98-2.76-1.47-4.72-1.47-1.83,0-3.32.47-4.48,1.42-1.16.95-1.73,2.27-1.73,3.98,0,1.22.34,2.22,1.04,2.99.69.77,1.54,1.36,2.55,1.76,1.01.4,2.43.86,4.27,1.37,2.22.61,4,1.21,5.35,1.81,1.35.6,2.51,1.51,3.47,2.75.96,1.24,1.45,2.92,1.45,5.04,0,1.64-.43,3.18-1.3,4.63-.87,1.45-2.15,2.62-3.86,3.52-1.7.9-3.71,1.35-6.02,1.35s-4.2-.39-5.95-1.18Z"/>
    <path class="cls-2" d="M223.59,71.87v10.22h10.38v2.27h-10.38v10.38h11.55v2.27h-14.29v-27.41h14.29v2.27h-11.55Z"/>
    <path class="cls-2" d="M240.62,80.5c.89-1.66,2.11-2.94,3.66-3.84,1.55-.9,3.31-1.35,5.27-1.35s3.58.46,5.09,1.37c1.51.91,2.62,2.1,3.33,3.56v-12.22h2.74v28.98h-2.74v-4.78c-.65,1.49-1.72,2.71-3.21,3.66-1.49.95-3.24,1.43-5.25,1.43s-3.71-.46-5.27-1.37c-1.55-.91-2.77-2.21-3.64-3.88-.87-1.67-1.31-3.6-1.31-5.8s.44-4.12,1.33-5.78ZM256.92,81.78c-.7-1.3-1.66-2.31-2.88-3.02s-2.55-1.06-4.01-1.06-2.87.34-4.07,1.02c-1.2.68-2.15,1.66-2.84,2.96s-1.04,2.83-1.04,4.6.35,3.28,1.04,4.6c.69,1.32,1.64,2.32,2.84,3.02,1.2.69,2.56,1.04,4.07,1.04s2.8-.35,4.01-1.06,2.17-1.71,2.88-3.02,1.06-2.82,1.06-4.54-.35-3.24-1.06-4.54Z"/>
    <path class="cls-2" d="M285.5,75.63v21.38h-2.74v-3.76c-.63,1.33-1.59,2.35-2.9,3.05s-2.77,1.06-4.39,1.06c-2.56,0-4.65-.79-6.27-2.37-1.62-1.58-2.43-3.87-2.43-6.87v-12.49h2.7v12.18c0,2.32.58,4.1,1.74,5.33,1.16,1.23,2.75,1.84,4.76,1.84s3.71-.65,4.93-1.96c1.23-1.31,1.84-3.22,1.84-5.76v-11.63h2.74Z"/>
    <path class="cls-2" d="M291.84,80.5c.89-1.66,2.11-2.94,3.68-3.84,1.57-.9,3.35-1.35,5.36-1.35,2.64,0,4.81.65,6.52,1.96s2.81,3.08,3.31,5.33h-2.94c-.37-1.54-1.15-2.75-2.37-3.62-1.21-.87-2.72-1.31-4.52-1.31-1.44,0-2.73.33-3.88.98-1.15.65-2.06,1.63-2.72,2.92s-1,2.88-1,4.76.33,3.47,1,4.78c.67,1.31,1.57,2.29,2.72,2.94s2.44.98,3.88.98c1.8,0,3.31-.44,4.52-1.31,1.21-.87,2-2.1,2.37-3.66h2.94c-.5,2.19-1.61,3.95-3.33,5.29-1.72,1.33-3.89,2-6.5,2-2.01,0-3.8-.45-5.36-1.35-1.57-.9-2.79-2.18-3.68-3.84-.89-1.66-1.33-3.6-1.33-5.82s.44-4.16,1.33-5.82Z"/>
    <path class="cls-2" d="M326.66,96.01c-1.49.93-3.16,1.39-5.01,1.39-1.38,0-2.62-.27-3.7-.8-1.08-.53-1.93-1.28-2.53-2.23-.6-.95-.9-2.03-.9-3.23,0-1.98.7-3.59,2.11-4.82s3.46-1.84,6.15-1.84h7.09c-.05-2.17-.59-3.84-1.61-5.01-1.02-1.17-2.47-1.76-4.35-1.76-1.64,0-3.02.46-4.11,1.39s-1.78,2.21-2.04,3.86h-2.7c.31-2.24,1.26-4.08,2.84-5.5,1.58-1.42,3.61-2.13,6.09-2.13,1.7,0,3.2.36,4.5,1.08,1.31.72,2.32,1.77,3.05,3.15.73,1.38,1.1,3.04,1.1,4.97v12.49h-2.78v-4.54c-.65,1.44-1.72,2.62-3.21,3.54ZM325.95,94.09c1.17-.61,2.12-1.49,2.84-2.64.72-1.15,1.08-2.49,1.08-4.03v-.7h-7.09c-1.8,0-3.17.39-4.11,1.15-.94.77-1.41,1.8-1.41,3.07s.44,2.21,1.33,2.96,2.08,1.12,3.56,1.12c1.36,0,2.62-.31,3.8-.92Z"/>
    <path class="cls-2" d="M342.48,77.94v13.27c0,1.31.25,2.21.74,2.7.5.5,1.37.74,2.62.74h2.51v2.35h-2.94c-1.93,0-3.37-.45-4.31-1.35-.94-.9-1.41-2.38-1.41-4.45v-13.27h-2.98v-2.31h2.98v-5.36h2.78v5.36h5.87v2.31h-5.87Z"/>
    <path class="cls-2" d="M352.81,71.01c-.39-.39-.59-.87-.59-1.45s.2-1.05.59-1.43c.39-.38.86-.57,1.41-.57s1.02.19,1.41.57c.39.38.59.86.59,1.43s-.2,1.06-.59,1.45c-.39.39-.86.59-1.41.59s-1.02-.2-1.41-.59ZM355.59,75.63v21.38h-2.74v-21.38h2.74Z"/>
    <path class="cls-2" d="M365.76,95.97c-1.61-.9-2.87-2.18-3.8-3.84-.93-1.66-1.39-3.6-1.39-5.82s.47-4.16,1.41-5.82c.94-1.66,2.22-2.94,3.84-3.84,1.62-.9,3.43-1.35,5.44-1.35s3.83.45,5.46,1.35c1.63.9,2.91,2.18,3.84,3.84.93,1.66,1.39,3.6,1.39,5.82s-.47,4.12-1.41,5.8c-.94,1.67-2.23,2.96-3.88,3.86-1.64.9-3.47,1.35-5.48,1.35s-3.82-.45-5.42-1.35ZM375.1,93.97c1.2-.64,2.17-1.61,2.92-2.9.74-1.29,1.12-2.88,1.12-4.76s-.37-3.47-1.1-4.76c-.73-1.29-1.7-2.26-2.9-2.9-1.2-.64-2.51-.96-3.92-.96s-2.72.32-3.92.96c-1.2.64-2.16,1.6-2.88,2.9s-1.08,2.88-1.08,4.76.36,3.47,1.08,4.76,1.67,2.26,2.86,2.9,2.49.96,3.9.96,2.72-.32,3.92-.96Z"/>
    <path class="cls-2" d="M403.25,77.61c1.62,1.58,2.43,3.87,2.43,6.87v12.53h-2.7v-12.22c0-2.32-.58-4.1-1.74-5.33-1.16-1.23-2.75-1.84-4.76-1.84s-3.71.65-4.93,1.96c-1.23,1.31-1.84,3.22-1.84,5.76v11.67h-2.74v-21.38h2.74v3.64c.68-1.31,1.66-2.3,2.94-3,1.28-.69,2.73-1.04,4.35-1.04,2.56,0,4.65.79,6.27,2.37Z"/>
    <path class="cls-2" d="M247.6,114.17v27.02h-2.74v-21.58l-9.63,21.58h-2l-9.63-21.5v21.5h-2.74v-27.02h2.9l10.46,23.42,10.46-23.42h2.94Z"/>
    <path class="cls-2" d="M253.88,124.68c.87-1.66,2.09-2.94,3.64-3.84,1.55-.9,3.31-1.35,5.27-1.35s3.79.47,5.27,1.41c1.47.94,2.54,2.14,3.19,3.6v-4.7h2.74v21.38h-2.74v-4.74c-.68,1.46-1.76,2.67-3.23,3.62-1.47.95-3.23,1.43-5.27,1.43s-3.68-.46-5.23-1.37c-1.55-.91-2.77-2.21-3.64-3.88-.87-1.67-1.31-3.6-1.31-5.8s.44-4.12,1.31-5.78ZM270.19,125.96c-.71-1.3-1.66-2.31-2.88-3.02-1.21-.7-2.55-1.06-4.01-1.06s-2.87.34-4.07,1.02c-1.2.68-2.15,1.66-2.84,2.96s-1.04,2.83-1.04,4.6.35,3.28,1.04,4.6c.69,1.32,1.64,2.32,2.84,3.02,1.2.69,2.56,1.04,4.07,1.04s2.8-.35,4.01-1.06c1.22-.7,2.17-1.71,2.88-3.02.7-1.31,1.06-2.82,1.06-4.54s-.35-3.24-1.06-4.54Z"/>
    <path class="cls-2" d="M296.54,121.79c1.62,1.58,2.43,3.87,2.43,6.87v12.53h-2.7v-12.22c0-2.32-.58-4.1-1.74-5.33-1.16-1.23-2.75-1.84-4.76-1.84s-3.71.65-4.93,1.96c-1.23,1.31-1.84,3.22-1.84,5.76v11.67h-2.74v-21.38h2.74v3.64c.68-1.31,1.66-2.3,2.94-3,1.28-.69,2.73-1.04,4.35-1.04,2.56,0,4.65.79,6.27,2.37Z"/>
    <path class="cls-2" d="M305.1,124.68c.87-1.66,2.09-2.94,3.64-3.84,1.55-.9,3.31-1.35,5.27-1.35s3.79.47,5.27,1.41c1.47.94,2.54,2.14,3.19,3.6v-4.7h2.74v21.38h-2.74v-4.74c-.68,1.46-1.76,2.67-3.23,3.62-1.48.95-3.23,1.43-5.27,1.43s-3.68-.46-5.23-1.37c-1.55-.91-2.77-2.21-3.64-3.88-.87-1.67-1.31-3.6-1.31-5.8s.44-4.12,1.31-5.78ZM321.41,125.96c-.7-1.3-1.66-2.31-2.88-3.02-1.21-.7-2.55-1.06-4.01-1.06s-2.87.34-4.07,1.02-2.15,1.66-2.84,2.96c-.69,1.29-1.04,2.83-1.04,4.6s.35,3.28,1.04,4.6c.69,1.32,1.64,2.32,2.84,3.02,1.2.69,2.56,1.04,4.07,1.04s2.8-.35,4.01-1.06c1.21-.7,2.17-1.71,2.88-3.02s1.06-2.82,1.06-4.54-.35-3.24-1.06-4.54Z"/>
    <path class="cls-2" d="M345.69,120.9c1.49.94,2.56,2.13,3.21,3.56v-4.66h2.74v21.93c0,1.96-.42,3.69-1.27,5.21-.85,1.51-2.03,2.68-3.54,3.5-1.51.82-3.24,1.23-5.17,1.23-2.74,0-5.02-.65-6.83-1.96-1.81-1.31-2.94-3.08-3.39-5.33h2.7c.47,1.49,1.36,2.68,2.68,3.56,1.32.89,2.93,1.33,4.84,1.33,1.38,0,2.62-.29,3.72-.88s1.96-1.46,2.58-2.6c.63-1.15.94-2.51.94-4.07v-5.29c-.68,1.46-1.76,2.67-3.23,3.62-1.48.95-3.22,1.43-5.23,1.43s-3.71-.46-5.27-1.37c-1.55-.91-2.77-2.21-3.64-3.88-.87-1.67-1.31-3.6-1.31-5.8s.44-4.12,1.31-5.78c.87-1.66,2.09-2.94,3.64-3.84,1.55-.9,3.31-1.35,5.27-1.35s3.76.47,5.25,1.41ZM347.84,125.96c-.7-1.3-1.66-2.31-2.88-3.02-1.21-.7-2.55-1.06-4.01-1.06s-2.87.34-4.07,1.02-2.15,1.66-2.84,2.96c-.69,1.29-1.04,2.83-1.04,4.6s.35,3.28,1.04,4.6c.69,1.32,1.64,2.32,2.84,3.02,1.2.69,2.56,1.04,4.07,1.04s2.8-.35,4.01-1.06c1.21-.7,2.17-1.71,2.88-3.02s1.06-2.82,1.06-4.54-.35-3.24-1.06-4.54Z"/>
    <path class="cls-2" d="M377.17,131.56h-17.74c.08,1.62.47,3,1.17,4.15.7,1.15,1.63,2.02,2.78,2.6,1.15.59,2.4.88,3.76.88,1.77,0,3.27-.43,4.48-1.29,1.21-.86,2.02-2.02,2.41-3.49h2.9c-.52,2.09-1.64,3.79-3.35,5.11-1.71,1.32-3.86,1.98-6.44,1.98-2.01,0-3.81-.45-5.4-1.35-1.59-.9-2.84-2.18-3.74-3.84-.9-1.66-1.35-3.6-1.35-5.82s.44-4.16,1.33-5.84c.89-1.67,2.13-2.95,3.72-3.84,1.59-.89,3.41-1.33,5.44-1.33s3.82.44,5.35,1.33c1.53.89,2.7,2.08,3.52,3.58s1.23,3.17,1.23,4.99c0,.94-.03,1.66-.08,2.15ZM373.51,125.25c-.67-1.12-1.57-1.97-2.72-2.55-1.15-.57-2.4-.86-3.76-.86-2.04,0-3.77.65-5.21,1.96-1.44,1.31-2.23,3.15-2.39,5.52h15.04c.03-1.59-.29-2.95-.96-4.07Z"/>
    <path class="cls-2" d="M413.84,121.79c1.58,1.58,2.37,3.87,2.37,6.87v12.53h-2.7v-12.22c0-2.32-.56-4.1-1.68-5.33-1.12-1.23-2.65-1.84-4.58-1.84s-3.62.67-4.82,2c-1.2,1.33-1.8,3.26-1.8,5.8v11.59h-2.7v-12.22c0-2.32-.56-4.1-1.68-5.33-1.12-1.23-2.66-1.84-4.62-1.84s-3.62.67-4.82,2c-1.2,1.33-1.8,3.26-1.8,5.8v11.59h-2.74v-21.38h2.74v3.68c.68-1.33,1.65-2.34,2.9-3.04,1.25-.69,2.65-1.04,4.19-1.04,1.85,0,3.48.44,4.88,1.33,1.4.89,2.41,2.19,3.03,3.92.57-1.7,1.56-3,2.96-3.9s2.98-1.35,4.76-1.35c2.51,0,4.55.79,6.13,2.37Z"/>
    <path class="cls-2" d="M441.55,131.56h-17.74c.08,1.62.47,3,1.17,4.15.7,1.15,1.63,2.02,2.78,2.6,1.15.59,2.4.88,3.76.88,1.77,0,3.27-.43,4.48-1.29,1.21-.86,2.02-2.02,2.41-3.49h2.9c-.52,2.09-1.64,3.79-3.35,5.11-1.71,1.32-3.86,1.98-6.44,1.98-2.01,0-3.81-.45-5.4-1.35-1.59-.9-2.84-2.18-3.74-3.84-.9-1.66-1.35-3.6-1.35-5.82s.44-4.16,1.33-5.84c.89-1.67,2.13-2.95,3.72-3.84,1.59-.89,3.41-1.33,5.44-1.33s3.82.44,5.35,1.33c1.53.89,2.7,2.08,3.52,3.58s1.23,3.17,1.23,4.99c0,.94-.03,1.66-.08,2.15ZM437.89,125.25c-.67-1.12-1.57-1.97-2.72-2.55-1.15-.57-2.4-.86-3.76-.86-2.04,0-3.77.65-5.21,1.96-1.44,1.31-2.23,3.15-2.39,5.52h15.04c.03-1.59-.29-2.95-.96-4.07Z"/>
    <path class="cls-2" d="M462.93,121.79c1.62,1.58,2.43,3.87,2.43,6.87v12.53h-2.7v-12.22c0-2.32-.58-4.1-1.74-5.33-1.16-1.23-2.75-1.84-4.76-1.84s-3.71.65-4.93,1.96c-1.23,1.31-1.84,3.22-1.84,5.76v11.67h-2.74v-21.38h2.74v3.64c.68-1.31,1.66-2.3,2.94-3,1.28-.69,2.73-1.04,4.35-1.04,2.56,0,4.65.79,6.27,2.37Z"/>
    <path class="cls-2" d="M474.99,122.12v13.27c0,1.31.25,2.21.74,2.7.5.5,1.37.74,2.62.74h2.51v2.35h-2.94c-1.93,0-3.37-.45-4.31-1.35-.94-.9-1.41-2.38-1.41-4.45v-13.27h-2.98v-2.31h2.98v-5.36h2.78v5.36h5.87v2.31h-5.87Z"/>
    <path class="cls-2" d="M224.39,184.7c-1.37-.63-2.45-1.5-3.23-2.62s-1.2-2.38-1.25-3.76h2.9c.13,1.33.72,2.5,1.76,3.5,1.04,1.01,2.57,1.51,4.58,1.51,1.85,0,3.32-.48,4.41-1.43,1.08-.95,1.63-2.16,1.63-3.62,0-1.17-.3-2.12-.9-2.84-.6-.72-1.35-1.25-2.23-1.61-.89-.35-2.11-.74-3.68-1.15-1.83-.5-3.28-.98-4.35-1.45-1.07-.47-1.98-1.2-2.74-2.19-.76-.99-1.14-2.34-1.14-4.03,0-1.41.37-2.67,1.1-3.78.73-1.11,1.76-1.98,3.09-2.6,1.33-.63,2.86-.94,4.58-.94,2.53,0,4.57.62,6.13,1.86,1.55,1.24,2.45,2.84,2.68,4.8h-2.98c-.18-1.12-.8-2.12-1.84-3-1.04-.87-2.45-1.31-4.23-1.31-1.64,0-3.02.44-4.11,1.31-1.1.88-1.64,2.07-1.64,3.58,0,1.15.3,2.08.9,2.78.6.7,1.35,1.24,2.25,1.61.9.37,2.12.76,3.66,1.17,1.78.5,3.21.99,4.31,1.47,1.1.48,2.02,1.22,2.78,2.21.76.99,1.14,2.32,1.14,3.99,0,1.28-.34,2.49-1.02,3.64-.68,1.15-1.68,2.08-3.01,2.78-1.33.71-2.92,1.06-4.78,1.06s-3.39-.31-4.76-.94Z"/>
    <path class="cls-2" d="M260.87,163.99l-12.69,31.45h-2.86l4.15-10.18-8.77-21.26h3.02l7.28,18.25,7.05-18.25h2.82Z"/>
    <path class="cls-2" d="M265.94,183.98c-1.55-1.14-2.42-2.68-2.6-4.64h2.82c.13,1.2.7,2.17,1.7,2.92,1,.74,2.36,1.12,4.05,1.12,1.49,0,2.66-.35,3.5-1.06s1.27-1.58,1.27-2.62c0-.73-.24-1.33-.7-1.8-.47-.47-1.06-.84-1.78-1.12-.72-.27-1.69-.57-2.92-.88-1.59-.42-2.88-.84-3.88-1.25s-1.83-1.04-2.53-1.86c-.69-.82-1.04-1.92-1.04-3.31,0-1.04.31-2.01.94-2.9.63-.89,1.51-1.59,2.66-2.11,1.15-.52,2.45-.78,3.92-.78,2.3,0,4.15.58,5.56,1.74s2.17,2.76,2.27,4.8h-2.74c-.08-1.25-.57-2.26-1.47-3.03-.9-.77-2.13-1.16-3.7-1.16-1.38,0-2.51.33-3.37.98-.86.65-1.29,1.46-1.29,2.43,0,.84.25,1.52.76,2.06.51.54,1.14.95,1.9,1.25s1.78.63,3.05,1c1.54.42,2.77.82,3.68,1.21.91.39,1.7.97,2.35,1.72.65.76.99,1.76,1.02,3.02,0,1.15-.31,2.17-.94,3.07-.63.9-1.5,1.61-2.62,2.13-1.12.52-2.42.78-3.88.78-2.45,0-4.46-.57-6.01-1.7Z"/>
    <path class="cls-2" d="M288.12,166.3v13.27c0,1.31.25,2.21.74,2.7.5.5,1.37.74,2.62.74h2.51v2.35h-2.94c-1.93,0-3.37-.45-4.31-1.35-.94-.9-1.41-2.38-1.41-4.45v-13.27h-2.98v-2.31h2.98v-5.36h2.78v5.36h5.87v2.31h-5.87Z"/>
    <path class="cls-2" d="M317.77,175.74h-17.74c.08,1.62.47,3,1.17,4.15.7,1.15,1.63,2.02,2.78,2.6,1.15.59,2.4.88,3.76.88,1.77,0,3.27-.43,4.48-1.29,1.21-.86,2.02-2.02,2.41-3.49h2.9c-.52,2.09-1.64,3.79-3.35,5.11-1.71,1.32-3.86,1.98-6.44,1.98-2.01,0-3.81-.45-5.4-1.35-1.59-.9-2.84-2.18-3.74-3.84-.9-1.66-1.35-3.6-1.35-5.82s.44-4.16,1.33-5.84c.89-1.67,2.13-2.95,3.72-3.84,1.59-.89,3.41-1.33,5.44-1.33s3.82.44,5.35,1.33c1.53.89,2.7,2.08,3.52,3.58s1.23,3.17,1.23,4.99c0,.94-.03,1.66-.08,2.15ZM314.11,169.43c-.67-1.12-1.57-1.97-2.72-2.55-1.15-.57-2.4-.86-3.76-.86-2.04,0-3.77.65-5.21,1.96-1.44,1.31-2.23,3.15-2.39,5.52h15.04c.03-1.59-.29-2.95-.96-4.07Z"/>
    <path class="cls-2" d="M354.44,165.97c1.58,1.58,2.37,3.87,2.37,6.87v12.53h-2.7v-12.22c0-2.32-.56-4.1-1.68-5.33-1.12-1.23-2.65-1.84-4.58-1.84s-3.62.67-4.82,2c-1.2,1.33-1.8,3.26-1.8,5.8v11.59h-2.7v-12.22c0-2.32-.56-4.1-1.68-5.33-1.12-1.23-2.66-1.84-4.62-1.84s-3.62.67-4.82,2c-1.2,1.33-1.8,3.26-1.8,5.8v11.59h-2.74v-21.38h2.74v3.68c.68-1.33,1.65-2.34,2.9-3.04,1.25-.69,2.65-1.04,4.19-1.04,1.85,0,3.48.44,4.88,1.33,1.4.89,2.41,2.19,3.03,3.92.57-1.7,1.56-3,2.96-3.9s2.98-1.35,4.76-1.35c2.51,0,4.55.79,6.13,2.37Z"/>
    <g>
      <path d="M290.95,15.68l-5.24-2.22c-.08-.03-.17-.03-.26,0l-5.27,2.21c-.17.07-.25.27-.17.44.03.08.09.14.17.17.31.13,2.13.9,2.39,1.01l2.88,1.21c.08.03.17.03.26,0,.93-.39,3.31-1.4,4.2-1.78,0,.25,0,2.33,0,2.63-.4.1-.56.78-.34,1.14l-.29,1.32c-.02.08.02.17.09.21.07.05.16.04.23,0,.14-.1.31-.16.49-.17.19,0,.37.06.52.17.09.06.22.04.28-.05.03-.05.05-.11.03-.17l-.37-1.31c.19-.33.09-.92-.23-1.09,0-.3,0-2.61,0-2.85l.64-.27c.17-.08.24-.27.17-.44-.03-.08-.09-.14-.17-.17h0Z"/>
      <path d="M285.3,18.87c-.24-.1-2.98-1.26-3.12-1.32v1.94c0,.21.11.41.29.53.88.6,1.91.93,2.97.96,1.16.02,2.3-.31,3.27-.95.18-.12.29-.32.29-.53v-1.94c-.14.06-2.89,1.22-3.12,1.32-.18.07-.39.07-.57,0h0Z"/>
    </g>
  </g>
</svg>