<?xml version="1.0" encoding="UTF-8"?>
<svg id="Layer_1" data-name="Layer 1" xmlns="http://www.w3.org/2000/svg" viewBox="0 0 400 92.48">
  <defs>
    <style>
      .cls-1 {
        fill: #835dff;
      }

      .cls-2 {
        fill: gray;
      }

      .cls-3 {
        fill: #ff672b;
      }

      .cls-4 {
        fill-rule: evenodd;
      }

      .cls-4, .cls-5 {
        fill: #44b87e;
      }

      .cls-6 {
        fill: #3b77fa;
      }

      .cls-7 {
        fill: #333;
      }

      .cls-8 {
        fill: #ffcd31;
      }
    </style>
  </defs>
  <g>
    <path class="cls-4" d="M36.12,6.87h0c-3.97-3.96-9.26-6.14-14.89-6.14C9.62.73.18,10.13.18,21.68c0,3.69.97,7.3,2.81,10.47l-2.99,10.86,11.16-2.91c3.07,1.67,6.54,2.55,10.06,2.55h0c11.6,0,21.05-9.4,21.05-20.95,0-5.6-2.19-10.86-6.16-14.82Z"/>
    <g>
      <path class="cls-3" d="M78.36,0c-1.26,0-2.28,1.02-2.28,2.28v.35c2.73.81,5.22,2.23,7.29,4.08V2.28c0-1.26-1.02-2.28-2.28-2.28h-2.73Z"/>
      <path class="cls-3" d="M60.14,0c-1.26,0-2.28,1.02-2.28,2.28v4.43c2.07-1.85,4.56-3.27,7.29-4.08v-.35C65.15,1.02,64.13,0,62.87,0h-2.73Z"/>
      <path class="cls-8" d="M89.75,26.42h-1.82v-5.47c0-9.55-7.76-17.31-17.31-17.31s-17.31,7.76-17.31,17.31v5.47h-1.82c-1.5,0-2.73,1.23-2.73,2.73v7.29c0,1.5,1.23,2.73,2.73,2.73h1.82v1.82c0,1.5,1.23,2.73,2.73,2.73h29.16c1.5,0,2.73-1.23,2.73-2.73v-1.82h1.82c1.5,0,2.73-1.23,2.73-2.73v-7.29c0-1.5-1.23-2.73-2.73-2.73ZM84.28,38.27c0,1.5-1.23,2.73-2.73,2.73h-21.87c-1.5,0-2.73-1.23-2.73-2.73v-14.58c0-1.5,1.23-2.73,2.73-2.73h21.87c1.5,0,2.73,1.23,2.73,2.73v14.58Z"/>
      <path class="cls-5" d="M76.99,33.18c0,.5-.41.91-.91.91s-.91-.41-.91-.91v-1.82h-16.4v6.92c0,.5.41.91.91.91h21.87c.5,0,.91-.41.91-.91v-6.92h-5.47v1.82Z"/>
      <path class="cls-3" d="M81.55,22.78h-21.87c-.5,0-.91.41-.91.91v5.84h23.69v-5.84c0-.5-.41-.91-.91-.91Z"/>
    </g>
    <path class="cls-6" d="M88.69,50.2h-26.4c-1.81,0-3.28,1.47-3.28,3.28v12.29h-6.45c-1.81,0-3.28,1.47-3.28,3.28v15.52c0,1.81,1.47,3.28,3.28,3.28h4.55v2.84c0,.98.79,1.78,1.78,1.78h4.27c.98,0,1.78-.8,1.78-1.78v-2.84h11.39v2.84c0,.98.79,1.78,1.78,1.78h4.27c.98,0,1.78-.8,1.78-1.78v-2.84h4.55c1.81,0,3.28-1.47,3.28-3.28v-31.09c0-1.81-1.47-3.28-3.28-3.28ZM87.44,64.25c0,1.04-.83,1.87-1.87,1.87h-20.16c-1.04,0-1.88-.83-1.88-1.87v-7.7c0-1.04.84-1.88,1.88-1.88h20.16c1.04,0,1.87.84,1.87,1.88v7.7Z"/>
    <path class="cls-3" d="M38.5,50.2H3.78C1.69,50.2,0,51.89,0,53.97v17.36C0,83.02,9.47,92.48,21.14,92.48s21.14-9.46,21.14-21.14v-17.36c0-2.08-1.69-3.78-3.78-3.78ZM21.14,87.08c-8.05,0-14.7-6.09-15.58-13.9-.05-.44.29-.83.73-.83h5.5c.36,0,.66.26.72.6.74,4.1,4.32,7.22,8.63,7.22s7.9-3.12,8.63-7.22c.07-.34.37-.6.72-.6h5.5c.44,0,.78.39.74.83-.88,7.81-7.54,13.9-15.59,13.9Z"/>
  </g>
  <g>
    <g>
      <path d="M123.99,49.14c-1.9-.81-3.39-1.98-4.5-3.5-1.1-1.52-1.67-3.32-1.7-5.4h7.29c.1,1.39.59,2.5,1.48,3.3.89.81,2.11,1.22,3.67,1.22s2.84-.38,3.74-1.14c.91-.76,1.36-1.76,1.36-2.99,0-1-.31-1.83-.92-2.48-.62-.65-1.39-1.16-2.31-1.53-.92-.37-2.2-.79-3.82-1.24-2.2-.65-3.99-1.29-5.37-1.92-1.38-.63-2.56-1.59-3.55-2.87-.99-1.28-1.48-2.99-1.48-5.13,0-2.01.5-3.76,1.51-5.25,1-1.49,2.41-2.63,4.23-3.43,1.81-.79,3.89-1.19,6.22-1.19,3.5,0,6.34.85,8.53,2.55,2.19,1.7,3.39,4.08,3.62,7.12h-7.49c-.07-1.17-.56-2.13-1.48-2.89-.92-.76-2.15-1.14-3.67-1.14-1.33,0-2.39.34-3.18,1.02-.79.68-1.19,1.67-1.19,2.96,0,.91.3,1.66.9,2.26.6.6,1.34,1.09,2.24,1.46.89.37,2.15.8,3.77,1.29,2.2.65,4,1.3,5.4,1.94,1.39.65,2.59,1.62,3.6,2.92,1,1.3,1.51,3,1.51,5.1,0,1.81-.47,3.5-1.41,5.06-.94,1.55-2.32,2.79-4.13,3.72-1.82.92-3.97,1.39-6.46,1.39-2.37,0-4.5-.4-6.39-1.22Z"/>
      <path d="M168.88,24.03c1.59.89,2.83,2.2,3.72,3.94.89,1.73,1.34,3.82,1.34,6.25v15.8h-6.8v-14.87c0-2.14-.53-3.78-1.6-4.93-1.07-1.15-2.53-1.73-4.37-1.73s-3.36.58-4.45,1.73c-1.09,1.15-1.63,2.79-1.63,4.93v14.87h-6.8V14.04h6.8v12.39c.88-1.17,2.04-2.08,3.5-2.75s3.08-1,4.86-1c2.04,0,3.86.45,5.44,1.34Z"/>
      <rect x="180.4" y="23.08" width="6.8" height="26.93"/>
      <path d="M209.85,50.01l-9.14-11.47v11.47h-6.8V14.04h6.8v20.46l9.04-11.42h8.85l-11.86,13.51,11.96,13.42h-8.85Z"/>
      <path d="M226.67,49.26c-1.75-.79-3.14-1.87-4.16-3.23-1.02-1.36-1.58-2.87-1.68-4.52h6.85c.13,1.04.64,1.9,1.53,2.58.89.68,2,1.02,3.33,1.02s2.31-.26,3.04-.78c.73-.52,1.09-1.18,1.09-1.99,0-.88-.45-1.53-1.34-1.97-.89-.44-2.31-.91-4.25-1.43-2.01-.49-3.65-.99-4.93-1.51-1.28-.52-2.38-1.31-3.3-2.38-.92-1.07-1.39-2.51-1.39-4.33,0-1.49.43-2.85,1.29-4.08.86-1.23,2.09-2.2,3.69-2.92,1.6-.71,3.49-1.07,5.66-1.07,3.21,0,5.77.8,7.68,2.41,1.91,1.6,2.96,3.77,3.16,6.49h-6.51c-.1-1.07-.54-1.92-1.34-2.55-.79-.63-1.86-.95-3.18-.95-1.23,0-2.18.23-2.84.68-.66.45-1,1.09-1,1.9,0,.91.45,1.6,1.36,2.07.91.47,2.32.95,4.23,1.43,1.94.49,3.55.99,4.81,1.51,1.26.52,2.36,1.32,3.28,2.41.92,1.09,1.4,2.52,1.43,4.3,0,1.55-.43,2.95-1.29,4.18-.86,1.23-2.09,2.2-3.69,2.89-1.6.7-3.48,1.04-5.61,1.04s-4.18-.4-5.93-1.19Z"/>
      <path d="M269.4,24.03c1.59.89,2.83,2.2,3.72,3.94.89,1.73,1.34,3.82,1.34,6.25v15.8h-6.8v-14.87c0-2.14-.53-3.78-1.6-4.93-1.07-1.15-2.53-1.73-4.37-1.73s-3.36.58-4.45,1.73c-1.09,1.15-1.63,2.79-1.63,4.93v14.87h-6.8V14.04h6.8v12.39c.88-1.17,2.04-2.08,3.5-2.75s3.08-1,4.86-1c2.04,0,3.86.45,5.44,1.34Z"/>
      <path d="M293.55,49.26c-1.68.83-3.5,1.24-5.44,1.24-1.69,0-3.21-.34-4.57-1.02s-2.43-1.62-3.21-2.82c-.78-1.2-1.17-2.58-1.17-4.13,0-2.49.93-4.54,2.79-6.12,1.86-1.59,4.66-2.38,8.38-2.38h6.85c-.07-1.72-.56-3.09-1.48-4.11-.92-1.02-2.2-1.53-3.82-1.53-1.43,0-2.61.38-3.55,1.14-.94.76-1.54,1.82-1.8,3.18h-6.81c.32-1.94,1.03-3.69,2.11-5.23,1.09-1.54,2.51-2.74,4.28-3.6,1.77-.86,3.75-1.29,5.95-1.29s4.32.47,6.15,1.41c1.83.94,3.26,2.28,4.3,4.03,1.04,1.75,1.56,3.81,1.56,6.17v15.8h-6.9v-3.84c-.75,1.23-1.96,2.26-3.65,3.09ZM293.43,44.28c1.09-.49,1.98-1.22,2.7-2.19.71-.97,1.07-2.12,1.07-3.45v-.19h-6.47c-1.56,0-2.71.31-3.48.92-.76.62-1.14,1.43-1.14,2.43s.35,1.75,1.04,2.33c.7.58,1.68.87,2.94.87,1.13,0,2.24-.24,3.33-.73Z"/>
      <path class="cls-7" d="M315.62,19.73v11.33h12.35v3.65h-12.35v11.67h13.8v3.65h-18.23V16.09h18.23v3.65h-13.8Z"/>
      <path class="cls-7" d="M370.5,16.38v33.64h-4.42v-25.08l-11.18,25.08h-3.11l-11.23-25.13v25.13h-4.42V16.38h4.76l12.44,27.8,12.44-27.8h4.71Z"/>
      <path class="cls-7" d="M382.72,49.16c-1.77-.79-3.15-1.89-4.16-3.3-1.01-1.41-1.52-3.04-1.56-4.88h4.71c.16,1.59.82,2.92,1.97,4.01,1.15,1.09,2.83,1.63,5.03,1.63s3.77-.53,4.98-1.58c1.22-1.05,1.82-2.41,1.82-4.06,0-1.3-.36-2.35-1.07-3.16-.71-.81-1.6-1.43-2.67-1.85-1.07-.42-2.51-.88-4.33-1.36-2.24-.58-4.03-1.17-5.37-1.75-1.35-.58-2.5-1.5-3.45-2.75-.96-1.25-1.43-2.92-1.43-5.03,0-1.85.47-3.48,1.41-4.91.94-1.43,2.26-2.53,3.96-3.3s3.65-1.17,5.86-1.17c3.18,0,5.78.79,7.8,2.38,2.02,1.59,3.17,3.69,3.43,6.32h-4.86c-.16-1.3-.84-2.44-2.04-3.43-1.2-.99-2.79-1.48-4.76-1.48-1.85,0-3.35.48-4.52,1.43-1.17.96-1.75,2.29-1.75,4.01,0,1.23.35,2.24,1.04,3.01.7.78,1.56,1.37,2.58,1.77,1.02.41,2.45.87,4.3,1.39,2.24.62,4.03,1.22,5.4,1.82,1.36.6,2.53,1.52,3.5,2.77.97,1.25,1.46,2.94,1.46,5.08,0,1.65-.44,3.21-1.31,4.67-.88,1.46-2.17,2.64-3.89,3.55-1.72.91-3.74,1.36-6.08,1.36s-4.24-.4-6-1.19Z"/>
      <g>
        <path class="cls-1" d="M189.17,14.57l-5.29-2.24c-.08-.04-.18-.04-.26,0l-5.31,2.23c-.17.08-.25.27-.17.45.03.08.09.14.17.17.31.13,2.15.91,2.41,1.02l2.91,1.23c.08.03.18.03.26,0,.93-.39,3.34-1.41,4.24-1.79,0,.25,0,2.35,0,2.65-.4.1-.56.78-.34,1.15l-.3,1.33c-.02.08.02.17.09.21.07.05.16.04.23,0,.14-.11.32-.16.49-.17.19,0,.37.06.53.17.09.06.22.04.28-.05.03-.05.05-.11.03-.17l-.38-1.32c.19-.33.09-.93-.24-1.09,0-.31,0-2.63,0-2.87l.65-.27c.17-.08.25-.28.17-.45-.03-.08-.09-.14-.17-.17h0Z"/>
        <path class="cls-1" d="M183.47,17.79c-.24-.1-3-1.27-3.15-1.33v1.96c0,.21.11.41.29.53.88.6,1.92.94,2.99.97,1.17.02,2.32-.31,3.3-.96.18-.12.29-.32.3-.54v-1.96c-.14.06-2.91,1.23-3.15,1.33-.18.08-.39.08-.57,0h0Z"/>
      </g>
    </g>
    <g>
      <path class="cls-2" d="M119.05,63.85v4.68h4.75v1.04h-4.75v4.75h5.29v1.04h-6.55v-12.56h6.55v1.04h-5.29Z"/>
      <path class="cls-2" d="M126.85,67.8c.41-.76.97-1.35,1.68-1.76.71-.41,1.52-.62,2.41-.62s1.64.21,2.33.63c.69.42,1.2.96,1.52,1.63v-5.6h1.26v13.27h-1.26v-2.19c-.3.68-.79,1.24-1.47,1.68-.68.44-1.48.65-2.4.65s-1.7-.21-2.41-.63c-.71-.42-1.27-1.01-1.67-1.78-.4-.77-.6-1.65-.6-2.65s.2-1.89.61-2.65ZM134.31,68.39c-.32-.6-.76-1.06-1.32-1.38-.56-.32-1.17-.48-1.84-.48s-1.32.16-1.87.47c-.55.31-.98.76-1.3,1.35-.32.59-.48,1.29-.48,2.11s.16,1.5.48,2.11c.32.6.75,1.06,1.3,1.38.55.32,1.17.48,1.87.48s1.28-.16,1.84-.48,1-.78,1.32-1.38c.32-.6.48-1.29.48-2.08s-.16-1.48-.48-2.08Z"/>
      <path class="cls-2" d="M147.41,65.57v9.79h-1.26v-1.72c-.29.61-.73,1.08-1.33,1.4-.6.32-1.27.48-2.01.48-1.17,0-2.13-.36-2.87-1.09-.74-.72-1.11-1.77-1.11-3.15v-5.72h1.24v5.58c0,1.06.27,1.88.8,2.44.53.56,1.26.84,2.18.84s1.7-.3,2.26-.9c.56-.6.84-1.48.84-2.64v-5.33h1.26Z"/>
      <path class="cls-2" d="M150.31,67.8c.41-.76.97-1.35,1.69-1.76s1.54-.62,2.46-.62c1.21,0,2.2.3,2.99.9.78.6,1.29,1.41,1.52,2.44h-1.35c-.17-.71-.53-1.26-1.08-1.66-.56-.4-1.25-.6-2.07-.6-.66,0-1.25.15-1.78.45-.53.3-.94.74-1.25,1.34-.31.59-.46,1.32-.46,2.18s.15,1.59.46,2.19c.3.6.72,1.05,1.25,1.35.53.3,1.12.45,1.78.45.83,0,1.52-.2,2.07-.6.56-.4.92-.96,1.08-1.68h1.35c-.23,1-.74,1.81-1.52,2.42-.79.61-1.78.91-2.98.91-.92,0-1.74-.21-2.46-.62-.72-.41-1.28-1-1.69-1.76-.41-.76-.61-1.65-.61-2.66s.2-1.9.61-2.66Z"/>
      <path class="cls-2" d="M161.3,67.8c.4-.76.96-1.35,1.67-1.76.71-.41,1.52-.62,2.41-.62s1.74.22,2.41.65c.68.43,1.16.98,1.46,1.65v-2.15h1.26v9.79h-1.26v-2.17c-.31.67-.8,1.22-1.48,1.66-.68.44-1.48.65-2.41.65s-1.68-.21-2.39-.63c-.71-.42-1.27-1.01-1.67-1.78-.4-.77-.6-1.65-.6-2.65s.2-1.89.6-2.65ZM168.77,68.39c-.32-.6-.76-1.06-1.32-1.38-.56-.32-1.17-.48-1.84-.48s-1.32.16-1.87.47c-.55.31-.98.76-1.3,1.35-.32.59-.48,1.29-.48,2.11s.16,1.5.48,2.11c.32.6.75,1.06,1.3,1.38.55.32,1.17.48,1.87.48s1.28-.16,1.84-.48,1-.78,1.32-1.38c.32-.6.48-1.29.48-2.08s-.16-1.48-.48-2.08Z"/>
      <path class="cls-2" d="M175.01,66.63v6.08c0,.6.11,1.01.34,1.24.23.23.63.34,1.2.34h1.15v1.08h-1.35c-.88,0-1.54-.21-1.97-.62-.43-.41-.65-1.09-.65-2.04v-6.08h-1.36v-1.06h1.36v-2.46h1.27v2.46h2.69v1.06h-2.69Z"/>
      <path class="cls-2" d="M179.74,63.45c-.18-.18-.27-.4-.27-.66s.09-.48.27-.65c.18-.17.39-.26.65-.26s.47.09.65.26c.18.17.27.39.27.65s-.09.48-.27.66-.39.27-.65.27-.47-.09-.65-.27ZM181.02,65.57v9.79h-1.26v-9.79h1.26Z"/>
      <path class="cls-2" d="M185.67,74.89c-.74-.41-1.32-1-1.74-1.76-.42-.76-.64-1.65-.64-2.66s.22-1.9.65-2.66c.43-.76,1.02-1.35,1.76-1.76.74-.41,1.57-.62,2.49-.62s1.75.21,2.5.62c.75.41,1.33,1,1.76,1.76.42.76.64,1.65.64,2.66s-.22,1.89-.65,2.65c-.43.77-1.02,1.35-1.78,1.77-.75.41-1.59.62-2.51.62s-1.75-.21-2.48-.62ZM189.95,73.97c.55-.29,1-.74,1.34-1.33.34-.59.51-1.32.51-2.18s-.17-1.59-.5-2.18c-.33-.59-.78-1.03-1.33-1.33-.55-.29-1.15-.44-1.79-.44s-1.24.15-1.79.44c-.55.29-.99.74-1.32,1.33-.33.59-.49,1.32-.49,2.18s.16,1.59.49,2.18c.33.59.77,1.03,1.31,1.33.54.29,1.14.44,1.78.44s1.24-.15,1.79-.44Z"/>
      <path class="cls-2" d="M202.85,66.48c.74.72,1.11,1.77,1.11,3.15v5.74h-1.24v-5.6c0-1.06-.27-1.88-.8-2.44-.53-.56-1.26-.84-2.18-.84s-1.7.3-2.26.9c-.56.6-.84,1.48-.84,2.64v5.35h-1.26v-9.79h1.26v1.67c.31-.6.76-1.06,1.35-1.37.59-.32,1.25-.48,1.99-.48,1.17,0,2.13.36,2.87,1.09Z"/>
      <path class="cls-2" d="M223.9,62.99v12.38h-1.26v-9.88l-4.41,9.88h-.91l-4.41-9.85v9.85h-1.26v-12.38h1.33l4.79,10.73,4.79-10.73h1.35Z"/>
      <path class="cls-2" d="M226.78,67.8c.4-.76.96-1.35,1.67-1.76.71-.41,1.52-.62,2.41-.62s1.74.22,2.41.65c.68.43,1.16.98,1.46,1.65v-2.15h1.26v9.79h-1.26v-2.17c-.31.67-.8,1.22-1.48,1.66-.68.44-1.48.65-2.41.65s-1.68-.21-2.39-.63c-.71-.42-1.27-1.01-1.67-1.78-.4-.77-.6-1.65-.6-2.65s.2-1.89.6-2.65ZM234.25,68.39c-.32-.6-.76-1.06-1.32-1.38-.56-.32-1.17-.48-1.84-.48s-1.32.16-1.87.47c-.55.31-.98.76-1.3,1.35-.32.59-.48,1.29-.48,2.11s.16,1.5.48,2.11c.32.6.75,1.06,1.3,1.38.55.32,1.17.48,1.87.48s1.28-.16,1.84-.48,1-.78,1.32-1.38c.32-.6.48-1.29.48-2.08s-.16-1.48-.48-2.08Z"/>
      <path class="cls-2" d="M246.32,66.48c.74.72,1.11,1.77,1.11,3.15v5.74h-1.24v-5.6c0-1.06-.27-1.88-.8-2.44-.53-.56-1.26-.84-2.18-.84s-1.7.3-2.26.9c-.56.6-.84,1.48-.84,2.64v5.35h-1.26v-9.79h1.26v1.67c.31-.6.76-1.06,1.35-1.37.59-.32,1.25-.48,1.99-.48,1.17,0,2.13.36,2.87,1.09Z"/>
      <path class="cls-2" d="M250.24,67.8c.4-.76.96-1.35,1.67-1.76.71-.41,1.52-.62,2.41-.62s1.74.22,2.41.65c.68.43,1.16.98,1.46,1.65v-2.15h1.26v9.79h-1.26v-2.17c-.31.67-.8,1.22-1.48,1.66-.68.44-1.48.65-2.41.65s-1.68-.21-2.39-.63c-.71-.42-1.27-1.01-1.67-1.78-.4-.77-.6-1.65-.6-2.65s.2-1.89.6-2.65ZM257.71,68.39c-.32-.6-.76-1.06-1.32-1.38-.56-.32-1.17-.48-1.84-.48s-1.32.16-1.87.47c-.55.31-.98.76-1.3,1.35-.32.59-.48,1.29-.48,2.11s.16,1.5.48,2.11c.32.6.75,1.06,1.3,1.38.55.32,1.17.48,1.87.48s1.28-.16,1.84-.48,1-.78,1.32-1.38c.32-.6.48-1.29.48-2.08s-.16-1.48-.48-2.08Z"/>
      <path class="cls-2" d="M268.83,66.07c.68.43,1.17.97,1.47,1.63v-2.13h1.26v10.04c0,.9-.19,1.69-.58,2.39-.39.69-.93,1.23-1.62,1.61-.69.38-1.48.57-2.37.57-1.26,0-2.3-.3-3.13-.9-.83-.6-1.35-1.41-1.55-2.44h1.24c.22.68.62,1.23,1.23,1.63.6.41,1.34.61,2.22.61.63,0,1.2-.13,1.7-.4.5-.27.9-.67,1.18-1.19.29-.53.43-1.15.43-1.87v-2.42c-.31.67-.8,1.22-1.48,1.66-.68.44-1.47.65-2.39.65s-1.7-.21-2.41-.63c-.71-.42-1.27-1.01-1.67-1.78-.4-.77-.6-1.65-.6-2.65s.2-1.89.6-2.65c.4-.76.96-1.35,1.67-1.76.71-.41,1.52-.62,2.41-.62s1.72.22,2.4.65ZM269.82,68.39c-.32-.6-.76-1.06-1.32-1.38-.56-.32-1.17-.48-1.84-.48s-1.32.16-1.87.47c-.55.31-.98.76-1.3,1.35-.32.59-.48,1.29-.48,2.11s.16,1.5.48,2.11c.32.6.75,1.06,1.3,1.38.55.32,1.17.48,1.87.48s1.28-.16,1.84-.48,1-.78,1.32-1.38c.32-.6.48-1.29.48-2.08s-.16-1.48-.48-2.08Z"/>
      <path class="cls-2" d="M283.25,70.95h-8.13c.04.74.22,1.38.54,1.9.32.53.75.92,1.27,1.19.53.27,1.1.4,1.72.4.81,0,1.5-.2,2.05-.59.56-.39.92-.93,1.1-1.6h1.33c-.24.96-.75,1.74-1.53,2.34-.78.6-1.77.91-2.95.91-.92,0-1.75-.21-2.48-.62-.73-.41-1.3-1-1.71-1.76-.41-.76-.62-1.65-.62-2.66s.2-1.91.61-2.67c.41-.77.97-1.35,1.7-1.76.73-.41,1.56-.61,2.49-.61s1.75.2,2.45.61c.7.41,1.24.95,1.61,1.64.38.69.56,1.45.56,2.29,0,.43-.01.76-.04.99ZM281.58,68.06c-.31-.51-.72-.9-1.25-1.17-.53-.26-1.1-.39-1.72-.39-.93,0-1.73.3-2.39.9-.66.6-1.02,1.44-1.09,2.53h6.89c.01-.73-.13-1.35-.44-1.87Z"/>
      <path class="cls-2" d="M300.05,66.48c.72.72,1.08,1.77,1.08,3.15v5.74h-1.24v-5.6c0-1.06-.26-1.88-.77-2.44-.51-.56-1.21-.84-2.1-.84s-1.66.3-2.21.91c-.55.61-.83,1.49-.83,2.65v5.31h-1.24v-5.6c0-1.06-.26-1.88-.77-2.44-.51-.56-1.22-.84-2.12-.84s-1.66.3-2.21.91-.83,1.49-.83,2.65v5.31h-1.26v-9.79h1.26v1.69c.31-.61.75-1.07,1.33-1.39.57-.32,1.21-.48,1.92-.48.85,0,1.59.2,2.23.61.64.41,1.1,1,1.39,1.79.26-.78.71-1.37,1.35-1.78.64-.41,1.37-.62,2.18-.62,1.15,0,2.08.36,2.81,1.09Z"/>
      <path class="cls-2" d="M312.74,70.95h-8.13c.04.74.22,1.38.54,1.9.32.53.75.92,1.27,1.19.53.27,1.1.4,1.72.4.81,0,1.5-.2,2.05-.59.56-.39.92-.93,1.1-1.6h1.33c-.24.96-.75,1.74-1.53,2.34-.78.6-1.77.91-2.95.91-.92,0-1.75-.21-2.48-.62-.73-.41-1.3-1-1.71-1.76-.41-.76-.62-1.65-.62-2.66s.2-1.91.61-2.67c.41-.77.97-1.35,1.7-1.76.73-.41,1.56-.61,2.49-.61s1.75.2,2.45.61c.7.41,1.24.95,1.61,1.64.38.69.56,1.45.56,2.29,0,.43-.01.76-.04.99ZM311.06,68.06c-.31-.51-.72-.9-1.25-1.17-.53-.26-1.1-.39-1.72-.39-.93,0-1.73.3-2.39.9-.66.6-1.02,1.44-1.09,2.53h6.89c.01-.73-.13-1.35-.44-1.87Z"/>
      <path class="cls-2" d="M322.53,66.48c.74.72,1.11,1.77,1.11,3.15v5.74h-1.24v-5.6c0-1.06-.27-1.88-.8-2.44-.53-.56-1.26-.84-2.18-.84s-1.7.3-2.26.9c-.56.6-.84,1.48-.84,2.64v5.35h-1.26v-9.79h1.26v1.67c.31-.6.76-1.06,1.35-1.37.59-.32,1.25-.48,1.99-.48,1.17,0,2.13.36,2.87,1.09Z"/>
      <path class="cls-2" d="M328.06,66.63v6.08c0,.6.11,1.01.34,1.24.23.23.63.34,1.2.34h1.15v1.08h-1.35c-.88,0-1.54-.21-1.97-.62-.43-.41-.65-1.09-.65-2.04v-6.08h-1.36v-1.06h1.36v-2.46h1.27v2.46h2.69v1.06h-2.69Z"/>
      <path class="cls-2" d="M339.35,75.06c-.63-.29-1.12-.69-1.48-1.2-.36-.51-.55-1.09-.57-1.72h1.33c.06.61.33,1.15.81,1.61.48.46,1.18.69,2.1.69.85,0,1.52-.22,2.02-.65.5-.44.74-.99.74-1.66,0-.54-.14-.97-.41-1.3-.28-.33-.62-.57-1.02-.74-.41-.16-.97-.34-1.69-.53-.84-.23-1.5-.45-1.99-.66-.49-.22-.91-.55-1.26-1-.35-.45-.52-1.07-.52-1.85,0-.65.17-1.22.5-1.73.33-.51.81-.91,1.42-1.19s1.31-.43,2.1-.43c1.16,0,2.1.28,2.81.85.71.57,1.12,1.3,1.23,2.2h-1.36c-.08-.51-.36-.97-.84-1.37-.48-.4-1.12-.6-1.94-.6-.75,0-1.38.2-1.88.6-.5.4-.75.95-.75,1.64,0,.53.14.95.41,1.27.28.32.62.57,1.03.74.41.17.97.35,1.68.54.81.23,1.47.45,1.97.67.5.22.93.56,1.27,1.01.35.45.52,1.06.52,1.83,0,.59-.16,1.14-.47,1.67-.31.53-.77.95-1.38,1.27s-1.34.48-2.19.48-1.55-.14-2.18-.43Z"/>
      <path class="cls-2" d="M356.06,65.57l-5.81,14.4h-1.31l1.9-4.66-4.02-9.74h1.38l3.34,8.36,3.23-8.36h1.29Z"/>
      <path class="cls-2" d="M358.38,74.73c-.71-.52-1.11-1.23-1.19-2.13h1.29c.06.55.32,1,.78,1.34.46.34,1.08.51,1.86.51.68,0,1.22-.16,1.61-.48.39-.32.58-.72.58-1.2,0-.33-.11-.61-.32-.83s-.49-.39-.82-.51c-.33-.13-.77-.26-1.34-.4-.73-.19-1.32-.38-1.78-.57-.45-.19-.84-.48-1.16-.85-.32-.38-.48-.88-.48-1.52,0-.48.14-.92.43-1.33s.69-.73,1.22-.97c.53-.24,1.12-.36,1.79-.36,1.05,0,1.9.27,2.55.8.65.53.99,1.26,1.04,2.2h-1.26c-.04-.57-.26-1.04-.67-1.39-.41-.35-.98-.53-1.7-.53-.63,0-1.15.15-1.54.45-.39.3-.59.67-.59,1.11,0,.38.12.7.35.94.23.25.52.44.87.57.35.14.81.29,1.4.46.71.19,1.27.38,1.69.56.42.18.78.44,1.08.79.3.35.45.81.47,1.38,0,.53-.14,1-.43,1.41-.29.41-.69.74-1.2.98-.51.24-1.11.36-1.78.36-1.12,0-2.04-.26-2.75-.78Z"/>
      <path class="cls-2" d="M368.54,66.63v6.08c0,.6.11,1.01.34,1.24.23.23.63.34,1.2.34h1.15v1.08h-1.35c-.88,0-1.54-.21-1.97-.62-.43-.41-.65-1.09-.65-2.04v-6.08h-1.36v-1.06h1.36v-2.46h1.27v2.46h2.69v1.06h-2.69Z"/>
      <path class="cls-2" d="M382.12,70.95h-8.13c.04.74.22,1.38.54,1.9.32.53.75.92,1.27,1.19.53.27,1.1.4,1.72.4.81,0,1.5-.2,2.05-.59.56-.39.92-.93,1.1-1.6h1.33c-.24.96-.75,1.74-1.53,2.34-.78.6-1.77.91-2.95.91-.92,0-1.75-.21-2.48-.62-.73-.41-1.3-1-1.71-1.76-.41-.76-.62-1.65-.62-2.66s.2-1.91.61-2.67c.41-.77.97-1.35,1.7-1.76.73-.41,1.56-.61,2.49-.61s1.75.2,2.45.61c.7.41,1.24.95,1.61,1.64.38.69.56,1.45.56,2.29,0,.43-.01.76-.04.99ZM380.44,68.06c-.31-.51-.72-.9-1.25-1.17-.53-.26-1.1-.39-1.72-.39-.93,0-1.73.3-2.39.9-.66.6-1.02,1.44-1.09,2.53h6.89c.01-.73-.13-1.35-.44-1.87Z"/>
      <path class="cls-2" d="M398.91,66.48c.72.72,1.09,1.77,1.09,3.15v5.74h-1.24v-5.6c0-1.06-.26-1.88-.77-2.44-.51-.56-1.21-.84-2.1-.84s-1.66.3-2.21.91c-.55.61-.83,1.49-.83,2.65v5.31h-1.24v-5.6c0-1.06-.26-1.88-.77-2.44-.51-.56-1.22-.84-2.12-.84s-1.66.3-2.21.91-.83,1.49-.83,2.65v5.31h-1.26v-9.79h1.26v1.69c.31-.61.75-1.07,1.33-1.39.57-.32,1.21-.48,1.92-.48.85,0,1.59.2,2.23.61.64.41,1.1,1,1.39,1.79.26-.78.71-1.37,1.35-1.78.64-.41,1.37-.62,2.18-.62,1.15,0,2.08.36,2.81,1.09Z"/>
    </g>
  </g>
</svg>