<svg width="40" height="40" viewBox="0 0 40 40" fill="none" xmlns="http://www.w3.org/2000/svg">
<g clip-path="url(#clip0_99_559)">
<path d="M21.3055 19.3908H20.5848V17.8093C20.5848 17.4857 20.3225 17.2234 19.9988 17.2234C19.6752 17.2234 19.4129 17.4857 19.4129 17.8093V19.9767C19.4129 20.3003 19.6752 20.5627 19.9988 20.5627H21.3055C21.6292 20.5627 21.8914 20.3003 21.8914 19.9767C21.8914 19.6532 21.6292 19.3908 21.3055 19.3908Z" fill="#FF787A"/>
<path d="M19.9988 14.4825C17.297 14.4825 15.0989 16.69 15.0989 19.4033C15.0989 22.1167 17.297 24.3241 19.9988 24.3241C22.7007 24.3241 24.8988 22.1167 24.8988 19.4033C24.8988 16.69 22.7007 14.4825 19.9988 14.4825ZM19.9988 23.1522C17.9432 23.1522 16.2708 21.4705 16.2708 19.4033C16.2708 17.3362 17.9431 15.6544 19.9988 15.6544C22.0545 15.6544 23.7269 17.3361 23.7269 19.4033C23.7269 21.4705 22.0545 23.1522 19.9988 23.1522Z" fill="#FF787A"/>
<path d="M4.54999 25.4887H9.96467C10.4416 25.4887 10.8296 25.1007 10.8296 24.6237V21.9272C10.8296 21.4503 10.4416 21.0623 9.96467 21.0623H4.54999C4.07186 21.0623 3.6828 21.4502 3.6828 21.9272V24.6237C3.68288 25.1007 4.07186 25.4887 4.54999 25.4887ZM7.84218 22.2342H9.65772V24.3168H7.84218V22.2342ZM4.85475 22.2342H6.6703V24.3168H4.85475V22.2342Z" fill="#FF787A"/>
<path d="M3.68288 30.4818C3.68288 30.9599 4.07186 31.3489 4.55007 31.3489H9.96475C10.4416 31.3489 10.8297 30.9599 10.8297 30.4818V27.7875C10.8297 27.3094 10.4416 26.9204 9.96475 26.9204H4.54999C4.07186 26.9204 3.6828 27.3094 3.6828 27.7875L3.68288 30.4818ZM7.84218 28.0923H9.65772V30.1771H7.84218V28.0923ZM4.85475 28.0923H6.6703V30.1771H4.85475V28.0923Z" fill="#FF787A"/>
<path d="M30.0353 25.4887H35.45C35.9269 25.4887 36.3149 25.1007 36.3149 24.6237V21.9272C36.3149 21.4503 35.9269 21.0623 35.45 21.0623H30.0353C29.5572 21.0623 29.1682 21.4502 29.1682 21.9272V24.6237C29.1682 25.1007 29.5572 25.4887 30.0353 25.4887ZM33.3275 22.2342H35.1431V24.3168H33.3275V22.2342ZM30.3401 22.2342H32.1557V24.3168H30.3401V22.2342Z" fill="#FF787A"/>
<path d="M30.0353 31.3489H35.45C35.9269 31.3489 36.3149 30.9599 36.3149 30.4818V27.7875C36.3149 27.3094 35.9269 26.9204 35.45 26.9204H30.0353C29.5572 26.9204 29.1682 27.3094 29.1682 27.7875V30.4818C29.1682 30.9599 29.5572 31.3489 30.0353 31.3489ZM33.3275 28.0923H35.1431V30.1771H33.3275V28.0923ZM30.3401 28.0923H32.1557V30.1771H30.3401V28.0923Z" fill="#FF787A"/>
<path d="M39.2126 14.7638H27.9128V13.011H28.6313C29.102 13.011 29.4852 12.627 29.4852 12.1549V9.71516C29.4852 9.24312 29.1021 8.85914 28.6313 8.85914H20.5848V7.13531H25.2297C25.8129 7.13531 26.2873 6.65992 26.2873 6.07562V2.6993C26.2873 2.115 25.8129 1.63961 25.2297 1.63961H20.5848V1.28906C20.5848 0.965469 20.3225 0.703125 19.9988 0.703125C19.6752 0.703125 19.4129 0.965469 19.4129 1.28906V2.22555V6.54938V8.85922H11.3688C10.8967 8.85922 10.5127 9.24328 10.5127 9.71523V12.155C10.5127 12.627 10.8967 13.0111 11.3688 13.0111H12.0872V14.7638H0.785234C0.352266 14.7638 0 15.117 0 15.5512V17.6079C0 18.0421 0.352266 18.3953 0.785234 18.3953H1.16484V26.2045C1.16484 26.5281 1.42711 26.7905 1.75078 26.7905C2.07445 26.7905 2.33672 26.5281 2.33672 26.2045V18.3953H12.0872V38.125H2.33672V28.9099C2.33672 28.5863 2.07445 28.324 1.75078 28.324C1.42711 28.324 1.16484 28.5863 1.16484 28.9099V38.3567C1.16484 38.8752 1.58766 39.2969 2.10727 39.2969H37.8927C38.4111 39.2969 38.8329 38.8752 38.8329 38.3567V18.3952H39.2125C39.6467 18.3952 39.9999 18.042 39.9999 17.6078V15.5511C40 15.117 39.6468 14.7638 39.2126 14.7638ZM20.5848 2.81148H25.1155V5.96344H20.5848V2.81148ZM12.0872 17.2234H1.17188V15.9355H12.0872V17.2234ZM38.8281 15.9356V17.2234H38.247H27.9128V15.9356H38.8281ZM24.0503 38.125H15.9475V36.6999H16.4667H23.5312H24.0504V38.125H24.0503ZM17.0526 35.528V28.7121H19.4129V35.528H17.0526ZM20.5848 35.528V28.7121H22.9452V35.528H20.5848ZM24.117 35.5295V28.5402C24.117 27.9888 23.6684 27.5402 23.117 27.5402H16.883C16.3303 27.5402 15.8807 27.9888 15.8807 28.5402V35.5296C15.2686 35.5462 14.7755 36.0298 14.7755 36.6232V38.125H13.259V13.011H18.5727C18.8963 13.011 19.1586 12.7487 19.1586 12.4251C19.1586 12.1015 18.8963 11.8391 18.5727 11.8391H11.6845V10.0311H28.3133V11.8391H21.1815C20.8578 11.8391 20.5955 12.1015 20.5955 12.4251C20.5955 12.7487 20.8578 13.011 21.1815 13.011H26.7409V38.125H25.2222V36.6232C25.2222 36.0291 24.729 35.5451 24.117 35.5295ZM37.6611 38.125H27.9128V18.3952H37.661V38.125H37.6611Z" fill="#FF787A"/>
</g>
<defs>
<clipPath id="clip0_99_559">
<rect width="40" height="40" fill="white"/>
</clipPath>
</defs>
</svg>
