<svg width="40" height="40" viewBox="0 0 40 40" fill="none" xmlns="http://www.w3.org/2000/svg">
<path d="M37.7794 10.6907L20.2794 1.94067C20.1926 1.89732 20.097 1.87476 20 1.87476C19.903 1.87476 19.8074 1.89732 19.7206 1.94067L2.22063 10.6907C2.11674 10.7426 2.02936 10.8224 1.96832 10.9212C1.90727 11.02 1.87496 11.1339 1.87501 11.25V28.75C1.87437 28.8667 1.90641 28.9812 1.96749 29.0807C2.02857 29.1801 2.11626 29.2604 2.22063 29.3125L19.7206 38.0625C19.8074 38.1059 19.903 38.1285 20 38.1285C20.097 38.1285 20.1926 38.1059 20.2794 38.0625L37.7794 29.3125C37.8838 29.2604 37.9714 29.1801 38.0325 29.0807C38.0936 28.9812 38.1256 28.8667 38.125 28.75V11.25C38.1251 11.1339 38.0928 11.02 38.0317 10.9212C37.9707 10.8224 37.8833 10.7426 37.7794 10.6907ZM20 19.3013L15.1144 16.8582L30.7306 8.56255L36.1056 11.25L20 19.3013ZM10.1144 14.3582L25.7306 6.06255L29.3556 7.87505L13.7413 16.1719L10.1144 14.3582ZM9.37501 15.3863L13.125 17.2613V22.2413L11.6919 20.8082C11.5747 20.691 11.4158 20.6251 11.25 20.625H9.37501V15.3863ZM20 3.1988L24.3575 5.37505L8.74126 13.6719L3.89751 11.25L20 3.1988ZM3.12501 12.2613L8.12501 14.7613V21.25C8.12501 21.4158 8.19086 21.5748 8.30807 21.692C8.42528 21.8092 8.58425 21.875 8.75001 21.875H10.9913L13.3081 24.1919C13.3955 24.2793 13.5069 24.3388 13.6281 24.3629C13.7493 24.387 13.875 24.3746 13.9892 24.3273C14.1034 24.2801 14.201 24.2 14.2696 24.0972C14.3383 23.9945 14.375 23.8736 14.375 23.75V17.8863L19.375 20.3863V36.4888L3.12501 28.3638V12.2613ZM20.625 36.4888V20.3863L36.875 12.2613V28.3638L20.625 36.4888Z" fill="#005CE3"/>
</svg>
